<?xml version="1.0" encoding="utf-8" standalone="no"?>
<!DOCTYPE svg PUBLIC "-//W3C//DTD SVG 1.1//EN"
  "http://www.w3.org/Graphics/SVG/1.1/DTD/svg11.dtd">
<!-- Created with matplotlib (http://matplotlib.org/) -->
<svg height="351pt" version="1.1" viewBox="0 0 566 351" width="566pt" xmlns="http://www.w3.org/2000/svg" xmlns:xlink="http://www.w3.org/1999/xlink">
 <defs>
  <style type="text/css">
*{stroke-linecap:butt;stroke-linejoin:round;}
  </style>
 </defs>
 <g id="figure_1">
  <g id="patch_1">
   <path d="M 0 351.650125 
L 566.905574 351.650125 
L 566.905574 0 
L 0 0 
z
" style="fill:#ffffff;"/>
  </g>
  <g id="axes_1">
   <g id="patch_2">
    <path d="M 50.003125 307.872 
L 407.123125 307.872 
L 407.123125 41.76 
L 50.003125 41.76 
z
" style="fill:#ffffff;"/>
   </g>
   <g id="matplotlib.axis_1">
    <g id="xtick_1">
     <g id="line2d_1">
      <defs>
       <path d="M 0 0 
L 0 3.5 
" id="m725c7fe48f" style="stroke:#000000;stroke-width:0.8;"/>
      </defs>
      <g>
       <use style="stroke:#000000;stroke-width:0.8;" x="93.681622" xlink:href="#m725c7fe48f" y="307.872"/>
      </g>
     </g>
     <g id="text_1">
      <!-- 0.50 -->
      <defs>
       <path d="M 31.78125 66.40625 
Q 24.171875 66.40625 20.328125 58.90625 
Q 16.5 51.421875 16.5 36.375 
Q 16.5 21.390625 20.328125 13.890625 
Q 24.171875 6.390625 31.78125 6.390625 
Q 39.453125 6.390625 43.28125 13.890625 
Q 47.125 21.390625 47.125 36.375 
Q 47.125 51.421875 43.28125 58.90625 
Q 39.453125 66.40625 31.78125 66.40625 
M 31.78125 74.21875 
Q 44.046875 74.21875 50.515625 64.515625 
Q 56.984375 54.828125 56.984375 36.375 
Q 56.984375 17.96875 50.515625 8.265625 
Q 44.046875 -1.421875 31.78125 -1.421875 
Q 19.53125 -1.421875 13.0625 8.265625 
Q 6.59375 17.96875 6.59375 36.375 
Q 6.59375 54.828125 13.0625 64.515625 
Q 19.53125 74.21875 31.78125 74.21875 
" id="DejaVuSans-30"/>
       <path d="M 10.6875 12.40625 
L 21 12.40625 
L 21 0 
L 10.6875 0 
z
" id="DejaVuSans-2e"/>
       <path d="M 10.796875 72.90625 
L 49.515625 72.90625 
L 49.515625 64.59375 
L 19.828125 64.59375 
L 19.828125 46.734375 
Q 21.96875 47.46875 24.109375 47.828125 
Q 26.265625 48.1875 28.421875 48.1875 
Q 40.625 48.1875 47.75 41.5 
Q 54.890625 34.8125 54.890625 23.390625 
Q 54.890625 11.625 47.5625 5.09375 
Q 40.234375 -1.421875 26.90625 -1.421875 
Q 22.3125 -1.421875 17.546875 -0.640625 
Q 12.796875 0.140625 7.71875 1.703125 
L 7.71875 11.625 
Q 12.109375 9.234375 16.796875 8.0625 
Q 21.484375 6.890625 26.703125 6.890625 
Q 35.15625 6.890625 40.078125 11.328125 
Q 45.015625 15.765625 45.015625 23.390625 
Q 45.015625 31 40.078125 35.4375 
Q 35.15625 39.890625 26.703125 39.890625 
Q 22.75 39.890625 18.8125 39.015625 
Q 14.890625 38.140625 10.796875 36.28125 
z
" id="DejaVuSans-35"/>
      </defs>
      <g transform="translate(82.548809 322.470438)scale(0.1 -0.1)">
       <use xlink:href="#DejaVuSans-30"/>
       <use x="63.623047" xlink:href="#DejaVuSans-2e"/>
       <use x="95.410156" xlink:href="#DejaVuSans-35"/>
       <use x="159.033203" xlink:href="#DejaVuSans-30"/>
      </g>
     </g>
    </g>
    <g id="xtick_2">
     <g id="line2d_2">
      <g>
       <use style="stroke:#000000;stroke-width:0.8;" x="140.540252" xlink:href="#m725c7fe48f" y="307.872"/>
      </g>
     </g>
     <g id="text_2">
      <!-- 0.55 -->
      <g transform="translate(129.407439 322.470438)scale(0.1 -0.1)">
       <use xlink:href="#DejaVuSans-30"/>
       <use x="63.623047" xlink:href="#DejaVuSans-2e"/>
       <use x="95.410156" xlink:href="#DejaVuSans-35"/>
       <use x="159.033203" xlink:href="#DejaVuSans-35"/>
      </g>
     </g>
    </g>
    <g id="xtick_3">
     <g id="line2d_3">
      <g>
       <use style="stroke:#000000;stroke-width:0.8;" x="187.398882" xlink:href="#m725c7fe48f" y="307.872"/>
      </g>
     </g>
     <g id="text_3">
      <!-- 0.60 -->
      <defs>
       <path d="M 33.015625 40.375 
Q 26.375 40.375 22.484375 35.828125 
Q 18.609375 31.296875 18.609375 23.390625 
Q 18.609375 15.53125 22.484375 10.953125 
Q 26.375 6.390625 33.015625 6.390625 
Q 39.65625 6.390625 43.53125 10.953125 
Q 47.40625 15.53125 47.40625 23.390625 
Q 47.40625 31.296875 43.53125 35.828125 
Q 39.65625 40.375 33.015625 40.375 
M 52.59375 71.296875 
L 52.59375 62.3125 
Q 48.875 64.0625 45.09375 64.984375 
Q 41.3125 65.921875 37.59375 65.921875 
Q 27.828125 65.921875 22.671875 59.328125 
Q 17.53125 52.734375 16.796875 39.40625 
Q 19.671875 43.65625 24.015625 45.921875 
Q 28.375 48.1875 33.59375 48.1875 
Q 44.578125 48.1875 50.953125 41.515625 
Q 57.328125 34.859375 57.328125 23.390625 
Q 57.328125 12.15625 50.6875 5.359375 
Q 44.046875 -1.421875 33.015625 -1.421875 
Q 20.359375 -1.421875 13.671875 8.265625 
Q 6.984375 17.96875 6.984375 36.375 
Q 6.984375 53.65625 15.1875 63.9375 
Q 23.390625 74.21875 37.203125 74.21875 
Q 40.921875 74.21875 44.703125 73.484375 
Q 48.484375 72.75 52.59375 71.296875 
" id="DejaVuSans-36"/>
      </defs>
      <g transform="translate(176.26607 322.470438)scale(0.1 -0.1)">
       <use xlink:href="#DejaVuSans-30"/>
       <use x="63.623047" xlink:href="#DejaVuSans-2e"/>
       <use x="95.410156" xlink:href="#DejaVuSans-36"/>
       <use x="159.033203" xlink:href="#DejaVuSans-30"/>
      </g>
     </g>
    </g>
    <g id="xtick_4">
     <g id="line2d_4">
      <g>
       <use style="stroke:#000000;stroke-width:0.8;" x="234.257513" xlink:href="#m725c7fe48f" y="307.872"/>
      </g>
     </g>
     <g id="text_4">
      <!-- 0.65 -->
      <g transform="translate(223.1247 322.470438)scale(0.1 -0.1)">
       <use xlink:href="#DejaVuSans-30"/>
       <use x="63.623047" xlink:href="#DejaVuSans-2e"/>
       <use x="95.410156" xlink:href="#DejaVuSans-36"/>
       <use x="159.033203" xlink:href="#DejaVuSans-35"/>
      </g>
     </g>
    </g>
    <g id="xtick_5">
     <g id="line2d_5">
      <g>
       <use style="stroke:#000000;stroke-width:0.8;" x="281.116143" xlink:href="#m725c7fe48f" y="307.872"/>
      </g>
     </g>
     <g id="text_5">
      <!-- 0.70 -->
      <defs>
       <path d="M 8.203125 72.90625 
L 55.078125 72.90625 
L 55.078125 68.703125 
L 28.609375 0 
L 18.3125 0 
L 43.21875 64.59375 
L 8.203125 64.59375 
z
" id="DejaVuSans-37"/>
      </defs>
      <g transform="translate(269.983331 322.470438)scale(0.1 -0.1)">
       <use xlink:href="#DejaVuSans-30"/>
       <use x="63.623047" xlink:href="#DejaVuSans-2e"/>
       <use x="95.410156" xlink:href="#DejaVuSans-37"/>
       <use x="159.033203" xlink:href="#DejaVuSans-30"/>
      </g>
     </g>
    </g>
    <g id="xtick_6">
     <g id="line2d_6">
      <g>
       <use style="stroke:#000000;stroke-width:0.8;" x="327.974774" xlink:href="#m725c7fe48f" y="307.872"/>
      </g>
     </g>
     <g id="text_6">
      <!-- 0.75 -->
      <g transform="translate(316.841961 322.470438)scale(0.1 -0.1)">
       <use xlink:href="#DejaVuSans-30"/>
       <use x="63.623047" xlink:href="#DejaVuSans-2e"/>
       <use x="95.410156" xlink:href="#DejaVuSans-37"/>
       <use x="159.033203" xlink:href="#DejaVuSans-35"/>
      </g>
     </g>
    </g>
    <g id="xtick_7">
     <g id="line2d_7">
      <g>
       <use style="stroke:#000000;stroke-width:0.8;" x="374.833404" xlink:href="#m725c7fe48f" y="307.872"/>
      </g>
     </g>
     <g id="text_7">
      <!-- 0.80 -->
      <defs>
       <path d="M 31.78125 34.625 
Q 24.75 34.625 20.71875 30.859375 
Q 16.703125 27.09375 16.703125 20.515625 
Q 16.703125 13.921875 20.71875 10.15625 
Q 24.75 6.390625 31.78125 6.390625 
Q 38.8125 6.390625 42.859375 10.171875 
Q 46.921875 13.96875 46.921875 20.515625 
Q 46.921875 27.09375 42.890625 30.859375 
Q 38.875 34.625 31.78125 34.625 
M 21.921875 38.8125 
Q 15.578125 40.375 12.03125 44.71875 
Q 8.5 49.078125 8.5 55.328125 
Q 8.5 64.0625 14.71875 69.140625 
Q 20.953125 74.21875 31.78125 74.21875 
Q 42.671875 74.21875 48.875 69.140625 
Q 55.078125 64.0625 55.078125 55.328125 
Q 55.078125 49.078125 51.53125 44.71875 
Q 48 40.375 41.703125 38.8125 
Q 48.828125 37.15625 52.796875 32.3125 
Q 56.78125 27.484375 56.78125 20.515625 
Q 56.78125 9.90625 50.3125 4.234375 
Q 43.84375 -1.421875 31.78125 -1.421875 
Q 19.734375 -1.421875 13.25 4.234375 
Q 6.78125 9.90625 6.78125 20.515625 
Q 6.78125 27.484375 10.78125 32.3125 
Q 14.796875 37.15625 21.921875 38.8125 
M 18.3125 54.390625 
Q 18.3125 48.734375 21.84375 45.5625 
Q 25.390625 42.390625 31.78125 42.390625 
Q 38.140625 42.390625 41.71875 45.5625 
Q 45.3125 48.734375 45.3125 54.390625 
Q 45.3125 60.0625 41.71875 63.234375 
Q 38.140625 66.40625 31.78125 66.40625 
Q 25.390625 66.40625 21.84375 63.234375 
Q 18.3125 60.0625 18.3125 54.390625 
" id="DejaVuSans-38"/>
      </defs>
      <g transform="translate(363.700592 322.470438)scale(0.1 -0.1)">
       <use xlink:href="#DejaVuSans-30"/>
       <use x="63.623047" xlink:href="#DejaVuSans-2e"/>
       <use x="95.410156" xlink:href="#DejaVuSans-38"/>
       <use x="159.033203" xlink:href="#DejaVuSans-30"/>
      </g>
     </g>
    </g>
    <g id="text_8">
     <!-- Latency 3 - - $\frac{T_{uninstrumented}}{T_{instrumented}}$ -->
     <defs>
      <path d="M 9.8125 72.90625 
L 19.671875 72.90625 
L 19.671875 8.296875 
L 55.171875 8.296875 
L 55.171875 0 
L 9.8125 0 
z
" id="DejaVuSans-4c"/>
      <path d="M 34.28125 27.484375 
Q 23.390625 27.484375 19.1875 25 
Q 14.984375 22.515625 14.984375 16.5 
Q 14.984375 11.71875 18.140625 8.90625 
Q 21.296875 6.109375 26.703125 6.109375 
Q 34.1875 6.109375 38.703125 11.40625 
Q 43.21875 16.703125 43.21875 25.484375 
L 43.21875 27.484375 
z
M 52.203125 31.203125 
L 52.203125 0 
L 43.21875 0 
L 43.21875 8.296875 
Q 40.140625 3.328125 35.546875 0.953125 
Q 30.953125 -1.421875 24.3125 -1.421875 
Q 15.921875 -1.421875 10.953125 3.296875 
Q 6 8.015625 6 15.921875 
Q 6 25.140625 12.171875 29.828125 
Q 18.359375 34.515625 30.609375 34.515625 
L 43.21875 34.515625 
L 43.21875 35.40625 
Q 43.21875 41.609375 39.140625 45 
Q 35.0625 48.390625 27.6875 48.390625 
Q 23 48.390625 18.546875 47.265625 
Q 14.109375 46.140625 10.015625 43.890625 
L 10.015625 52.203125 
Q 14.9375 54.109375 19.578125 55.046875 
Q 24.21875 56 28.609375 56 
Q 40.484375 56 46.34375 49.84375 
Q 52.203125 43.703125 52.203125 31.203125 
" id="DejaVuSans-61"/>
      <path d="M 18.3125 70.21875 
L 18.3125 54.6875 
L 36.8125 54.6875 
L 36.8125 47.703125 
L 18.3125 47.703125 
L 18.3125 18.015625 
Q 18.3125 11.328125 20.140625 9.421875 
Q 21.96875 7.515625 27.59375 7.515625 
L 36.8125 7.515625 
L 36.8125 0 
L 27.59375 0 
Q 17.1875 0 13.234375 3.875 
Q 9.28125 7.765625 9.28125 18.015625 
L 9.28125 47.703125 
L 2.6875 47.703125 
L 2.6875 54.6875 
L 9.28125 54.6875 
L 9.28125 70.21875 
z
" id="DejaVuSans-74"/>
      <path d="M 56.203125 29.59375 
L 56.203125 25.203125 
L 14.890625 25.203125 
Q 15.484375 15.921875 20.484375 11.0625 
Q 25.484375 6.203125 34.421875 6.203125 
Q 39.59375 6.203125 44.453125 7.46875 
Q 49.3125 8.734375 54.109375 11.28125 
L 54.109375 2.78125 
Q 49.265625 0.734375 44.1875 -0.34375 
Q 39.109375 -1.421875 33.890625 -1.421875 
Q 20.796875 -1.421875 13.15625 6.1875 
Q 5.515625 13.8125 5.515625 26.8125 
Q 5.515625 40.234375 12.765625 48.109375 
Q 20.015625 56 32.328125 56 
Q 43.359375 56 49.78125 48.890625 
Q 56.203125 41.796875 56.203125 29.59375 
M 47.21875 32.234375 
Q 47.125 39.59375 43.09375 43.984375 
Q 39.0625 48.390625 32.421875 48.390625 
Q 24.90625 48.390625 20.390625 44.140625 
Q 15.875 39.890625 15.1875 32.171875 
z
" id="DejaVuSans-65"/>
      <path d="M 54.890625 33.015625 
L 54.890625 0 
L 45.90625 0 
L 45.90625 32.71875 
Q 45.90625 40.484375 42.875 44.328125 
Q 39.84375 48.1875 33.796875 48.1875 
Q 26.515625 48.1875 22.3125 43.546875 
Q 18.109375 38.921875 18.109375 30.90625 
L 18.109375 0 
L 9.078125 0 
L 9.078125 54.6875 
L 18.109375 54.6875 
L 18.109375 46.1875 
Q 21.34375 51.125 25.703125 53.5625 
Q 30.078125 56 35.796875 56 
Q 45.21875 56 50.046875 50.171875 
Q 54.890625 44.34375 54.890625 33.015625 
" id="DejaVuSans-6e"/>
      <path d="M 48.78125 52.59375 
L 48.78125 44.1875 
Q 44.96875 46.296875 41.140625 47.34375 
Q 37.3125 48.390625 33.40625 48.390625 
Q 24.65625 48.390625 19.8125 42.84375 
Q 14.984375 37.3125 14.984375 27.296875 
Q 14.984375 17.28125 19.8125 11.734375 
Q 24.65625 6.203125 33.40625 6.203125 
Q 37.3125 6.203125 41.140625 7.25 
Q 44.96875 8.296875 48.78125 10.40625 
L 48.78125 2.09375 
Q 45.015625 0.34375 40.984375 -0.53125 
Q 36.96875 -1.421875 32.421875 -1.421875 
Q 20.0625 -1.421875 12.78125 6.34375 
Q 5.515625 14.109375 5.515625 27.296875 
Q 5.515625 40.671875 12.859375 48.328125 
Q 20.21875 56 33.015625 56 
Q 37.15625 56 41.109375 55.140625 
Q 45.0625 54.296875 48.78125 52.59375 
" id="DejaVuSans-63"/>
      <path d="M 32.171875 -5.078125 
Q 28.375 -14.84375 24.75 -17.8125 
Q 21.140625 -20.796875 15.09375 -20.796875 
L 7.90625 -20.796875 
L 7.90625 -13.28125 
L 13.1875 -13.28125 
Q 16.890625 -13.28125 18.9375 -11.515625 
Q 21 -9.765625 23.484375 -3.21875 
L 25.09375 0.875 
L 2.984375 54.6875 
L 12.5 54.6875 
L 29.59375 11.921875 
L 46.6875 54.6875 
L 56.203125 54.6875 
z
" id="DejaVuSans-79"/>
      <path id="DejaVuSans-20"/>
      <path d="M 40.578125 39.3125 
Q 47.65625 37.796875 51.625 33 
Q 55.609375 28.21875 55.609375 21.1875 
Q 55.609375 10.40625 48.1875 4.484375 
Q 40.765625 -1.421875 27.09375 -1.421875 
Q 22.515625 -1.421875 17.65625 -0.515625 
Q 12.796875 0.390625 7.625 2.203125 
L 7.625 11.71875 
Q 11.71875 9.328125 16.59375 8.109375 
Q 21.484375 6.890625 26.8125 6.890625 
Q 36.078125 6.890625 40.9375 10.546875 
Q 45.796875 14.203125 45.796875 21.1875 
Q 45.796875 27.640625 41.28125 31.265625 
Q 36.765625 34.90625 28.71875 34.90625 
L 20.21875 34.90625 
L 20.21875 43.015625 
L 29.109375 43.015625 
Q 36.375 43.015625 40.234375 45.921875 
Q 44.09375 48.828125 44.09375 54.296875 
Q 44.09375 59.90625 40.109375 62.90625 
Q 36.140625 65.921875 28.71875 65.921875 
Q 24.65625 65.921875 20.015625 65.03125 
Q 15.375 64.15625 9.8125 62.3125 
L 9.8125 71.09375 
Q 15.4375 72.65625 20.34375 73.4375 
Q 25.25 74.21875 29.59375 74.21875 
Q 40.828125 74.21875 47.359375 69.109375 
Q 53.90625 64.015625 53.90625 55.328125 
Q 53.90625 49.265625 50.4375 45.09375 
Q 46.96875 40.921875 40.578125 39.3125 
" id="DejaVuSans-33"/>
      <path d="M 4.890625 31.390625 
L 31.203125 31.390625 
L 31.203125 23.390625 
L 4.890625 23.390625 
z
" id="DejaVuSans-2d"/>
      <path d="M 5.90625 72.90625 
L 67.578125 72.90625 
L 66.015625 64.59375 
L 39.984375 64.59375 
L 27.484375 0 
L 17.578125 0 
L 30.078125 64.59375 
L 4.296875 64.59375 
z
" id="DejaVuSans-Oblique-54"/>
      <path d="M 6.6875 21.6875 
L 13.09375 54.6875 
L 22.125 54.6875 
L 15.71875 22.015625 
Q 15.234375 19.625 15.015625 17.921875 
Q 14.796875 16.21875 14.796875 15.09375 
Q 14.796875 10.9375 17.328125 8.65625 
Q 19.875 6.390625 24.515625 6.390625 
Q 31.734375 6.390625 37 11.265625 
Q 42.28125 16.15625 43.890625 24.421875 
L 49.90625 54.6875 
L 58.890625 54.6875 
L 48.296875 0 
L 39.3125 0 
L 41.109375 8.59375 
Q 37.3125 3.8125 32.0625 1.1875 
Q 26.8125 -1.421875 20.90625 -1.421875 
Q 13.71875 -1.421875 9.71875 2.515625 
Q 5.71875 6.453125 5.71875 13.484375 
Q 5.71875 14.9375 5.953125 17.140625 
Q 6.203125 19.34375 6.6875 21.6875 
" id="DejaVuSans-Oblique-75"/>
      <path d="M 55.71875 33.015625 
L 49.3125 0 
L 40.28125 0 
L 46.6875 32.671875 
Q 47.125 34.96875 47.359375 36.71875 
Q 47.609375 38.484375 47.609375 39.5 
Q 47.609375 43.609375 45.015625 45.890625 
Q 42.4375 48.1875 37.796875 48.1875 
Q 30.5625 48.1875 25.34375 43.375 
Q 20.125 38.578125 18.5 30.328125 
L 12.5 0 
L 3.515625 0 
L 14.109375 54.6875 
L 23.09375 54.6875 
L 21.296875 46.09375 
Q 25.046875 50.828125 30.3125 53.40625 
Q 35.59375 56 41.40625 56 
Q 48.640625 56 52.609375 52.09375 
Q 56.59375 48.1875 56.59375 41.109375 
Q 56.59375 39.359375 56.375 37.359375 
Q 56.15625 35.359375 55.71875 33.015625 
" id="DejaVuSans-Oblique-6e"/>
      <path d="M 18.3125 75.984375 
L 27.296875 75.984375 
L 25.09375 64.59375 
L 16.109375 64.59375 
z
M 14.203125 54.6875 
L 23.1875 54.6875 
L 12.5 0 
L 3.515625 0 
z
" id="DejaVuSans-Oblique-69"/>
      <path d="M 50 53.078125 
L 48.296875 44.578125 
Q 44.734375 46.53125 40.765625 47.5 
Q 36.8125 48.484375 32.625 48.484375 
Q 25.53125 48.484375 21.453125 46.0625 
Q 17.390625 43.65625 17.390625 39.5 
Q 17.390625 34.671875 26.859375 32.078125 
Q 27.59375 31.890625 27.9375 31.78125 
L 30.8125 30.90625 
Q 39.796875 28.421875 42.796875 25.6875 
Q 45.796875 22.953125 45.796875 18.21875 
Q 45.796875 9.515625 38.890625 4.046875 
Q 31.984375 -1.421875 20.796875 -1.421875 
Q 16.453125 -1.421875 11.671875 -0.578125 
Q 6.890625 0.25 1.125 2 
L 2.875 11.28125 
Q 7.8125 8.734375 12.59375 7.421875 
Q 17.390625 6.109375 21.78125 6.109375 
Q 28.375 6.109375 32.5 8.9375 
Q 36.625 11.765625 36.625 16.109375 
Q 36.625 20.796875 25.78125 23.6875 
L 24.859375 23.921875 
L 21.78125 24.703125 
Q 14.9375 26.515625 11.765625 29.46875 
Q 8.59375 32.421875 8.59375 37.015625 
Q 8.59375 45.75 15.15625 50.875 
Q 21.734375 56 33.015625 56 
Q 37.453125 56 41.671875 55.265625 
Q 45.90625 54.546875 50 53.078125 
" id="DejaVuSans-Oblique-73"/>
      <path d="M 42.28125 54.6875 
L 40.921875 47.703125 
L 23 47.703125 
L 17.1875 18.015625 
Q 16.890625 16.359375 16.75 15.234375 
Q 16.609375 14.109375 16.609375 13.484375 
Q 16.609375 10.359375 18.484375 8.9375 
Q 20.359375 7.515625 24.515625 7.515625 
L 33.59375 7.515625 
L 32.078125 0 
L 23.484375 0 
Q 15.484375 0 11.546875 3.125 
Q 7.625 6.25 7.625 12.59375 
Q 7.625 13.71875 7.765625 15.0625 
Q 7.90625 16.40625 8.203125 18.015625 
L 14.015625 47.703125 
L 6.390625 47.703125 
L 7.8125 54.6875 
L 15.28125 54.6875 
L 18.3125 70.21875 
L 27.296875 70.21875 
L 24.3125 54.6875 
z
" id="DejaVuSans-Oblique-74"/>
      <path d="M 44.578125 46.390625 
Q 43.21875 47.125 41.453125 47.515625 
Q 39.703125 47.90625 37.703125 47.90625 
Q 30.515625 47.90625 25.140625 42.453125 
Q 19.78125 37.015625 18.015625 27.875 
L 12.5 0 
L 3.515625 0 
L 14.203125 54.6875 
L 23.1875 54.6875 
L 21.484375 46.1875 
Q 25.046875 50.921875 30 53.453125 
Q 34.96875 56 40.578125 56 
Q 42.046875 56 43.453125 55.828125 
Q 44.875 55.671875 46.296875 55.28125 
z
" id="DejaVuSans-Oblique-72"/>
      <path d="M 89.796875 33.015625 
L 83.40625 0 
L 74.421875 0 
L 80.71875 32.71875 
Q 81.109375 34.8125 81.296875 36.328125 
Q 81.5 37.84375 81.5 38.921875 
Q 81.5 43.3125 79.046875 45.75 
Q 76.609375 48.1875 72.21875 48.1875 
Q 65.671875 48.1875 60.546875 43.28125 
Q 55.421875 38.375 53.90625 30.515625 
L 47.90625 0 
L 38.921875 0 
L 45.3125 32.71875 
Q 45.703125 34.515625 45.890625 36.046875 
Q 46.09375 37.59375 46.09375 38.8125 
Q 46.09375 43.265625 43.65625 45.71875 
Q 41.21875 48.1875 36.921875 48.1875 
Q 30.28125 48.1875 25.140625 43.28125 
Q 20.015625 38.375 18.5 30.515625 
L 12.5 0 
L 3.515625 0 
L 14.203125 54.6875 
L 23.1875 54.6875 
L 21.484375 46.1875 
Q 25.140625 50.984375 30.046875 53.484375 
Q 34.96875 56 40.578125 56 
Q 46.53125 56 50.359375 52.875 
Q 54.203125 49.75 54.984375 44.1875 
Q 59.078125 49.953125 64.46875 52.96875 
Q 69.875 56 75.875 56 
Q 82.90625 56 86.734375 51.953125 
Q 90.578125 47.90625 90.578125 40.484375 
Q 90.578125 38.875 90.375 36.9375 
Q 90.1875 35.015625 89.796875 33.015625 
" id="DejaVuSans-Oblique-6d"/>
      <path d="M 48.09375 32.234375 
Q 48.25 33.015625 48.3125 33.84375 
Q 48.390625 34.671875 48.390625 35.5 
Q 48.390625 41.453125 44.890625 44.921875 
Q 41.40625 48.390625 35.40625 48.390625 
Q 28.71875 48.390625 23.578125 44.15625 
Q 18.453125 39.9375 15.828125 32.171875 
z
M 55.90625 25.203125 
L 14.109375 25.203125 
Q 13.8125 23.34375 13.71875 22.265625 
Q 13.625 21.1875 13.625 20.40625 
Q 13.625 13.625 17.796875 9.90625 
Q 21.96875 6.203125 29.59375 6.203125 
Q 35.453125 6.203125 40.671875 7.515625 
Q 45.90625 8.84375 50.390625 11.375 
L 48.6875 2.484375 
Q 43.84375 0.53125 38.6875 -0.4375 
Q 33.546875 -1.421875 28.21875 -1.421875 
Q 16.84375 -1.421875 10.71875 4.015625 
Q 4.59375 9.46875 4.59375 19.484375 
Q 4.59375 28.03125 7.640625 35.375 
Q 10.6875 42.71875 16.609375 48.484375 
Q 20.40625 52.09375 25.65625 54.046875 
Q 30.90625 56 36.8125 56 
Q 46.09375 56 51.578125 50.4375 
Q 57.078125 44.875 57.078125 35.5 
Q 57.078125 33.25 56.78125 30.6875 
Q 56.5 28.125 55.90625 25.203125 
" id="DejaVuSans-Oblique-65"/>
      <path d="M 41.796875 8.203125 
Q 38.1875 3.46875 33.25 1.015625 
Q 28.328125 -1.421875 22.3125 -1.421875 
Q 14.109375 -1.421875 9.34375 4.171875 
Q 4.59375 9.765625 4.59375 19.484375 
Q 4.59375 27.59375 7.46875 34.9375 
Q 10.359375 42.28125 15.828125 48.09375 
Q 19.4375 51.953125 23.96875 53.96875 
Q 28.515625 56 33.5 56 
Q 38.765625 56 42.796875 53.453125 
Q 46.828125 50.921875 49.03125 46.1875 
L 54.890625 75.984375 
L 63.921875 75.984375 
L 49.125 0 
L 40.09375 0 
z
M 13.921875 21.09375 
Q 13.921875 14.015625 17.109375 10.0625 
Q 20.3125 6.109375 25.984375 6.109375 
Q 30.171875 6.109375 33.765625 8.125 
Q 37.359375 10.15625 40.09375 14.109375 
Q 42.96875 18.21875 44.625 23.578125 
Q 46.296875 28.953125 46.296875 34.1875 
Q 46.296875 40.96875 43.09375 44.765625 
Q 39.890625 48.578125 34.28125 48.578125 
Q 30.03125 48.578125 26.359375 46.578125 
Q 22.703125 44.578125 20.125 40.828125 
Q 17.28125 36.765625 15.59375 31.390625 
Q 13.921875 26.03125 13.921875 21.09375 
" id="DejaVuSans-Oblique-64"/>
     </defs>
     <g transform="translate(174.763125 339.350125)scale(0.1 -0.1)">
      <use transform="translate(0 0.987656)" xlink:href="#DejaVuSans-4c"/>
      <use transform="translate(55.712891 0.987656)" xlink:href="#DejaVuSans-61"/>
      <use transform="translate(116.992188 0.987656)" xlink:href="#DejaVuSans-74"/>
      <use transform="translate(156.201172 0.987656)" xlink:href="#DejaVuSans-65"/>
      <use transform="translate(217.724609 0.987656)" xlink:href="#DejaVuSans-6e"/>
      <use transform="translate(281.103516 0.987656)" xlink:href="#DejaVuSans-63"/>
      <use transform="translate(336.083984 0.987656)" xlink:href="#DejaVuSans-79"/>
      <use transform="translate(395.263672 0.987656)" xlink:href="#DejaVuSans-20"/>
      <use transform="translate(427.050781 0.987656)" xlink:href="#DejaVuSans-33"/>
      <use transform="translate(490.673828 0.987656)" xlink:href="#DejaVuSans-20"/>
      <use transform="translate(522.460938 0.987656)" xlink:href="#DejaVuSans-2d"/>
      <use transform="translate(558.544922 0.987656)" xlink:href="#DejaVuSans-2d"/>
      <use transform="translate(594.628906 0.987656)" xlink:href="#DejaVuSans-20"/>
      <use transform="translate(626.416016 56.965625)scale(0.7)" xlink:href="#DejaVuSans-Oblique-54"/>
      <use transform="translate(669.174805 45.48125)scale(0.49)" xlink:href="#DejaVuSans-Oblique-75"/>
      <use transform="translate(700.230469 45.48125)scale(0.49)" xlink:href="#DejaVuSans-Oblique-6e"/>
      <use transform="translate(731.286133 45.48125)scale(0.49)" xlink:href="#DejaVuSans-Oblique-69"/>
      <use transform="translate(744.899902 45.48125)scale(0.49)" xlink:href="#DejaVuSans-Oblique-6e"/>
      <use transform="translate(775.955566 45.48125)scale(0.49)" xlink:href="#DejaVuSans-Oblique-73"/>
      <use transform="translate(801.484375 45.48125)scale(0.49)" xlink:href="#DejaVuSans-Oblique-74"/>
      <use transform="translate(820.696777 45.48125)scale(0.49)" xlink:href="#DejaVuSans-Oblique-72"/>
      <use transform="translate(840.842285 45.48125)scale(0.49)" xlink:href="#DejaVuSans-Oblique-75"/>
      <use transform="translate(871.897949 45.48125)scale(0.49)" xlink:href="#DejaVuSans-Oblique-6d"/>
      <use transform="translate(919.629883 45.48125)scale(0.49)" xlink:href="#DejaVuSans-Oblique-65"/>
      <use transform="translate(949.776367 45.48125)scale(0.49)" xlink:href="#DejaVuSans-Oblique-6e"/>
      <use transform="translate(980.832031 45.48125)scale(0.49)" xlink:href="#DejaVuSans-Oblique-74"/>
      <use transform="translate(1000.044434 45.48125)scale(0.49)" xlink:href="#DejaVuSans-Oblique-65"/>
      <use transform="translate(1030.190918 45.48125)scale(0.49)" xlink:href="#DejaVuSans-Oblique-64"/>
      <use transform="translate(657.416016 -37.499844)scale(0.7)" xlink:href="#DejaVuSans-Oblique-54"/>
      <use transform="translate(700.174805 -48.984219)scale(0.49)" xlink:href="#DejaVuSans-Oblique-69"/>
      <use transform="translate(713.788574 -48.984219)scale(0.49)" xlink:href="#DejaVuSans-Oblique-6e"/>
      <use transform="translate(744.844238 -48.984219)scale(0.49)" xlink:href="#DejaVuSans-Oblique-73"/>
      <use transform="translate(770.373047 -48.984219)scale(0.49)" xlink:href="#DejaVuSans-Oblique-74"/>
      <use transform="translate(789.585449 -48.984219)scale(0.49)" xlink:href="#DejaVuSans-Oblique-72"/>
      <use transform="translate(809.730957 -48.984219)scale(0.49)" xlink:href="#DejaVuSans-Oblique-75"/>
      <use transform="translate(840.786621 -48.984219)scale(0.49)" xlink:href="#DejaVuSans-Oblique-6d"/>
      <use transform="translate(888.518555 -48.984219)scale(0.49)" xlink:href="#DejaVuSans-Oblique-65"/>
      <use transform="translate(918.665039 -48.984219)scale(0.49)" xlink:href="#DejaVuSans-Oblique-6e"/>
      <use transform="translate(949.720703 -48.984219)scale(0.49)" xlink:href="#DejaVuSans-Oblique-74"/>
      <use transform="translate(968.933105 -48.984219)scale(0.49)" xlink:href="#DejaVuSans-Oblique-65"/>
      <use transform="translate(999.07959 -48.984219)scale(0.49)" xlink:href="#DejaVuSans-Oblique-64"/>
      <path d="M 626.416016 19.784531 
L 626.416016 26.034531 
L 1063.208496 26.034531 
L 1063.208496 19.784531 
L 626.416016 19.784531 
z
"/>
     </g>
    </g>
   </g>
   <g id="matplotlib.axis_2">
    <g id="ytick_1">
     <g id="line2d_8">
      <defs>
       <path d="M 0 0 
L -3.5 0 
" id="mc0df2aedf2" style="stroke:#000000;stroke-width:0.8;"/>
      </defs>
      <g>
       <use style="stroke:#000000;stroke-width:0.8;" x="50.003125" xlink:href="#mc0df2aedf2" y="284.188149"/>
      </g>
     </g>
     <g id="text_9">
      <!-- 0.6 -->
      <g transform="translate(27.1 287.987368)scale(0.1 -0.1)">
       <use xlink:href="#DejaVuSans-30"/>
       <use x="63.623047" xlink:href="#DejaVuSans-2e"/>
       <use x="95.410156" xlink:href="#DejaVuSans-36"/>
      </g>
     </g>
    </g>
    <g id="ytick_2">
     <g id="line2d_9">
      <g>
       <use style="stroke:#000000;stroke-width:0.8;" x="50.003125" xlink:href="#mc0df2aedf2" y="226.365396"/>
      </g>
     </g>
     <g id="text_10">
      <!-- 0.7 -->
      <g transform="translate(27.1 230.164615)scale(0.1 -0.1)">
       <use xlink:href="#DejaVuSans-30"/>
       <use x="63.623047" xlink:href="#DejaVuSans-2e"/>
       <use x="95.410156" xlink:href="#DejaVuSans-37"/>
      </g>
     </g>
    </g>
    <g id="ytick_3">
     <g id="line2d_10">
      <g>
       <use style="stroke:#000000;stroke-width:0.8;" x="50.003125" xlink:href="#mc0df2aedf2" y="168.542644"/>
      </g>
     </g>
     <g id="text_11">
      <!-- 0.8 -->
      <g transform="translate(27.1 172.341862)scale(0.1 -0.1)">
       <use xlink:href="#DejaVuSans-30"/>
       <use x="63.623047" xlink:href="#DejaVuSans-2e"/>
       <use x="95.410156" xlink:href="#DejaVuSans-38"/>
      </g>
     </g>
    </g>
    <g id="ytick_4">
     <g id="line2d_11">
      <g>
       <use style="stroke:#000000;stroke-width:0.8;" x="50.003125" xlink:href="#mc0df2aedf2" y="110.719891"/>
      </g>
     </g>
     <g id="text_12">
      <!-- 0.9 -->
      <defs>
       <path d="M 10.984375 1.515625 
L 10.984375 10.5 
Q 14.703125 8.734375 18.5 7.8125 
Q 22.3125 6.890625 25.984375 6.890625 
Q 35.75 6.890625 40.890625 13.453125 
Q 46.046875 20.015625 46.78125 33.40625 
Q 43.953125 29.203125 39.59375 26.953125 
Q 35.25 24.703125 29.984375 24.703125 
Q 19.046875 24.703125 12.671875 31.3125 
Q 6.296875 37.9375 6.296875 49.421875 
Q 6.296875 60.640625 12.9375 67.421875 
Q 19.578125 74.21875 30.609375 74.21875 
Q 43.265625 74.21875 49.921875 64.515625 
Q 56.59375 54.828125 56.59375 36.375 
Q 56.59375 19.140625 48.40625 8.859375 
Q 40.234375 -1.421875 26.421875 -1.421875 
Q 22.703125 -1.421875 18.890625 -0.6875 
Q 15.09375 0.046875 10.984375 1.515625 
M 30.609375 32.421875 
Q 37.25 32.421875 41.125 36.953125 
Q 45.015625 41.5 45.015625 49.421875 
Q 45.015625 57.28125 41.125 61.84375 
Q 37.25 66.40625 30.609375 66.40625 
Q 23.96875 66.40625 20.09375 61.84375 
Q 16.21875 57.28125 16.21875 49.421875 
Q 16.21875 41.5 20.09375 36.953125 
Q 23.96875 32.421875 30.609375 32.421875 
" id="DejaVuSans-39"/>
      </defs>
      <g transform="translate(27.1 114.519109)scale(0.1 -0.1)">
       <use xlink:href="#DejaVuSans-30"/>
       <use x="63.623047" xlink:href="#DejaVuSans-2e"/>
       <use x="95.410156" xlink:href="#DejaVuSans-39"/>
      </g>
     </g>
    </g>
    <g id="ytick_5">
     <g id="line2d_12">
      <g>
       <use style="stroke:#000000;stroke-width:0.8;" x="50.003125" xlink:href="#mc0df2aedf2" y="52.897138"/>
      </g>
     </g>
     <g id="text_13">
      <!-- 1.0 -->
      <defs>
       <path d="M 12.40625 8.296875 
L 28.515625 8.296875 
L 28.515625 63.921875 
L 10.984375 60.40625 
L 10.984375 69.390625 
L 28.421875 72.90625 
L 38.28125 72.90625 
L 38.28125 8.296875 
L 54.390625 8.296875 
L 54.390625 0 
L 12.40625 0 
z
" id="DejaVuSans-31"/>
      </defs>
      <g transform="translate(27.1 56.696356)scale(0.1 -0.1)">
       <use xlink:href="#DejaVuSans-31"/>
       <use x="63.623047" xlink:href="#DejaVuSans-2e"/>
       <use x="95.410156" xlink:href="#DejaVuSans-30"/>
      </g>
     </g>
    </g>
    <g id="text_14">
     <!-- Handshake (with IO) - - $\frac{T_{uninstrumented}}{T_{instrumented}}$ -->
     <defs>
      <path d="M 9.8125 72.90625 
L 19.671875 72.90625 
L 19.671875 43.015625 
L 55.515625 43.015625 
L 55.515625 72.90625 
L 65.375 72.90625 
L 65.375 0 
L 55.515625 0 
L 55.515625 34.71875 
L 19.671875 34.71875 
L 19.671875 0 
L 9.8125 0 
z
" id="DejaVuSans-48"/>
      <path d="M 45.40625 46.390625 
L 45.40625 75.984375 
L 54.390625 75.984375 
L 54.390625 0 
L 45.40625 0 
L 45.40625 8.203125 
Q 42.578125 3.328125 38.25 0.953125 
Q 33.9375 -1.421875 27.875 -1.421875 
Q 17.96875 -1.421875 11.734375 6.484375 
Q 5.515625 14.40625 5.515625 27.296875 
Q 5.515625 40.1875 11.734375 48.09375 
Q 17.96875 56 27.875 56 
Q 33.9375 56 38.25 53.625 
Q 42.578125 51.265625 45.40625 46.390625 
M 14.796875 27.296875 
Q 14.796875 17.390625 18.875 11.75 
Q 22.953125 6.109375 30.078125 6.109375 
Q 37.203125 6.109375 41.296875 11.75 
Q 45.40625 17.390625 45.40625 27.296875 
Q 45.40625 37.203125 41.296875 42.84375 
Q 37.203125 48.484375 30.078125 48.484375 
Q 22.953125 48.484375 18.875 42.84375 
Q 14.796875 37.203125 14.796875 27.296875 
" id="DejaVuSans-64"/>
      <path d="M 44.28125 53.078125 
L 44.28125 44.578125 
Q 40.484375 46.53125 36.375 47.5 
Q 32.28125 48.484375 27.875 48.484375 
Q 21.1875 48.484375 17.84375 46.4375 
Q 14.5 44.390625 14.5 40.28125 
Q 14.5 37.15625 16.890625 35.375 
Q 19.28125 33.59375 26.515625 31.984375 
L 29.59375 31.296875 
Q 39.15625 29.25 43.1875 25.515625 
Q 47.21875 21.78125 47.21875 15.09375 
Q 47.21875 7.46875 41.1875 3.015625 
Q 35.15625 -1.421875 24.609375 -1.421875 
Q 20.21875 -1.421875 15.453125 -0.5625 
Q 10.6875 0.296875 5.421875 2 
L 5.421875 11.28125 
Q 10.40625 8.6875 15.234375 7.390625 
Q 20.0625 6.109375 24.8125 6.109375 
Q 31.15625 6.109375 34.5625 8.28125 
Q 37.984375 10.453125 37.984375 14.40625 
Q 37.984375 18.0625 35.515625 20.015625 
Q 33.0625 21.96875 24.703125 23.78125 
L 21.578125 24.515625 
Q 13.234375 26.265625 9.515625 29.90625 
Q 5.8125 33.546875 5.8125 39.890625 
Q 5.8125 47.609375 11.28125 51.796875 
Q 16.75 56 26.8125 56 
Q 31.78125 56 36.171875 55.265625 
Q 40.578125 54.546875 44.28125 53.078125 
" id="DejaVuSans-73"/>
      <path d="M 54.890625 33.015625 
L 54.890625 0 
L 45.90625 0 
L 45.90625 32.71875 
Q 45.90625 40.484375 42.875 44.328125 
Q 39.84375 48.1875 33.796875 48.1875 
Q 26.515625 48.1875 22.3125 43.546875 
Q 18.109375 38.921875 18.109375 30.90625 
L 18.109375 0 
L 9.078125 0 
L 9.078125 75.984375 
L 18.109375 75.984375 
L 18.109375 46.1875 
Q 21.34375 51.125 25.703125 53.5625 
Q 30.078125 56 35.796875 56 
Q 45.21875 56 50.046875 50.171875 
Q 54.890625 44.34375 54.890625 33.015625 
" id="DejaVuSans-68"/>
      <path d="M 9.078125 75.984375 
L 18.109375 75.984375 
L 18.109375 31.109375 
L 44.921875 54.6875 
L 56.390625 54.6875 
L 27.390625 29.109375 
L 57.625 0 
L 45.90625 0 
L 18.109375 26.703125 
L 18.109375 0 
L 9.078125 0 
z
" id="DejaVuSans-6b"/>
      <path d="M 31 75.875 
Q 24.46875 64.65625 21.28125 53.65625 
Q 18.109375 42.671875 18.109375 31.390625 
Q 18.109375 20.125 21.3125 9.0625 
Q 24.515625 -2 31 -13.1875 
L 23.1875 -13.1875 
Q 15.875 -1.703125 12.234375 9.375 
Q 8.59375 20.453125 8.59375 31.390625 
Q 8.59375 42.28125 12.203125 53.3125 
Q 15.828125 64.359375 23.1875 75.875 
z
" id="DejaVuSans-28"/>
      <path d="M 4.203125 54.6875 
L 13.1875 54.6875 
L 24.421875 12.015625 
L 35.59375 54.6875 
L 46.1875 54.6875 
L 57.421875 12.015625 
L 68.609375 54.6875 
L 77.59375 54.6875 
L 63.28125 0 
L 52.6875 0 
L 40.921875 44.828125 
L 29.109375 0 
L 18.5 0 
z
" id="DejaVuSans-77"/>
      <path d="M 9.421875 54.6875 
L 18.40625 54.6875 
L 18.40625 0 
L 9.421875 0 
z
M 9.421875 75.984375 
L 18.40625 75.984375 
L 18.40625 64.59375 
L 9.421875 64.59375 
z
" id="DejaVuSans-69"/>
      <path d="M 9.8125 72.90625 
L 19.671875 72.90625 
L 19.671875 0 
L 9.8125 0 
z
" id="DejaVuSans-49"/>
      <path d="M 39.40625 66.21875 
Q 28.65625 66.21875 22.328125 58.203125 
Q 16.015625 50.203125 16.015625 36.375 
Q 16.015625 22.609375 22.328125 14.59375 
Q 28.65625 6.59375 39.40625 6.59375 
Q 50.140625 6.59375 56.421875 14.59375 
Q 62.703125 22.609375 62.703125 36.375 
Q 62.703125 50.203125 56.421875 58.203125 
Q 50.140625 66.21875 39.40625 66.21875 
M 39.40625 74.21875 
Q 54.734375 74.21875 63.90625 63.9375 
Q 73.09375 53.65625 73.09375 36.375 
Q 73.09375 19.140625 63.90625 8.859375 
Q 54.734375 -1.421875 39.40625 -1.421875 
Q 24.03125 -1.421875 14.8125 8.828125 
Q 5.609375 19.09375 5.609375 36.375 
Q 5.609375 53.65625 14.8125 63.9375 
Q 24.03125 74.21875 39.40625 74.21875 
" id="DejaVuSans-4f"/>
      <path d="M 8.015625 75.875 
L 15.828125 75.875 
Q 23.140625 64.359375 26.78125 53.3125 
Q 30.421875 42.28125 30.421875 31.390625 
Q 30.421875 20.453125 26.78125 9.375 
Q 23.140625 -1.703125 15.828125 -13.1875 
L 8.015625 -13.1875 
Q 14.5 -2 17.703125 9.0625 
Q 20.90625 20.125 20.90625 31.390625 
Q 20.90625 42.671875 17.703125 53.65625 
Q 14.5 64.65625 8.015625 75.875 
" id="DejaVuSans-29"/>
     </defs>
     <g transform="translate(18 255.166)rotate(-90)scale(0.1 -0.1)">
      <use transform="translate(0 0.987656)" xlink:href="#DejaVuSans-48"/>
      <use transform="translate(75.195312 0.987656)" xlink:href="#DejaVuSans-61"/>
      <use transform="translate(136.474609 0.987656)" xlink:href="#DejaVuSans-6e"/>
      <use transform="translate(199.853516 0.987656)" xlink:href="#DejaVuSans-64"/>
      <use transform="translate(263.330078 0.987656)" xlink:href="#DejaVuSans-73"/>
      <use transform="translate(315.429688 0.987656)" xlink:href="#DejaVuSans-68"/>
      <use transform="translate(378.808594 0.987656)" xlink:href="#DejaVuSans-61"/>
      <use transform="translate(440.087891 0.987656)" xlink:href="#DejaVuSans-6b"/>
      <use transform="translate(497.998047 0.987656)" xlink:href="#DejaVuSans-65"/>
      <use transform="translate(559.521484 0.987656)" xlink:href="#DejaVuSans-20"/>
      <use transform="translate(591.308594 0.987656)" xlink:href="#DejaVuSans-28"/>
      <use transform="translate(630.322266 0.987656)" xlink:href="#DejaVuSans-77"/>
      <use transform="translate(712.109375 0.987656)" xlink:href="#DejaVuSans-69"/>
      <use transform="translate(739.892578 0.987656)" xlink:href="#DejaVuSans-74"/>
      <use transform="translate(779.101562 0.987656)" xlink:href="#DejaVuSans-68"/>
      <use transform="translate(842.480469 0.987656)" xlink:href="#DejaVuSans-20"/>
      <use transform="translate(874.267578 0.987656)" xlink:href="#DejaVuSans-49"/>
      <use transform="translate(903.759766 0.987656)" xlink:href="#DejaVuSans-4f"/>
      <use transform="translate(982.470703 0.987656)" xlink:href="#DejaVuSans-29"/>
      <use transform="translate(1021.484375 0.987656)" xlink:href="#DejaVuSans-20"/>
      <use transform="translate(1053.271484 0.987656)" xlink:href="#DejaVuSans-2d"/>
      <use transform="translate(1089.355469 0.987656)" xlink:href="#DejaVuSans-2d"/>
      <use transform="translate(1125.439453 0.987656)" xlink:href="#DejaVuSans-20"/>
      <use transform="translate(1157.226562 56.965625)scale(0.7)" xlink:href="#DejaVuSans-Oblique-54"/>
      <use transform="translate(1199.985352 45.48125)scale(0.49)" xlink:href="#DejaVuSans-Oblique-75"/>
      <use transform="translate(1231.041016 45.48125)scale(0.49)" xlink:href="#DejaVuSans-Oblique-6e"/>
      <use transform="translate(1262.09668 45.48125)scale(0.49)" xlink:href="#DejaVuSans-Oblique-69"/>
      <use transform="translate(1275.710449 45.48125)scale(0.49)" xlink:href="#DejaVuSans-Oblique-6e"/>
      <use transform="translate(1306.766113 45.48125)scale(0.49)" xlink:href="#DejaVuSans-Oblique-73"/>
      <use transform="translate(1332.294922 45.48125)scale(0.49)" xlink:href="#DejaVuSans-Oblique-74"/>
      <use transform="translate(1351.507324 45.48125)scale(0.49)" xlink:href="#DejaVuSans-Oblique-72"/>
      <use transform="translate(1371.652832 45.48125)scale(0.49)" xlink:href="#DejaVuSans-Oblique-75"/>
      <use transform="translate(1402.708496 45.48125)scale(0.49)" xlink:href="#DejaVuSans-Oblique-6d"/>
      <use transform="translate(1450.44043 45.48125)scale(0.49)" xlink:href="#DejaVuSans-Oblique-65"/>
      <use transform="translate(1480.586914 45.48125)scale(0.49)" xlink:href="#DejaVuSans-Oblique-6e"/>
      <use transform="translate(1511.642578 45.48125)scale(0.49)" xlink:href="#DejaVuSans-Oblique-74"/>
      <use transform="translate(1530.85498 45.48125)scale(0.49)" xlink:href="#DejaVuSans-Oblique-65"/>
      <use transform="translate(1561.001465 45.48125)scale(0.49)" xlink:href="#DejaVuSans-Oblique-64"/>
      <use transform="translate(1188.226562 -37.499844)scale(0.7)" xlink:href="#DejaVuSans-Oblique-54"/>
      <use transform="translate(1230.985352 -48.984219)scale(0.49)" xlink:href="#DejaVuSans-Oblique-69"/>
      <use transform="translate(1244.599121 -48.984219)scale(0.49)" xlink:href="#DejaVuSans-Oblique-6e"/>
      <use transform="translate(1275.654785 -48.984219)scale(0.49)" xlink:href="#DejaVuSans-Oblique-73"/>
      <use transform="translate(1301.183594 -48.984219)scale(0.49)" xlink:href="#DejaVuSans-Oblique-74"/>
      <use transform="translate(1320.395996 -48.984219)scale(0.49)" xlink:href="#DejaVuSans-Oblique-72"/>
      <use transform="translate(1340.541504 -48.984219)scale(0.49)" xlink:href="#DejaVuSans-Oblique-75"/>
      <use transform="translate(1371.597168 -48.984219)scale(0.49)" xlink:href="#DejaVuSans-Oblique-6d"/>
      <use transform="translate(1419.329102 -48.984219)scale(0.49)" xlink:href="#DejaVuSans-Oblique-65"/>
      <use transform="translate(1449.475586 -48.984219)scale(0.49)" xlink:href="#DejaVuSans-Oblique-6e"/>
      <use transform="translate(1480.53125 -48.984219)scale(0.49)" xlink:href="#DejaVuSans-Oblique-74"/>
      <use transform="translate(1499.743652 -48.984219)scale(0.49)" xlink:href="#DejaVuSans-Oblique-65"/>
      <use transform="translate(1529.890137 -48.984219)scale(0.49)" xlink:href="#DejaVuSans-Oblique-64"/>
      <path d="M 1157.226562 19.784531 
L 1157.226562 26.034531 
L 1594.019043 26.034531 
L 1594.019043 19.784531 
L 1157.226562 19.784531 
z
"/>
     </g>
    </g>
   </g>
   <g id="line2d_13">
    <defs>
     <path d="M 0 4 
C 1.060812 4 2.078319 3.578535 2.828427 2.828427 
C 3.578535 2.078319 4 1.060812 4 0 
C 4 -1.060812 3.578535 -2.078319 2.828427 -2.828427 
C 2.078319 -3.578535 1.060812 -4 0 -4 
C -1.060812 -4 -2.078319 -3.578535 -2.828427 -2.828427 
C -3.578535 -2.078319 -4 -1.060812 -4 0 
C -4 1.060812 -3.578535 2.078319 -2.828427 2.828427 
C -2.078319 3.578535 -1.060812 4 0 4 
z
" id="m254b5abb44" style="stroke:#f781bf;"/>
    </defs>
    <g clip-path="url(#p2b4f4d1f21)">
     <use style="fill:#f781bf;stroke:#f781bf;" x="221.421342" xlink:href="#m254b5abb44" y="54.033905"/>
     <use style="fill:#f781bf;stroke:#f781bf;" x="321.895311" xlink:href="#m254b5abb44" y="53.992078"/>
     <use style="fill:#f781bf;stroke:#f781bf;" x="163.15036" xlink:href="#m254b5abb44" y="54.06628"/>
     <use style="fill:#f781bf;stroke:#f781bf;" x="169.020522" xlink:href="#m254b5abb44" y="54.113334"/>
     <use style="fill:#f781bf;stroke:#f781bf;" x="267.320201" xlink:href="#m254b5abb44" y="53.856"/>
     <use style="fill:#f781bf;stroke:#f781bf;" x="175.970674" xlink:href="#m254b5abb44" y="54.143842"/>
     <use style="fill:#f781bf;stroke:#f781bf;" x="162.774361" xlink:href="#m254b5abb44" y="53.948812"/>
     <use style="fill:#f781bf;stroke:#f781bf;" x="138.587113" xlink:href="#m254b5abb44" y="54.115881"/>
     <use style="fill:#f781bf;stroke:#f781bf;" x="201.270288" xlink:href="#m254b5abb44" y="54.061159"/>
     <use style="fill:#f781bf;stroke:#f781bf;" x="116.357129" xlink:href="#m254b5abb44" y="54.118454"/>
     <use style="fill:#f781bf;stroke:#f781bf;" x="309.772522" xlink:href="#m254b5abb44" y="54.088358"/>
     <use style="fill:#f781bf;stroke:#f781bf;" x="116.111989" xlink:href="#m254b5abb44" y="54.048962"/>
     <use style="fill:#f781bf;stroke:#f781bf;" x="245.274244" xlink:href="#m254b5abb44" y="54.009356"/>
     <use style="fill:#f781bf;stroke:#f781bf;" x="291.320315" xlink:href="#m254b5abb44" y="53.896021"/>
     <use style="fill:#f781bf;stroke:#f781bf;" x="272.787014" xlink:href="#m254b5abb44" y="54.059852"/>
     <use style="fill:#f781bf;stroke:#f781bf;" x="353.110374" xlink:href="#m254b5abb44" y="54.09227"/>
    </g>
   </g>
   <g id="line2d_14">
    <defs>
     <path d="M 0 4 
C 1.060812 4 2.078319 3.578535 2.828427 2.828427 
C 3.578535 2.078319 4 1.060812 4 0 
C 4 -1.060812 3.578535 -2.078319 2.828427 -2.828427 
C 2.078319 -3.578535 1.060812 -4 0 -4 
C -1.060812 -4 -2.078319 -3.578535 -2.828427 -2.828427 
C -3.578535 -2.078319 -4 -1.060812 -4 0 
C -4 1.060812 -3.578535 2.078319 -2.828427 2.828427 
C -2.078319 3.578535 -1.060812 4 0 4 
z
" id="m4f269bfdc9" style="stroke:#ff7f00;"/>
    </defs>
    <g clip-path="url(#p2b4f4d1f21)">
     <use style="fill:#ff7f00;stroke:#ff7f00;" x="103.591302" xlink:href="#m4f269bfdc9" y="54.24529"/>
     <use style="fill:#ff7f00;stroke:#ff7f00;" x="164.670872" xlink:href="#m4f269bfdc9" y="54.30325"/>
     <use style="fill:#ff7f00;stroke:#ff7f00;" x="232.85053" xlink:href="#m4f269bfdc9" y="54.410811"/>
     <use style="fill:#ff7f00;stroke:#ff7f00;" x="150.029676" xlink:href="#m4f269bfdc9" y="54.209943"/>
     <use style="fill:#ff7f00;stroke:#ff7f00;" x="159.173846" xlink:href="#m4f269bfdc9" y="54.255618"/>
     <use style="fill:#ff7f00;stroke:#ff7f00;" x="121.496525" xlink:href="#m4f269bfdc9" y="54.213515"/>
     <use style="fill:#ff7f00;stroke:#ff7f00;" x="159.385111" xlink:href="#m4f269bfdc9" y="54.194999"/>
     <use style="fill:#ff7f00;stroke:#ff7f00;" x="199.716008" xlink:href="#m4f269bfdc9" y="54.33699"/>
     <use style="fill:#ff7f00;stroke:#ff7f00;" x="228.124582" xlink:href="#m4f269bfdc9" y="54.280838"/>
     <use style="fill:#ff7f00;stroke:#ff7f00;" x="192.309831" xlink:href="#m4f269bfdc9" y="54.264943"/>
     <use style="fill:#ff7f00;stroke:#ff7f00;" x="241.87692" xlink:href="#m4f269bfdc9" y="54.173407"/>
     <use style="fill:#ff7f00;stroke:#ff7f00;" x="102.647523" xlink:href="#m4f269bfdc9" y="54.235662"/>
     <use style="fill:#ff7f00;stroke:#ff7f00;" x="283.209085" xlink:href="#m4f269bfdc9" y="54.053554"/>
     <use style="fill:#ff7f00;stroke:#ff7f00;" x="66.235852" xlink:href="#m4f269bfdc9" y="54.286249"/>
     <use style="fill:#ff7f00;stroke:#ff7f00;" x="142.927953" xlink:href="#m4f269bfdc9" y="54.369266"/>
     <use style="fill:#ff7f00;stroke:#ff7f00;" x="259.849845" xlink:href="#m4f269bfdc9" y="54.121103"/>
     <use style="fill:#ff7f00;stroke:#ff7f00;" x="266.797063" xlink:href="#m4f269bfdc9" y="54.17539"/>
     <use style="fill:#ff7f00;stroke:#ff7f00;" x="180.694816" xlink:href="#m4f269bfdc9" y="54.325163"/>
    </g>
   </g>
   <g id="line2d_15">
    <defs>
     <path d="M 0 4 
C 1.060812 4 2.078319 3.578535 2.828427 2.828427 
C 3.578535 2.078319 4 1.060812 4 0 
C 4 -1.060812 3.578535 -2.078319 2.828427 -2.828427 
C 2.078319 -3.578535 1.060812 -4 0 -4 
C -1.060812 -4 -2.078319 -3.578535 -2.828427 -2.828427 
C -3.578535 -2.078319 -4 -1.060812 -4 0 
C -4 1.060812 -3.578535 2.078319 -2.828427 2.828427 
C -2.078319 3.578535 -1.060812 4 0 4 
z
" id="m1024b34200" style="stroke:#e41a1c;"/>
    </defs>
    <g clip-path="url(#p2b4f4d1f21)">
     <use style="fill:#e41a1c;stroke:#e41a1c;" x="124.605162" xlink:href="#m1024b34200" y="66.841754"/>
     <use style="fill:#e41a1c;stroke:#e41a1c;" x="363.608011" xlink:href="#m1024b34200" y="67.055322"/>
     <use style="fill:#e41a1c;stroke:#e41a1c;" x="296.830455" xlink:href="#m1024b34200" y="65.784023"/>
     <use style="fill:#e41a1c;stroke:#e41a1c;" x="243.421107" xlink:href="#m1024b34200" y="66.900391"/>
     <use style="fill:#e41a1c;stroke:#e41a1c;" x="359.176935" xlink:href="#m1024b34200" y="67.115253"/>
     <use style="fill:#e41a1c;stroke:#e41a1c;" x="170.203055" xlink:href="#m1024b34200" y="66.816741"/>
     <use style="fill:#e41a1c;stroke:#e41a1c;" x="275.715298" xlink:href="#m1024b34200" y="66.133339"/>
     <use style="fill:#e41a1c;stroke:#e41a1c;" x="328.657579" xlink:href="#m1024b34200" y="67.610448"/>
     <use style="fill:#e41a1c;stroke:#e41a1c;" x="272.02417" xlink:href="#m1024b34200" y="66.762845"/>
     <use style="fill:#e41a1c;stroke:#e41a1c;" x="261.009825" xlink:href="#m1024b34200" y="65.881828"/>
     <use style="fill:#e41a1c;stroke:#e41a1c;" x="161.090194" xlink:href="#m1024b34200" y="67.133966"/>
     <use style="fill:#e41a1c;stroke:#e41a1c;" x="160.239638" xlink:href="#m1024b34200" y="67.17297"/>
     <use style="fill:#e41a1c;stroke:#e41a1c;" x="319.493788" xlink:href="#m1024b34200" y="66.287184"/>
     <use style="fill:#e41a1c;stroke:#e41a1c;" x="244.381291" xlink:href="#m1024b34200" y="66.526755"/>
     <use style="fill:#e41a1c;stroke:#e41a1c;" x="328.930329" xlink:href="#m1024b34200" y="66.952997"/>
     <use style="fill:#e41a1c;stroke:#e41a1c;" x="291.110241" xlink:href="#m1024b34200" y="66.850606"/>
     <use style="fill:#e41a1c;stroke:#e41a1c;" x="208.813727" xlink:href="#m1024b34200" y="66.869824"/>
     <use style="fill:#e41a1c;stroke:#e41a1c;" x="171.396976" xlink:href="#m1024b34200" y="66.684107"/>
     <use style="fill:#e41a1c;stroke:#e41a1c;" x="122.357717" xlink:href="#m1024b34200" y="67.338659"/>
     <use style="fill:#e41a1c;stroke:#e41a1c;" x="231.26329" xlink:href="#m1024b34200" y="67.193665"/>
     <use style="fill:#e41a1c;stroke:#e41a1c;" x="209.462853" xlink:href="#m1024b34200" y="66.99015"/>
     <use style="fill:#e41a1c;stroke:#e41a1c;" x="226.072005" xlink:href="#m1024b34200" y="67.59836"/>
     <use style="fill:#e41a1c;stroke:#e41a1c;" x="264.977521" xlink:href="#m1024b34200" y="65.210721"/>
     <use style="fill:#e41a1c;stroke:#e41a1c;" x="319.77475" xlink:href="#m1024b34200" y="66.217344"/>
    </g>
   </g>
   <g id="line2d_16">
    <defs>
     <path d="M 0 4 
C 1.060812 4 2.078319 3.578535 2.828427 2.828427 
C 3.578535 2.078319 4 1.060812 4 0 
C 4 -1.060812 3.578535 -2.078319 2.828427 -2.828427 
C 2.078319 -3.578535 1.060812 -4 0 -4 
C -1.060812 -4 -2.078319 -3.578535 -2.828427 -2.828427 
C -3.578535 -2.078319 -4 -1.060812 -4 0 
C -4 1.060812 -3.578535 2.078319 -2.828427 2.828427 
C -2.078319 3.578535 -1.060812 4 0 4 
z
" id="md608206d69" style="stroke:#377eb8;"/>
    </defs>
    <g clip-path="url(#p2b4f4d1f21)">
     <use style="fill:#377eb8;stroke:#377eb8;" x="218.99601" xlink:href="#md608206d69" y="62.899992"/>
     <use style="fill:#377eb8;stroke:#377eb8;" x="158.724985" xlink:href="#md608206d69" y="63.667532"/>
     <use style="fill:#377eb8;stroke:#377eb8;" x="259.278329" xlink:href="#md608206d69" y="61.951548"/>
     <use style="fill:#377eb8;stroke:#377eb8;" x="113.809292" xlink:href="#md608206d69" y="62.844304"/>
     <use style="fill:#377eb8;stroke:#377eb8;" x="367.330138" xlink:href="#md608206d69" y="61.953787"/>
     <use style="fill:#377eb8;stroke:#377eb8;" x="203.478763" xlink:href="#md608206d69" y="62.913646"/>
     <use style="fill:#377eb8;stroke:#377eb8;" x="328.747119" xlink:href="#md608206d69" y="62.590259"/>
     <use style="fill:#377eb8;stroke:#377eb8;" x="240.358221" xlink:href="#md608206d69" y="62.652592"/>
     <use style="fill:#377eb8;stroke:#377eb8;" x="172.412144" xlink:href="#md608206d69" y="62.784528"/>
     <use style="fill:#377eb8;stroke:#377eb8;" x="113.655312" xlink:href="#md608206d69" y="62.66028"/>
     <use style="fill:#377eb8;stroke:#377eb8;" x="159.2674" xlink:href="#md608206d69" y="63.147715"/>
     <use style="fill:#377eb8;stroke:#377eb8;" x="319.038062" xlink:href="#md608206d69" y="63.046603"/>
     <use style="fill:#377eb8;stroke:#377eb8;" x="160.079636" xlink:href="#md608206d69" y="62.2688"/>
     <use style="fill:#377eb8;stroke:#377eb8;" x="291.259598" xlink:href="#md608206d69" y="61.33939"/>
     <use style="fill:#377eb8;stroke:#377eb8;" x="123.811752" xlink:href="#md608206d69" y="63.406142"/>
     <use style="fill:#377eb8;stroke:#377eb8;" x="268.564724" xlink:href="#md608206d69" y="63.357479"/>
    </g>
   </g>
   <g id="line2d_17">
    <defs>
     <path d="M 0 4 
C 1.060812 4 2.078319 3.578535 2.828427 2.828427 
C 3.578535 2.078319 4 1.060812 4 0 
C 4 -1.060812 3.578535 -2.078319 2.828427 -2.828427 
C 2.078319 -3.578535 1.060812 -4 0 -4 
C -1.060812 -4 -2.078319 -3.578535 -2.828427 -2.828427 
C -3.578535 -2.078319 -4 -1.060812 -4 0 
C -4 1.060812 -3.578535 2.078319 -2.828427 2.828427 
C -2.078319 3.578535 -1.060812 4 0 4 
z
" id="m64b20f3b83" style="stroke:#999999;"/>
    </defs>
    <g clip-path="url(#p2b4f4d1f21)">
     <use style="fill:#999999;stroke:#999999;" x="166.661971" xlink:href="#m64b20f3b83" y="62.28044"/>
     <use style="fill:#999999;stroke:#999999;" x="321.670294" xlink:href="#m64b20f3b83" y="61.249529"/>
     <use style="fill:#999999;stroke:#999999;" x="201.991634" xlink:href="#m64b20f3b83" y="60.814674"/>
     <use style="fill:#999999;stroke:#999999;" x="138.340629" xlink:href="#m64b20f3b83" y="62.106115"/>
     <use style="fill:#999999;stroke:#999999;" x="221.35081" xlink:href="#m64b20f3b83" y="61.99945"/>
     <use style="fill:#999999;stroke:#999999;" x="177.108126" xlink:href="#m64b20f3b83" y="61.799551"/>
     <use style="fill:#999999;stroke:#999999;" x="355.235298" xlink:href="#m64b20f3b83" y="61.435296"/>
     <use style="fill:#999999;stroke:#999999;" x="309.309095" xlink:href="#m64b20f3b83" y="60.691966"/>
    </g>
   </g>
   <g id="line2d_18">
    <defs>
     <path d="M 0 4 
C 1.060812 4 2.078319 3.578535 2.828427 2.828427 
C 3.578535 2.078319 4 1.060812 4 0 
C 4 -1.060812 3.578535 -2.078319 2.828427 -2.828427 
C 2.078319 -3.578535 1.060812 -4 0 -4 
C -1.060812 -4 -2.078319 -3.578535 -2.828427 -2.828427 
C -3.578535 -2.078319 -4 -1.060812 -4 0 
C -4 1.060812 -3.578535 2.078319 -2.828427 2.828427 
C -2.078319 3.578535 -1.060812 4 0 4 
z
" id="m5b22aafeac" style="stroke:#4daf4a;"/>
    </defs>
    <g clip-path="url(#p2b4f4d1f21)">
     <use style="fill:#4daf4a;stroke:#4daf4a;" x="241.496543" xlink:href="#m5b22aafeac" y="61.788701"/>
     <use style="fill:#4daf4a;stroke:#4daf4a;" x="167.185356" xlink:href="#m5b22aafeac" y="62.542194"/>
     <use style="fill:#4daf4a;stroke:#4daf4a;" x="258.851227" xlink:href="#m5b22aafeac" y="61.183934"/>
     <use style="fill:#4daf4a;stroke:#4daf4a;" x="120.930506" xlink:href="#m5b22aafeac" y="62.282584"/>
     <use style="fill:#4daf4a;stroke:#4daf4a;" x="266.097889" xlink:href="#m5b22aafeac" y="60.797463"/>
     <use style="fill:#4daf4a;stroke:#4daf4a;" x="222.305047" xlink:href="#m5b22aafeac" y="62.246682"/>
     <use style="fill:#4daf4a;stroke:#4daf4a;" x="153.491723" xlink:href="#m5b22aafeac" y="61.752847"/>
     <use style="fill:#4daf4a;stroke:#4daf4a;" x="317.74694" xlink:href="#m5b22aafeac" y="61.464936"/>
     <use style="fill:#4daf4a;stroke:#4daf4a;" x="288.118453" xlink:href="#m5b22aafeac" y="61.758736"/>
     <use style="fill:#4daf4a;stroke:#4daf4a;" x="358.02181" xlink:href="#m5b22aafeac" y="61.751814"/>
     <use style="fill:#4daf4a;stroke:#4daf4a;" x="327.929289" xlink:href="#m5b22aafeac" y="61.524107"/>
     <use style="fill:#4daf4a;stroke:#4daf4a;" x="198.343964" xlink:href="#m5b22aafeac" y="62.037661"/>
    </g>
   </g>
   <g id="line2d_19">
    <defs>
     <path d="M 0 4 
C 1.060812 4 2.078319 3.578535 2.828427 2.828427 
C 3.578535 2.078319 4 1.060812 4 0 
C 4 -1.060812 3.578535 -2.078319 2.828427 -2.828427 
C 2.078319 -3.578535 1.060812 -4 0 -4 
C -1.060812 -4 -2.078319 -3.578535 -2.828427 -2.828427 
C -3.578535 -2.078319 -4 -1.060812 -4 0 
C -4 1.060812 -3.578535 2.078319 -2.828427 2.828427 
C -2.078319 3.578535 -1.060812 4 0 4 
z
" id="m4c85acd91c" style="stroke:#984ea3;"/>
    </defs>
    <g clip-path="url(#p2b4f4d1f21)">
     <use style="fill:#984ea3;stroke:#984ea3;" x="246.370424" xlink:href="#m4c85acd91c" y="288.669319"/>
     <use style="fill:#984ea3;stroke:#984ea3;" x="162.996534" xlink:href="#m4c85acd91c" y="291.343927"/>
     <use style="fill:#984ea3;stroke:#984ea3;" x="117.258291" xlink:href="#m4c85acd91c" y="291.766447"/>
     <use style="fill:#984ea3;stroke:#984ea3;" x="162.559216" xlink:href="#m4c85acd91c" y="291.453498"/>
     <use style="fill:#984ea3;stroke:#984ea3;" x="310.222337" xlink:href="#m4c85acd91c" y="173.982679"/>
     <use style="fill:#984ea3;stroke:#984ea3;" x="141.229102" xlink:href="#m4c85acd91c" y="295.553494"/>
     <use style="fill:#984ea3;stroke:#984ea3;" x="180.401486" xlink:href="#m4c85acd91c" y="293.462419"/>
     <use style="fill:#984ea3;stroke:#984ea3;" x="390.890398" xlink:href="#m4c85acd91c" y="289.472056"/>
     <use style="fill:#984ea3;stroke:#984ea3;" x="221.739815" xlink:href="#m4c85acd91c" y="295.776"/>
     <use style="fill:#984ea3;stroke:#984ea3;" x="117.374877" xlink:href="#m4c85acd91c" y="291.519946"/>
     <use style="fill:#984ea3;stroke:#984ea3;" x="265.832504" xlink:href="#m4c85acd91c" y="172.875584"/>
     <use style="fill:#984ea3;stroke:#984ea3;" x="321.232525" xlink:href="#m4c85acd91c" y="173.437539"/>
     <use style="fill:#984ea3;stroke:#984ea3;" x="201.006674" xlink:href="#m4c85acd91c" y="290.99176"/>
     <use style="fill:#984ea3;stroke:#984ea3;" x="290.783253" xlink:href="#m4c85acd91c" y="171.602697"/>
     <use style="fill:#984ea3;stroke:#984ea3;" x="173.076643" xlink:href="#m4c85acd91c" y="293.374194"/>
     <use style="fill:#984ea3;stroke:#984ea3;" x="272.808392" xlink:href="#m4c85acd91c" y="287.619807"/>
    </g>
   </g>
   <g id="line2d_20">
    <defs>
     <path d="M 0 4 
C 1.060812 4 2.078319 3.578535 2.828427 2.828427 
C 3.578535 2.078319 4 1.060812 4 0 
C 4 -1.060812 3.578535 -2.078319 2.828427 -2.828427 
C 2.078319 -3.578535 1.060812 -4 0 -4 
C -1.060812 -4 -2.078319 -3.578535 -2.828427 -2.828427 
C -3.578535 -2.078319 -4 -1.060812 -4 0 
C -4 1.060812 -3.578535 2.078319 -2.828427 2.828427 
C -2.078319 3.578535 -1.060812 4 0 4 
z
" id="m9b53a79bbd" style="stroke:#a65628;"/>
    </defs>
    <g clip-path="url(#p2b4f4d1f21)">
     <use style="fill:#a65628;stroke:#a65628;" x="220.549749" xlink:href="#m9b53a79bbd" y="194.843044"/>
     <use style="fill:#a65628;stroke:#a65628;" x="261.380518" xlink:href="#m9b53a79bbd" y="173.856849"/>
     <use style="fill:#a65628;stroke:#a65628;" x="315.738411" xlink:href="#m9b53a79bbd" y="174.371797"/>
     <use style="fill:#a65628;stroke:#a65628;" x="129.096628" xlink:href="#m9b53a79bbd" y="194.069581"/>
     <use style="fill:#a65628;stroke:#a65628;" x="369.013383" xlink:href="#m9b53a79bbd" y="193.187525"/>
     <use style="fill:#a65628;stroke:#a65628;" x="169.055698" xlink:href="#m9b53a79bbd" y="194.330651"/>
     <use style="fill:#a65628;stroke:#a65628;" x="266.465832" xlink:href="#m9b53a79bbd" y="191.430327"/>
     <use style="fill:#a65628;stroke:#a65628;" x="288.096463" xlink:href="#m9b53a79bbd" y="173.915075"/>
     <use style="fill:#a65628;stroke:#a65628;" x="241.793004" xlink:href="#m9b53a79bbd" y="193.296745"/>
     <use style="fill:#a65628;stroke:#a65628;" x="164.551333" xlink:href="#m9b53a79bbd" y="194.280872"/>
     <use style="fill:#a65628;stroke:#a65628;" x="327.655759" xlink:href="#m9b53a79bbd" y="174.189454"/>
     <use style="fill:#a65628;stroke:#a65628;" x="194.760027" xlink:href="#m9b53a79bbd" y="194.279429"/>
    </g>
   </g>
   <g id="line2d_21">
    <defs>
     <path d="M 0 4 
C 1.060812 4 2.078319 3.578535 2.828427 2.828427 
C 3.578535 2.078319 4 1.060812 4 0 
C 4 -1.060812 3.578535 -2.078319 2.828427 -2.828427 
C 2.078319 -3.578535 1.060812 -4 0 -4 
C -1.060812 -4 -2.078319 -3.578535 -2.828427 -2.828427 
C -3.578535 -2.078319 -4 -1.060812 -4 0 
C -4 1.060812 -3.578535 2.078319 -2.828427 2.828427 
C -2.078319 3.578535 -1.060812 4 0 4 
z
" id="m1859c35c3c" style="stroke:#ffff33;"/>
    </defs>
    <g clip-path="url(#p2b4f4d1f21)">
     <use style="fill:#ffff33;stroke:#ffff33;" x="127.226412" xlink:href="#m1859c35c3c" y="194.214969"/>
     <use style="fill:#ffff33;stroke:#ffff33;" x="183.022979" xlink:href="#m1859c35c3c" y="194.006618"/>
     <use style="fill:#ffff33;stroke:#ffff33;" x="103.30485" xlink:href="#m1859c35c3c" y="193.349537"/>
     <use style="fill:#ffff33;stroke:#ffff33;" x="262.016598" xlink:href="#m1859c35c3c" y="173.218918"/>
     <use style="fill:#ffff33;stroke:#ffff33;" x="242.074509" xlink:href="#m1859c35c3c" y="192.374968"/>
     <use style="fill:#ffff33;stroke:#ffff33;" x="370.199855" xlink:href="#m1859c35c3c" y="192.802703"/>
     <use style="fill:#ffff33;stroke:#ffff33;" x="154.415792" xlink:href="#m1859c35c3c" y="193.875106"/>
     <use style="fill:#ffff33;stroke:#ffff33;" x="265.715544" xlink:href="#m1859c35c3c" y="191.804864"/>
     <use style="fill:#ffff33;stroke:#ffff33;" x="169.34366" xlink:href="#m1859c35c3c" y="194.389659"/>
     <use style="fill:#ffff33;stroke:#ffff33;" x="218.266224" xlink:href="#m1859c35c3c" y="195.573961"/>
     <use style="fill:#ffff33;stroke:#ffff33;" x="102.892743" xlink:href="#m1859c35c3c" y="193.537361"/>
     <use style="fill:#ffff33;stroke:#ffff33;" x="286.91042" xlink:href="#m1859c35c3c" y="173.865527"/>
     <use style="fill:#ffff33;stroke:#ffff33;" x="66.446019" xlink:href="#m1859c35c3c" y="196.099817"/>
     <use style="fill:#ffff33;stroke:#ffff33;" x="307.308247" xlink:href="#m1859c35c3c" y="192.619855"/>
     <use style="fill:#ffff33;stroke:#ffff33;" x="195.368972" xlink:href="#m1859c35c3c" y="193.599129"/>
     <use style="fill:#ffff33;stroke:#ffff33;" x="164.6338" xlink:href="#m1859c35c3c" y="193.811072"/>
     <use style="fill:#ffff33;stroke:#ffff33;" x="160.713146" xlink:href="#m1859c35c3c" y="192.725243"/>
     <use style="fill:#ffff33;stroke:#ffff33;" x="226.425437" xlink:href="#m1859c35c3c" y="192.826295"/>
     <use style="fill:#ffff33;stroke:#ffff33;" x="204.032216" xlink:href="#m1859c35c3c" y="194.02598"/>
     <use style="fill:#ffff33;stroke:#ffff33;" x="160.924602" xlink:href="#m1859c35c3c" y="192.665201"/>
    </g>
   </g>
   <g id="patch_3">
    <path d="M 50.003125 307.872 
L 50.003125 41.76 
" style="fill:none;stroke:#000000;stroke-linecap:square;stroke-linejoin:miter;stroke-width:0.8;"/>
   </g>
   <g id="patch_4">
    <path d="M 407.123125 307.872 
L 407.123125 41.76 
" style="fill:none;stroke:#000000;stroke-linecap:square;stroke-linejoin:miter;stroke-width:0.8;"/>
   </g>
   <g id="patch_5">
    <path d="M 50.003125 307.872 
L 407.123125 307.872 
" style="fill:none;stroke:#000000;stroke-linecap:square;stroke-linejoin:miter;stroke-width:0.8;"/>
   </g>
   <g id="patch_6">
    <path d="M 50.003125 41.76 
L 407.123125 41.76 
" style="fill:none;stroke:#000000;stroke-linecap:square;stroke-linejoin:miter;stroke-width:0.8;"/>
   </g>
   <g id="legend_1">
    <g id="patch_7">
     <path d="M 419.973876 119.984709 
L 558.547574 119.984709 
Q 559.705574 119.984709 559.705574 118.826709 
L 559.705574 42.918 
Q 559.705574 41.76 558.547574 41.76 
L 419.973876 41.76 
Q 418.815876 41.76 418.815876 42.918 
L 418.815876 118.826709 
Q 418.815876 119.984709 419.973876 119.984709 
z
" style="fill:#ffffff;opacity:0.8;stroke:#cccccc;stroke-linejoin:miter;"/>
    </g>
    <g id="line2d_22"/>
    <g id="line2d_23">
     <g>
      <use style="fill:#f781bf;stroke:#f781bf;" x="426.921876" xlink:href="#m254b5abb44" y="46.448995"/>
     </g>
    </g>
    <g id="text_15">
     <!-- TLS-DHE-PSK - m=0.998,var=0.000 -->
     <defs>
      <path d="M -0.296875 72.90625 
L 61.375 72.90625 
L 61.375 64.59375 
L 35.5 64.59375 
L 35.5 0 
L 25.59375 0 
L 25.59375 64.59375 
L -0.296875 64.59375 
z
" id="DejaVuSans-54"/>
      <path d="M 53.515625 70.515625 
L 53.515625 60.890625 
Q 47.90625 63.578125 42.921875 64.890625 
Q 37.9375 66.21875 33.296875 66.21875 
Q 25.25 66.21875 20.875 63.09375 
Q 16.5 59.96875 16.5 54.203125 
Q 16.5 49.359375 19.40625 46.890625 
Q 22.3125 44.4375 30.421875 42.921875 
L 36.375 41.703125 
Q 47.40625 39.59375 52.65625 34.296875 
Q 57.90625 29 57.90625 20.125 
Q 57.90625 9.515625 50.796875 4.046875 
Q 43.703125 -1.421875 29.984375 -1.421875 
Q 24.8125 -1.421875 18.96875 -0.25 
Q 13.140625 0.921875 6.890625 3.21875 
L 6.890625 13.375 
Q 12.890625 10.015625 18.65625 8.296875 
Q 24.421875 6.59375 29.984375 6.59375 
Q 38.421875 6.59375 43.015625 9.90625 
Q 47.609375 13.234375 47.609375 19.390625 
Q 47.609375 24.75 44.3125 27.78125 
Q 41.015625 30.8125 33.5 32.328125 
L 27.484375 33.5 
Q 16.453125 35.6875 11.515625 40.375 
Q 6.59375 45.0625 6.59375 53.421875 
Q 6.59375 63.09375 13.40625 68.65625 
Q 20.21875 74.21875 32.171875 74.21875 
Q 37.3125 74.21875 42.625 73.28125 
Q 47.953125 72.359375 53.515625 70.515625 
" id="DejaVuSans-53"/>
      <path d="M 19.671875 64.796875 
L 19.671875 8.109375 
L 31.59375 8.109375 
Q 46.6875 8.109375 53.6875 14.9375 
Q 60.6875 21.78125 60.6875 36.53125 
Q 60.6875 51.171875 53.6875 57.984375 
Q 46.6875 64.796875 31.59375 64.796875 
z
M 9.8125 72.90625 
L 30.078125 72.90625 
Q 51.265625 72.90625 61.171875 64.09375 
Q 71.09375 55.28125 71.09375 36.53125 
Q 71.09375 17.671875 61.125 8.828125 
Q 51.171875 0 30.078125 0 
L 9.8125 0 
z
" id="DejaVuSans-44"/>
      <path d="M 9.8125 72.90625 
L 55.90625 72.90625 
L 55.90625 64.59375 
L 19.671875 64.59375 
L 19.671875 43.015625 
L 54.390625 43.015625 
L 54.390625 34.71875 
L 19.671875 34.71875 
L 19.671875 8.296875 
L 56.78125 8.296875 
L 56.78125 0 
L 9.8125 0 
z
" id="DejaVuSans-45"/>
      <path d="M 19.671875 64.796875 
L 19.671875 37.40625 
L 32.078125 37.40625 
Q 38.96875 37.40625 42.71875 40.96875 
Q 46.484375 44.53125 46.484375 51.125 
Q 46.484375 57.671875 42.71875 61.234375 
Q 38.96875 64.796875 32.078125 64.796875 
z
M 9.8125 72.90625 
L 32.078125 72.90625 
Q 44.34375 72.90625 50.609375 67.359375 
Q 56.890625 61.8125 56.890625 51.125 
Q 56.890625 40.328125 50.609375 34.8125 
Q 44.34375 29.296875 32.078125 29.296875 
L 19.671875 29.296875 
L 19.671875 0 
L 9.8125 0 
z
" id="DejaVuSans-50"/>
      <path d="M 9.8125 72.90625 
L 19.671875 72.90625 
L 19.671875 42.09375 
L 52.390625 72.90625 
L 65.09375 72.90625 
L 28.90625 38.921875 
L 67.671875 0 
L 54.6875 0 
L 19.671875 35.109375 
L 19.671875 0 
L 9.8125 0 
z
" id="DejaVuSans-4b"/>
      <path d="M 52 44.1875 
Q 55.375 50.25 60.0625 53.125 
Q 64.75 56 71.09375 56 
Q 79.640625 56 84.28125 50.015625 
Q 88.921875 44.046875 88.921875 33.015625 
L 88.921875 0 
L 79.890625 0 
L 79.890625 32.71875 
Q 79.890625 40.578125 77.09375 44.375 
Q 74.3125 48.1875 68.609375 48.1875 
Q 61.625 48.1875 57.5625 43.546875 
Q 53.515625 38.921875 53.515625 30.90625 
L 53.515625 0 
L 44.484375 0 
L 44.484375 32.71875 
Q 44.484375 40.625 41.703125 44.40625 
Q 38.921875 48.1875 33.109375 48.1875 
Q 26.21875 48.1875 22.15625 43.53125 
Q 18.109375 38.875 18.109375 30.90625 
L 18.109375 0 
L 9.078125 0 
L 9.078125 54.6875 
L 18.109375 54.6875 
L 18.109375 46.1875 
Q 21.1875 51.21875 25.484375 53.609375 
Q 29.78125 56 35.6875 56 
Q 41.65625 56 45.828125 52.96875 
Q 50 49.953125 52 44.1875 
" id="DejaVuSans-6d"/>
      <path d="M 10.59375 45.40625 
L 73.1875 45.40625 
L 73.1875 37.203125 
L 10.59375 37.203125 
z
M 10.59375 25.484375 
L 73.1875 25.484375 
L 73.1875 17.1875 
L 10.59375 17.1875 
z
" id="DejaVuSans-3d"/>
      <path d="M 11.71875 12.40625 
L 22.015625 12.40625 
L 22.015625 4 
L 14.015625 -11.625 
L 7.71875 -11.625 
L 11.71875 4 
z
" id="DejaVuSans-2c"/>
      <path d="M 2.984375 54.6875 
L 12.5 54.6875 
L 29.59375 8.796875 
L 46.6875 54.6875 
L 56.203125 54.6875 
L 35.6875 0 
L 23.484375 0 
z
" id="DejaVuSans-76"/>
      <path d="M 41.109375 46.296875 
Q 39.59375 47.171875 37.8125 47.578125 
Q 36.03125 48 33.890625 48 
Q 26.265625 48 22.1875 43.046875 
Q 18.109375 38.09375 18.109375 28.8125 
L 18.109375 0 
L 9.078125 0 
L 9.078125 54.6875 
L 18.109375 54.6875 
L 18.109375 46.1875 
Q 20.953125 51.171875 25.484375 53.578125 
Q 30.03125 56 36.53125 56 
Q 37.453125 56 38.578125 55.875 
Q 39.703125 55.765625 41.0625 55.515625 
z
" id="DejaVuSans-72"/>
     </defs>
     <g transform="translate(437.343876 48.475495)scale(0.0579 -0.0579)">
      <use xlink:href="#DejaVuSans-54"/>
      <use x="61.083984" xlink:href="#DejaVuSans-4c"/>
      <use x="116.796875" xlink:href="#DejaVuSans-53"/>
      <use x="180.273438" xlink:href="#DejaVuSans-2d"/>
      <use x="216.357422" xlink:href="#DejaVuSans-44"/>
      <use x="293.359375" xlink:href="#DejaVuSans-48"/>
      <use x="368.554688" xlink:href="#DejaVuSans-45"/>
      <use x="431.738281" xlink:href="#DejaVuSans-2d"/>
      <use x="467.822266" xlink:href="#DejaVuSans-50"/>
      <use x="528.125" xlink:href="#DejaVuSans-53"/>
      <use x="591.601562" xlink:href="#DejaVuSans-4b"/>
      <use x="657.177734" xlink:href="#DejaVuSans-20"/>
      <use x="688.964844" xlink:href="#DejaVuSans-2d"/>
      <use x="725.048828" xlink:href="#DejaVuSans-20"/>
      <use x="756.835938" xlink:href="#DejaVuSans-6d"/>
      <use x="854.248047" xlink:href="#DejaVuSans-3d"/>
      <use x="938.037109" xlink:href="#DejaVuSans-30"/>
      <use x="1001.660156" xlink:href="#DejaVuSans-2e"/>
      <use x="1033.447266" xlink:href="#DejaVuSans-39"/>
      <use x="1097.070312" xlink:href="#DejaVuSans-39"/>
      <use x="1160.693359" xlink:href="#DejaVuSans-38"/>
      <use x="1224.316406" xlink:href="#DejaVuSans-2c"/>
      <use x="1256.103516" xlink:href="#DejaVuSans-76"/>
      <use x="1315.283203" xlink:href="#DejaVuSans-61"/>
      <use x="1376.5625" xlink:href="#DejaVuSans-72"/>
      <use x="1417.675781" xlink:href="#DejaVuSans-3d"/>
      <use x="1501.464844" xlink:href="#DejaVuSans-30"/>
      <use x="1565.087891" xlink:href="#DejaVuSans-2e"/>
      <use x="1596.875" xlink:href="#DejaVuSans-30"/>
      <use x="1660.498047" xlink:href="#DejaVuSans-30"/>
      <use x="1724.121094" xlink:href="#DejaVuSans-30"/>
     </g>
    </g>
    <g id="line2d_24"/>
    <g id="line2d_25">
     <g>
      <use style="fill:#ff7f00;stroke:#ff7f00;" x="426.921876" xlink:href="#m4f269bfdc9" y="54.94763"/>
     </g>
    </g>
    <g id="text_16">
     <!-- TLS-DHE-RSA - m=0.998,var=0.000 -->
     <defs>
      <path d="M 44.390625 34.1875 
Q 47.5625 33.109375 50.5625 29.59375 
Q 53.5625 26.078125 56.59375 19.921875 
L 66.609375 0 
L 56 0 
L 46.6875 18.703125 
Q 43.0625 26.03125 39.671875 28.421875 
Q 36.28125 30.8125 30.421875 30.8125 
L 19.671875 30.8125 
L 19.671875 0 
L 9.8125 0 
L 9.8125 72.90625 
L 32.078125 72.90625 
Q 44.578125 72.90625 50.734375 67.671875 
Q 56.890625 62.453125 56.890625 51.90625 
Q 56.890625 45.015625 53.6875 40.46875 
Q 50.484375 35.9375 44.390625 34.1875 
M 19.671875 64.796875 
L 19.671875 38.921875 
L 32.078125 38.921875 
Q 39.203125 38.921875 42.84375 42.21875 
Q 46.484375 45.515625 46.484375 51.90625 
Q 46.484375 58.296875 42.84375 61.546875 
Q 39.203125 64.796875 32.078125 64.796875 
z
" id="DejaVuSans-52"/>
      <path d="M 34.1875 63.1875 
L 20.796875 26.90625 
L 47.609375 26.90625 
z
M 28.609375 72.90625 
L 39.796875 72.90625 
L 67.578125 0 
L 57.328125 0 
L 50.6875 18.703125 
L 17.828125 18.703125 
L 11.1875 0 
L 0.78125 0 
z
" id="DejaVuSans-41"/>
     </defs>
     <g transform="translate(437.343876 56.97413)scale(0.0579 -0.0579)">
      <use xlink:href="#DejaVuSans-54"/>
      <use x="61.083984" xlink:href="#DejaVuSans-4c"/>
      <use x="116.796875" xlink:href="#DejaVuSans-53"/>
      <use x="180.273438" xlink:href="#DejaVuSans-2d"/>
      <use x="216.357422" xlink:href="#DejaVuSans-44"/>
      <use x="293.359375" xlink:href="#DejaVuSans-48"/>
      <use x="368.554688" xlink:href="#DejaVuSans-45"/>
      <use x="431.738281" xlink:href="#DejaVuSans-2d"/>
      <use x="467.822266" xlink:href="#DejaVuSans-52"/>
      <use x="537.304688" xlink:href="#DejaVuSans-53"/>
      <use x="600.796875" xlink:href="#DejaVuSans-41"/>
      <use x="669.205078" xlink:href="#DejaVuSans-20"/>
      <use x="700.992188" xlink:href="#DejaVuSans-2d"/>
      <use x="737.076172" xlink:href="#DejaVuSans-20"/>
      <use x="768.863281" xlink:href="#DejaVuSans-6d"/>
      <use x="866.275391" xlink:href="#DejaVuSans-3d"/>
      <use x="950.064453" xlink:href="#DejaVuSans-30"/>
      <use x="1013.6875" xlink:href="#DejaVuSans-2e"/>
      <use x="1045.474609" xlink:href="#DejaVuSans-39"/>
      <use x="1109.097656" xlink:href="#DejaVuSans-39"/>
      <use x="1172.720703" xlink:href="#DejaVuSans-38"/>
      <use x="1236.34375" xlink:href="#DejaVuSans-2c"/>
      <use x="1268.130859" xlink:href="#DejaVuSans-76"/>
      <use x="1327.310547" xlink:href="#DejaVuSans-61"/>
      <use x="1388.589844" xlink:href="#DejaVuSans-72"/>
      <use x="1429.703125" xlink:href="#DejaVuSans-3d"/>
      <use x="1513.492188" xlink:href="#DejaVuSans-30"/>
      <use x="1577.115234" xlink:href="#DejaVuSans-2e"/>
      <use x="1608.902344" xlink:href="#DejaVuSans-30"/>
      <use x="1672.525391" xlink:href="#DejaVuSans-30"/>
      <use x="1736.148438" xlink:href="#DejaVuSans-30"/>
     </g>
    </g>
    <g id="line2d_26"/>
    <g id="line2d_27">
     <g>
      <use style="fill:#e41a1c;stroke:#e41a1c;" x="426.921876" xlink:href="#m1024b34200" y="63.446264"/>
     </g>
    </g>
    <g id="text_17">
     <!-- TLS-ECDH- - m=0.976,var=0.001 -->
     <defs>
      <path d="M 64.40625 67.28125 
L 64.40625 56.890625 
Q 59.421875 61.53125 53.78125 63.8125 
Q 48.140625 66.109375 41.796875 66.109375 
Q 29.296875 66.109375 22.65625 58.46875 
Q 16.015625 50.828125 16.015625 36.375 
Q 16.015625 21.96875 22.65625 14.328125 
Q 29.296875 6.6875 41.796875 6.6875 
Q 48.140625 6.6875 53.78125 8.984375 
Q 59.421875 11.28125 64.40625 15.921875 
L 64.40625 5.609375 
Q 59.234375 2.09375 53.4375 0.328125 
Q 47.65625 -1.421875 41.21875 -1.421875 
Q 24.65625 -1.421875 15.125 8.703125 
Q 5.609375 18.84375 5.609375 36.375 
Q 5.609375 53.953125 15.125 64.078125 
Q 24.65625 74.21875 41.21875 74.21875 
Q 47.75 74.21875 53.53125 72.484375 
Q 59.328125 70.75 64.40625 67.28125 
" id="DejaVuSans-43"/>
     </defs>
     <g transform="translate(437.343876 65.472764)scale(0.0579 -0.0579)">
      <use xlink:href="#DejaVuSans-54"/>
      <use x="61.083984" xlink:href="#DejaVuSans-4c"/>
      <use x="116.796875" xlink:href="#DejaVuSans-53"/>
      <use x="180.273438" xlink:href="#DejaVuSans-2d"/>
      <use x="216.357422" xlink:href="#DejaVuSans-45"/>
      <use x="279.541016" xlink:href="#DejaVuSans-43"/>
      <use x="349.365234" xlink:href="#DejaVuSans-44"/>
      <use x="426.367188" xlink:href="#DejaVuSans-48"/>
      <use x="501.5625" xlink:href="#DejaVuSans-2d"/>
      <use x="537.646484" xlink:href="#DejaVuSans-20"/>
      <use x="569.433594" xlink:href="#DejaVuSans-2d"/>
      <use x="605.517578" xlink:href="#DejaVuSans-20"/>
      <use x="637.304688" xlink:href="#DejaVuSans-6d"/>
      <use x="734.716797" xlink:href="#DejaVuSans-3d"/>
      <use x="818.505859" xlink:href="#DejaVuSans-30"/>
      <use x="882.128906" xlink:href="#DejaVuSans-2e"/>
      <use x="913.916016" xlink:href="#DejaVuSans-39"/>
      <use x="977.539062" xlink:href="#DejaVuSans-37"/>
      <use x="1041.162109" xlink:href="#DejaVuSans-36"/>
      <use x="1104.785156" xlink:href="#DejaVuSans-2c"/>
      <use x="1136.572266" xlink:href="#DejaVuSans-76"/>
      <use x="1195.751953" xlink:href="#DejaVuSans-61"/>
      <use x="1257.03125" xlink:href="#DejaVuSans-72"/>
      <use x="1298.144531" xlink:href="#DejaVuSans-3d"/>
      <use x="1381.933594" xlink:href="#DejaVuSans-30"/>
      <use x="1445.556641" xlink:href="#DejaVuSans-2e"/>
      <use x="1477.34375" xlink:href="#DejaVuSans-30"/>
      <use x="1540.966797" xlink:href="#DejaVuSans-30"/>
      <use x="1604.589844" xlink:href="#DejaVuSans-31"/>
     </g>
    </g>
    <g id="line2d_28"/>
    <g id="line2d_29">
     <g>
      <use style="fill:#377eb8;stroke:#377eb8;" x="426.921876" xlink:href="#md608206d69" y="71.944898"/>
     </g>
    </g>
    <g id="text_18">
     <!-- TLS-ECDHE-ECDSA - m=0.983,var=0.001 -->
     <g transform="translate(437.343876 73.971398)scale(0.0579 -0.0579)">
      <use xlink:href="#DejaVuSans-54"/>
      <use x="61.083984" xlink:href="#DejaVuSans-4c"/>
      <use x="116.796875" xlink:href="#DejaVuSans-53"/>
      <use x="180.273438" xlink:href="#DejaVuSans-2d"/>
      <use x="216.357422" xlink:href="#DejaVuSans-45"/>
      <use x="279.541016" xlink:href="#DejaVuSans-43"/>
      <use x="349.365234" xlink:href="#DejaVuSans-44"/>
      <use x="426.367188" xlink:href="#DejaVuSans-48"/>
      <use x="501.5625" xlink:href="#DejaVuSans-45"/>
      <use x="564.746094" xlink:href="#DejaVuSans-2d"/>
      <use x="600.830078" xlink:href="#DejaVuSans-45"/>
      <use x="664.013672" xlink:href="#DejaVuSans-43"/>
      <use x="733.837891" xlink:href="#DejaVuSans-44"/>
      <use x="810.839844" xlink:href="#DejaVuSans-53"/>
      <use x="874.332031" xlink:href="#DejaVuSans-41"/>
      <use x="942.740234" xlink:href="#DejaVuSans-20"/>
      <use x="974.527344" xlink:href="#DejaVuSans-2d"/>
      <use x="1010.611328" xlink:href="#DejaVuSans-20"/>
      <use x="1042.398438" xlink:href="#DejaVuSans-6d"/>
      <use x="1139.810547" xlink:href="#DejaVuSans-3d"/>
      <use x="1223.599609" xlink:href="#DejaVuSans-30"/>
      <use x="1287.222656" xlink:href="#DejaVuSans-2e"/>
      <use x="1319.009766" xlink:href="#DejaVuSans-39"/>
      <use x="1382.632812" xlink:href="#DejaVuSans-38"/>
      <use x="1446.255859" xlink:href="#DejaVuSans-33"/>
      <use x="1509.878906" xlink:href="#DejaVuSans-2c"/>
      <use x="1541.666016" xlink:href="#DejaVuSans-76"/>
      <use x="1600.845703" xlink:href="#DejaVuSans-61"/>
      <use x="1662.125" xlink:href="#DejaVuSans-72"/>
      <use x="1703.238281" xlink:href="#DejaVuSans-3d"/>
      <use x="1787.027344" xlink:href="#DejaVuSans-30"/>
      <use x="1850.650391" xlink:href="#DejaVuSans-2e"/>
      <use x="1882.4375" xlink:href="#DejaVuSans-30"/>
      <use x="1946.060547" xlink:href="#DejaVuSans-30"/>
      <use x="2009.683594" xlink:href="#DejaVuSans-31"/>
     </g>
    </g>
    <g id="line2d_30"/>
    <g id="line2d_31">
     <g>
      <use style="fill:#999999;stroke:#999999;" x="426.921876" xlink:href="#m64b20f3b83" y="80.443533"/>
     </g>
    </g>
    <g id="text_19">
     <!-- TLS-ECDHE-PSK - m=0.985,var=0.001 -->
     <g transform="translate(437.343876 82.470033)scale(0.0579 -0.0579)">
      <use xlink:href="#DejaVuSans-54"/>
      <use x="61.083984" xlink:href="#DejaVuSans-4c"/>
      <use x="116.796875" xlink:href="#DejaVuSans-53"/>
      <use x="180.273438" xlink:href="#DejaVuSans-2d"/>
      <use x="216.357422" xlink:href="#DejaVuSans-45"/>
      <use x="279.541016" xlink:href="#DejaVuSans-43"/>
      <use x="349.365234" xlink:href="#DejaVuSans-44"/>
      <use x="426.367188" xlink:href="#DejaVuSans-48"/>
      <use x="501.5625" xlink:href="#DejaVuSans-45"/>
      <use x="564.746094" xlink:href="#DejaVuSans-2d"/>
      <use x="600.830078" xlink:href="#DejaVuSans-50"/>
      <use x="661.132812" xlink:href="#DejaVuSans-53"/>
      <use x="724.609375" xlink:href="#DejaVuSans-4b"/>
      <use x="790.185547" xlink:href="#DejaVuSans-20"/>
      <use x="821.972656" xlink:href="#DejaVuSans-2d"/>
      <use x="858.056641" xlink:href="#DejaVuSans-20"/>
      <use x="889.84375" xlink:href="#DejaVuSans-6d"/>
      <use x="987.255859" xlink:href="#DejaVuSans-3d"/>
      <use x="1071.044922" xlink:href="#DejaVuSans-30"/>
      <use x="1134.667969" xlink:href="#DejaVuSans-2e"/>
      <use x="1166.455078" xlink:href="#DejaVuSans-39"/>
      <use x="1230.078125" xlink:href="#DejaVuSans-38"/>
      <use x="1293.701172" xlink:href="#DejaVuSans-35"/>
      <use x="1357.324219" xlink:href="#DejaVuSans-2c"/>
      <use x="1389.111328" xlink:href="#DejaVuSans-76"/>
      <use x="1448.291016" xlink:href="#DejaVuSans-61"/>
      <use x="1509.570312" xlink:href="#DejaVuSans-72"/>
      <use x="1550.683594" xlink:href="#DejaVuSans-3d"/>
      <use x="1634.472656" xlink:href="#DejaVuSans-30"/>
      <use x="1698.095703" xlink:href="#DejaVuSans-2e"/>
      <use x="1729.882812" xlink:href="#DejaVuSans-30"/>
      <use x="1793.505859" xlink:href="#DejaVuSans-30"/>
      <use x="1857.128906" xlink:href="#DejaVuSans-31"/>
     </g>
    </g>
    <g id="line2d_32"/>
    <g id="line2d_33">
     <g>
      <use style="fill:#4daf4a;stroke:#4daf4a;" x="426.921876" xlink:href="#m5b22aafeac" y="88.942167"/>
     </g>
    </g>
    <g id="text_20">
     <!-- TLS-ECDHE-RSA - m=0.985,var=0.001 -->
     <g transform="translate(437.343876 90.968667)scale(0.0579 -0.0579)">
      <use xlink:href="#DejaVuSans-54"/>
      <use x="61.083984" xlink:href="#DejaVuSans-4c"/>
      <use x="116.796875" xlink:href="#DejaVuSans-53"/>
      <use x="180.273438" xlink:href="#DejaVuSans-2d"/>
      <use x="216.357422" xlink:href="#DejaVuSans-45"/>
      <use x="279.541016" xlink:href="#DejaVuSans-43"/>
      <use x="349.365234" xlink:href="#DejaVuSans-44"/>
      <use x="426.367188" xlink:href="#DejaVuSans-48"/>
      <use x="501.5625" xlink:href="#DejaVuSans-45"/>
      <use x="564.746094" xlink:href="#DejaVuSans-2d"/>
      <use x="600.830078" xlink:href="#DejaVuSans-52"/>
      <use x="670.3125" xlink:href="#DejaVuSans-53"/>
      <use x="733.804688" xlink:href="#DejaVuSans-41"/>
      <use x="802.212891" xlink:href="#DejaVuSans-20"/>
      <use x="834" xlink:href="#DejaVuSans-2d"/>
      <use x="870.083984" xlink:href="#DejaVuSans-20"/>
      <use x="901.871094" xlink:href="#DejaVuSans-6d"/>
      <use x="999.283203" xlink:href="#DejaVuSans-3d"/>
      <use x="1083.072266" xlink:href="#DejaVuSans-30"/>
      <use x="1146.695312" xlink:href="#DejaVuSans-2e"/>
      <use x="1178.482422" xlink:href="#DejaVuSans-39"/>
      <use x="1242.105469" xlink:href="#DejaVuSans-38"/>
      <use x="1305.728516" xlink:href="#DejaVuSans-35"/>
      <use x="1369.351562" xlink:href="#DejaVuSans-2c"/>
      <use x="1401.138672" xlink:href="#DejaVuSans-76"/>
      <use x="1460.318359" xlink:href="#DejaVuSans-61"/>
      <use x="1521.597656" xlink:href="#DejaVuSans-72"/>
      <use x="1562.710938" xlink:href="#DejaVuSans-3d"/>
      <use x="1646.5" xlink:href="#DejaVuSans-30"/>
      <use x="1710.123047" xlink:href="#DejaVuSans-2e"/>
      <use x="1741.910156" xlink:href="#DejaVuSans-30"/>
      <use x="1805.533203" xlink:href="#DejaVuSans-30"/>
      <use x="1869.15625" xlink:href="#DejaVuSans-31"/>
     </g>
    </g>
    <g id="line2d_34"/>
    <g id="line2d_35">
     <g>
      <use style="fill:#984ea3;stroke:#984ea3;" x="426.921876" xlink:href="#m4c85acd91c" y="97.440802"/>
     </g>
    </g>
    <g id="text_21">
     <!-- TLS-PSK - m=0.638,var=0.144 -->
     <defs>
      <path d="M 37.796875 64.3125 
L 12.890625 25.390625 
L 37.796875 25.390625 
z
M 35.203125 72.90625 
L 47.609375 72.90625 
L 47.609375 25.390625 
L 58.015625 25.390625 
L 58.015625 17.1875 
L 47.609375 17.1875 
L 47.609375 0 
L 37.796875 0 
L 37.796875 17.1875 
L 4.890625 17.1875 
L 4.890625 26.703125 
z
" id="DejaVuSans-34"/>
     </defs>
     <g transform="translate(437.343876 99.467302)scale(0.0579 -0.0579)">
      <use xlink:href="#DejaVuSans-54"/>
      <use x="61.083984" xlink:href="#DejaVuSans-4c"/>
      <use x="116.796875" xlink:href="#DejaVuSans-53"/>
      <use x="180.273438" xlink:href="#DejaVuSans-2d"/>
      <use x="216.357422" xlink:href="#DejaVuSans-50"/>
      <use x="276.660156" xlink:href="#DejaVuSans-53"/>
      <use x="340.136719" xlink:href="#DejaVuSans-4b"/>
      <use x="405.712891" xlink:href="#DejaVuSans-20"/>
      <use x="437.5" xlink:href="#DejaVuSans-2d"/>
      <use x="473.583984" xlink:href="#DejaVuSans-20"/>
      <use x="505.371094" xlink:href="#DejaVuSans-6d"/>
      <use x="602.783203" xlink:href="#DejaVuSans-3d"/>
      <use x="686.572266" xlink:href="#DejaVuSans-30"/>
      <use x="750.195312" xlink:href="#DejaVuSans-2e"/>
      <use x="781.982422" xlink:href="#DejaVuSans-36"/>
      <use x="845.605469" xlink:href="#DejaVuSans-33"/>
      <use x="909.228516" xlink:href="#DejaVuSans-38"/>
      <use x="972.851562" xlink:href="#DejaVuSans-2c"/>
      <use x="1004.638672" xlink:href="#DejaVuSans-76"/>
      <use x="1063.818359" xlink:href="#DejaVuSans-61"/>
      <use x="1125.097656" xlink:href="#DejaVuSans-72"/>
      <use x="1166.210938" xlink:href="#DejaVuSans-3d"/>
      <use x="1250" xlink:href="#DejaVuSans-30"/>
      <use x="1313.623047" xlink:href="#DejaVuSans-2e"/>
      <use x="1345.410156" xlink:href="#DejaVuSans-31"/>
      <use x="1409.033203" xlink:href="#DejaVuSans-34"/>
      <use x="1472.65625" xlink:href="#DejaVuSans-34"/>
     </g>
    </g>
    <g id="line2d_36"/>
    <g id="line2d_37">
     <g>
      <use style="fill:#a65628;stroke:#a65628;" x="426.921876" xlink:href="#m9b53a79bbd" y="105.939436"/>
     </g>
    </g>
    <g id="text_22">
     <!-- TLS-RSA-PSK - m=0.768,var=0.022 -->
     <defs>
      <path d="M 19.1875 8.296875 
L 53.609375 8.296875 
L 53.609375 0 
L 7.328125 0 
L 7.328125 8.296875 
Q 12.9375 14.109375 22.625 23.890625 
Q 32.328125 33.6875 34.8125 36.53125 
Q 39.546875 41.84375 41.421875 45.53125 
Q 43.3125 49.21875 43.3125 52.78125 
Q 43.3125 58.59375 39.234375 62.25 
Q 35.15625 65.921875 28.609375 65.921875 
Q 23.96875 65.921875 18.8125 64.3125 
Q 13.671875 62.703125 7.8125 59.421875 
L 7.8125 69.390625 
Q 13.765625 71.78125 18.9375 73 
Q 24.125 74.21875 28.421875 74.21875 
Q 39.75 74.21875 46.484375 68.546875 
Q 53.21875 62.890625 53.21875 53.421875 
Q 53.21875 48.921875 51.53125 44.890625 
Q 49.859375 40.875 45.40625 35.40625 
Q 44.1875 33.984375 37.640625 27.21875 
Q 31.109375 20.453125 19.1875 8.296875 
" id="DejaVuSans-32"/>
     </defs>
     <g transform="translate(437.343876 107.965936)scale(0.0579 -0.0579)">
      <use xlink:href="#DejaVuSans-54"/>
      <use x="61.083984" xlink:href="#DejaVuSans-4c"/>
      <use x="116.796875" xlink:href="#DejaVuSans-53"/>
      <use x="180.273438" xlink:href="#DejaVuSans-2d"/>
      <use x="216.357422" xlink:href="#DejaVuSans-52"/>
      <use x="285.839844" xlink:href="#DejaVuSans-53"/>
      <use x="349.332031" xlink:href="#DejaVuSans-41"/>
      <use x="417.708984" xlink:href="#DejaVuSans-2d"/>
      <use x="453.792969" xlink:href="#DejaVuSans-50"/>
      <use x="514.095703" xlink:href="#DejaVuSans-53"/>
      <use x="577.572266" xlink:href="#DejaVuSans-4b"/>
      <use x="643.148438" xlink:href="#DejaVuSans-20"/>
      <use x="674.935547" xlink:href="#DejaVuSans-2d"/>
      <use x="711.019531" xlink:href="#DejaVuSans-20"/>
      <use x="742.806641" xlink:href="#DejaVuSans-6d"/>
      <use x="840.21875" xlink:href="#DejaVuSans-3d"/>
      <use x="924.007812" xlink:href="#DejaVuSans-30"/>
      <use x="987.630859" xlink:href="#DejaVuSans-2e"/>
      <use x="1019.417969" xlink:href="#DejaVuSans-37"/>
      <use x="1083.041016" xlink:href="#DejaVuSans-36"/>
      <use x="1146.664062" xlink:href="#DejaVuSans-38"/>
      <use x="1210.287109" xlink:href="#DejaVuSans-2c"/>
      <use x="1242.074219" xlink:href="#DejaVuSans-76"/>
      <use x="1301.253906" xlink:href="#DejaVuSans-61"/>
      <use x="1362.533203" xlink:href="#DejaVuSans-72"/>
      <use x="1403.646484" xlink:href="#DejaVuSans-3d"/>
      <use x="1487.435547" xlink:href="#DejaVuSans-30"/>
      <use x="1551.058594" xlink:href="#DejaVuSans-2e"/>
      <use x="1582.845703" xlink:href="#DejaVuSans-30"/>
      <use x="1646.46875" xlink:href="#DejaVuSans-32"/>
      <use x="1710.091797" xlink:href="#DejaVuSans-32"/>
     </g>
    </g>
    <g id="line2d_38"/>
    <g id="line2d_39">
     <g>
      <use style="fill:#ffff33;stroke:#ffff33;" x="426.921876" xlink:href="#m1859c35c3c" y="114.43807"/>
     </g>
    </g>
    <g id="text_23">
     <!-- TLS-RSA-WITH - m=0.760,var=0.014 -->
     <defs>
      <path d="M 3.328125 72.90625 
L 13.28125 72.90625 
L 28.609375 11.28125 
L 43.890625 72.90625 
L 54.984375 72.90625 
L 70.3125 11.28125 
L 85.59375 72.90625 
L 95.609375 72.90625 
L 77.296875 0 
L 64.890625 0 
L 49.515625 63.28125 
L 33.984375 0 
L 21.578125 0 
z
" id="DejaVuSans-57"/>
     </defs>
     <g transform="translate(437.343876 116.46457)scale(0.0579 -0.0579)">
      <use xlink:href="#DejaVuSans-54"/>
      <use x="61.083984" xlink:href="#DejaVuSans-4c"/>
      <use x="116.796875" xlink:href="#DejaVuSans-53"/>
      <use x="180.273438" xlink:href="#DejaVuSans-2d"/>
      <use x="216.357422" xlink:href="#DejaVuSans-52"/>
      <use x="285.839844" xlink:href="#DejaVuSans-53"/>
      <use x="349.332031" xlink:href="#DejaVuSans-41"/>
      <use x="417.708984" xlink:href="#DejaVuSans-2d"/>
      <use x="453.730469" xlink:href="#DejaVuSans-57"/>
      <use x="552.607422" xlink:href="#DejaVuSans-49"/>
      <use x="582.099609" xlink:href="#DejaVuSans-54"/>
      <use x="643.183594" xlink:href="#DejaVuSans-48"/>
      <use x="718.378906" xlink:href="#DejaVuSans-20"/>
      <use x="750.166016" xlink:href="#DejaVuSans-2d"/>
      <use x="786.25" xlink:href="#DejaVuSans-20"/>
      <use x="818.037109" xlink:href="#DejaVuSans-6d"/>
      <use x="915.449219" xlink:href="#DejaVuSans-3d"/>
      <use x="999.238281" xlink:href="#DejaVuSans-30"/>
      <use x="1062.861328" xlink:href="#DejaVuSans-2e"/>
      <use x="1094.648438" xlink:href="#DejaVuSans-37"/>
      <use x="1158.271484" xlink:href="#DejaVuSans-36"/>
      <use x="1221.894531" xlink:href="#DejaVuSans-30"/>
      <use x="1285.517578" xlink:href="#DejaVuSans-2c"/>
      <use x="1317.304688" xlink:href="#DejaVuSans-76"/>
      <use x="1376.484375" xlink:href="#DejaVuSans-61"/>
      <use x="1437.763672" xlink:href="#DejaVuSans-72"/>
      <use x="1478.876953" xlink:href="#DejaVuSans-3d"/>
      <use x="1562.666016" xlink:href="#DejaVuSans-30"/>
      <use x="1626.289062" xlink:href="#DejaVuSans-2e"/>
      <use x="1658.076172" xlink:href="#DejaVuSans-30"/>
      <use x="1721.699219" xlink:href="#DejaVuSans-31"/>
      <use x="1785.322266" xlink:href="#DejaVuSans-34"/>
     </g>
    </g>
   </g>
  </g>
  <g id="text_24">
   <!-- Relation patched vs. unpatched (PC_AS_SERVER, write_latencies.csv) -->
   <defs>
    <path d="M 9.421875 75.984375 
L 18.40625 75.984375 
L 18.40625 0 
L 9.421875 0 
z
" id="DejaVuSans-6c"/>
    <path d="M 30.609375 48.390625 
Q 23.390625 48.390625 19.1875 42.75 
Q 14.984375 37.109375 14.984375 27.296875 
Q 14.984375 17.484375 19.15625 11.84375 
Q 23.34375 6.203125 30.609375 6.203125 
Q 37.796875 6.203125 41.984375 11.859375 
Q 46.1875 17.53125 46.1875 27.296875 
Q 46.1875 37.015625 41.984375 42.703125 
Q 37.796875 48.390625 30.609375 48.390625 
M 30.609375 56 
Q 42.328125 56 49.015625 48.375 
Q 55.71875 40.765625 55.71875 27.296875 
Q 55.71875 13.875 49.015625 6.21875 
Q 42.328125 -1.421875 30.609375 -1.421875 
Q 18.84375 -1.421875 12.171875 6.21875 
Q 5.515625 13.875 5.515625 27.296875 
Q 5.515625 40.765625 12.171875 48.375 
Q 18.84375 56 30.609375 56 
" id="DejaVuSans-6f"/>
    <path d="M 18.109375 8.203125 
L 18.109375 -20.796875 
L 9.078125 -20.796875 
L 9.078125 54.6875 
L 18.109375 54.6875 
L 18.109375 46.390625 
Q 20.953125 51.265625 25.265625 53.625 
Q 29.59375 56 35.59375 56 
Q 45.5625 56 51.78125 48.09375 
Q 58.015625 40.1875 58.015625 27.296875 
Q 58.015625 14.40625 51.78125 6.484375 
Q 45.5625 -1.421875 35.59375 -1.421875 
Q 29.59375 -1.421875 25.265625 0.953125 
Q 20.953125 3.328125 18.109375 8.203125 
M 48.6875 27.296875 
Q 48.6875 37.203125 44.609375 42.84375 
Q 40.53125 48.484375 33.40625 48.484375 
Q 26.265625 48.484375 22.1875 42.84375 
Q 18.109375 37.203125 18.109375 27.296875 
Q 18.109375 17.390625 22.1875 11.75 
Q 26.265625 6.109375 33.40625 6.109375 
Q 40.53125 6.109375 44.609375 11.75 
Q 48.6875 17.390625 48.6875 27.296875 
" id="DejaVuSans-70"/>
    <path d="M 8.5 21.578125 
L 8.5 54.6875 
L 17.484375 54.6875 
L 17.484375 21.921875 
Q 17.484375 14.15625 20.5 10.265625 
Q 23.53125 6.390625 29.59375 6.390625 
Q 36.859375 6.390625 41.078125 11.03125 
Q 45.3125 15.671875 45.3125 23.6875 
L 45.3125 54.6875 
L 54.296875 54.6875 
L 54.296875 0 
L 45.3125 0 
L 45.3125 8.40625 
Q 42.046875 3.421875 37.71875 1 
Q 33.40625 -1.421875 27.6875 -1.421875 
Q 18.265625 -1.421875 13.375 4.4375 
Q 8.5 10.296875 8.5 21.578125 
M 31.109375 56 
z
" id="DejaVuSans-75"/>
    <path d="M 50.984375 -16.609375 
L 50.984375 -23.578125 
L -0.984375 -23.578125 
L -0.984375 -16.609375 
z
" id="DejaVuSans-5f"/>
    <path d="M 28.609375 0 
L 0.78125 72.90625 
L 11.078125 72.90625 
L 34.1875 11.53125 
L 57.328125 72.90625 
L 67.578125 72.90625 
L 39.796875 0 
z
" id="DejaVuSans-56"/>
   </defs>
   <g transform="translate(14.425 16.318125)scale(0.12 -0.12)">
    <use xlink:href="#DejaVuSans-52"/>
    <use x="69.419922" xlink:href="#DejaVuSans-65"/>
    <use x="130.943359" xlink:href="#DejaVuSans-6c"/>
    <use x="158.726562" xlink:href="#DejaVuSans-61"/>
    <use x="220.005859" xlink:href="#DejaVuSans-74"/>
    <use x="259.214844" xlink:href="#DejaVuSans-69"/>
    <use x="286.998047" xlink:href="#DejaVuSans-6f"/>
    <use x="348.179688" xlink:href="#DejaVuSans-6e"/>
    <use x="411.558594" xlink:href="#DejaVuSans-20"/>
    <use x="443.345703" xlink:href="#DejaVuSans-70"/>
    <use x="506.822266" xlink:href="#DejaVuSans-61"/>
    <use x="568.101562" xlink:href="#DejaVuSans-74"/>
    <use x="607.310547" xlink:href="#DejaVuSans-63"/>
    <use x="662.291016" xlink:href="#DejaVuSans-68"/>
    <use x="725.669922" xlink:href="#DejaVuSans-65"/>
    <use x="787.193359" xlink:href="#DejaVuSans-64"/>
    <use x="850.669922" xlink:href="#DejaVuSans-20"/>
    <use x="882.457031" xlink:href="#DejaVuSans-76"/>
    <use x="941.636719" xlink:href="#DejaVuSans-73"/>
    <use x="993.736328" xlink:href="#DejaVuSans-2e"/>
    <use x="1025.523438" xlink:href="#DejaVuSans-20"/>
    <use x="1057.310547" xlink:href="#DejaVuSans-75"/>
    <use x="1120.689453" xlink:href="#DejaVuSans-6e"/>
    <use x="1184.068359" xlink:href="#DejaVuSans-70"/>
    <use x="1247.544922" xlink:href="#DejaVuSans-61"/>
    <use x="1308.824219" xlink:href="#DejaVuSans-74"/>
    <use x="1348.033203" xlink:href="#DejaVuSans-63"/>
    <use x="1403.013672" xlink:href="#DejaVuSans-68"/>
    <use x="1466.392578" xlink:href="#DejaVuSans-65"/>
    <use x="1527.916016" xlink:href="#DejaVuSans-64"/>
    <use x="1591.392578" xlink:href="#DejaVuSans-20"/>
    <use x="1623.179688" xlink:href="#DejaVuSans-28"/>
    <use x="1662.193359" xlink:href="#DejaVuSans-50"/>
    <use x="1722.496094" xlink:href="#DejaVuSans-43"/>
    <use x="1792.320312" xlink:href="#DejaVuSans-5f"/>
    <use x="1842.320312" xlink:href="#DejaVuSans-41"/>
    <use x="1910.728516" xlink:href="#DejaVuSans-53"/>
    <use x="1974.205078" xlink:href="#DejaVuSans-5f"/>
    <use x="2024.205078" xlink:href="#DejaVuSans-53"/>
    <use x="2087.681641" xlink:href="#DejaVuSans-45"/>
    <use x="2150.865234" xlink:href="#DejaVuSans-52"/>
    <use x="2220.269531" xlink:href="#DejaVuSans-56"/>
    <use x="2288.677734" xlink:href="#DejaVuSans-45"/>
    <use x="2351.861328" xlink:href="#DejaVuSans-52"/>
    <use x="2421.34375" xlink:href="#DejaVuSans-2c"/>
    <use x="2453.130859" xlink:href="#DejaVuSans-20"/>
    <use x="2484.917969" xlink:href="#DejaVuSans-77"/>
    <use x="2566.705078" xlink:href="#DejaVuSans-72"/>
    <use x="2607.818359" xlink:href="#DejaVuSans-69"/>
    <use x="2635.601562" xlink:href="#DejaVuSans-74"/>
    <use x="2674.810547" xlink:href="#DejaVuSans-65"/>
    <use x="2736.333984" xlink:href="#DejaVuSans-5f"/>
    <use x="2786.333984" xlink:href="#DejaVuSans-6c"/>
    <use x="2814.117188" xlink:href="#DejaVuSans-61"/>
    <use x="2875.396484" xlink:href="#DejaVuSans-74"/>
    <use x="2914.605469" xlink:href="#DejaVuSans-65"/>
    <use x="2976.128906" xlink:href="#DejaVuSans-6e"/>
    <use x="3039.507812" xlink:href="#DejaVuSans-63"/>
    <use x="3094.488281" xlink:href="#DejaVuSans-69"/>
    <use x="3122.271484" xlink:href="#DejaVuSans-65"/>
    <use x="3183.794922" xlink:href="#DejaVuSans-73"/>
    <use x="3235.894531" xlink:href="#DejaVuSans-2e"/>
    <use x="3267.681641" xlink:href="#DejaVuSans-63"/>
    <use x="3322.662109" xlink:href="#DejaVuSans-73"/>
    <use x="3374.761719" xlink:href="#DejaVuSans-76"/>
    <use x="3433.941406" xlink:href="#DejaVuSans-29"/>
   </g>
  </g>
 </g>
 <defs>
  <clipPath id="p2b4f4d1f21">
   <rect height="266.112" width="357.12" x="50.003125" y="41.76"/>
  </clipPath>
 </defs>
</svg>
