<?xml version="1.0" encoding="utf-8" standalone="no"?>
<!DOCTYPE svg PUBLIC "-//W3C//DTD SVG 1.1//EN"
  "http://www.w3.org/Graphics/SVG/1.1/DTD/svg11.dtd">
<!-- Created with matplotlib (http://matplotlib.org/) -->
<svg height="651pt" version="1.1" viewBox="0 0 483 651" width="483pt" xmlns="http://www.w3.org/2000/svg" xmlns:xlink="http://www.w3.org/1999/xlink">
 <defs>
  <style type="text/css">
*{stroke-linecap:butt;stroke-linejoin:round;stroke-miterlimit:100000;}
  </style>
 </defs>
 <g id="figure_1">
  <g id="patch_1">
   <path d="M 0 651.34395 
L 483.88375 651.34395 
L 483.88375 0 
L 0 0 
z
" style="fill:#ffffff;"/>
  </g>
  <g id="axes_1">
   <g id="patch_2">
    <path d="M 30.28375 400.99145 
L 476.68375 400.99145 
L 476.68375 55.39145 
L 30.28375 55.39145 
z
" style="fill:#ffffff;"/>
   </g>
   <g id="patch_3">
    <path clip-path="url(#p6f88d27756)" d="M 30.28375 400.99145 
L 55.792321 400.99145 
L 55.792321 304.49197 
L 30.28375 304.49197 
z
" style="fill:#ff0000;stroke:#000000;stroke-linejoin:miter;"/>
   </g>
   <g id="patch_4">
    <path clip-path="url(#p6f88d27756)" d="M 62.169464 400.99145 
L 87.678036 400.99145 
L 87.678036 317.155276 
L 62.169464 317.155276 
z
" style="fill:#ff0000;stroke:#000000;stroke-linejoin:miter;"/>
   </g>
   <g id="patch_5">
    <path clip-path="url(#p6f88d27756)" d="M 94.055179 400.99145 
L 119.56375 400.99145 
L 119.56375 351.957156 
L 94.055179 351.957156 
z
" style="fill:#ff0000;stroke:#000000;stroke-linejoin:miter;"/>
   </g>
   <g id="patch_6">
    <path clip-path="url(#p6f88d27756)" d="M 125.940893 400.99145 
L 151.449464 400.99145 
L 151.449464 213.6109 
L 125.940893 213.6109 
z
" style="fill:#ff0000;stroke:#000000;stroke-linejoin:miter;"/>
   </g>
   <g id="patch_7">
    <path clip-path="url(#p6f88d27756)" d="M 157.826607 400.99145 
L 183.335179 400.99145 
L 183.335179 63.130299 
L 157.826607 63.130299 
z
" style="fill:#ff0000;stroke:#000000;stroke-linejoin:miter;"/>
   </g>
   <g id="patch_8">
    <path clip-path="url(#p6f88d27756)" d="M 189.712321 400.99145 
L 215.220893 400.99145 
L 215.220893 305.530273 
L 189.712321 305.530273 
z
" style="fill:#ff0000;stroke:#000000;stroke-linejoin:miter;"/>
   </g>
   <g id="patch_9">
    <path clip-path="url(#p6f88d27756)" d="M 221.598036 400.99145 
L 247.106607 400.99145 
L 247.106607 333.245995 
L 221.598036 333.245995 
z
" style="fill:#ff0000;stroke:#000000;stroke-linejoin:miter;"/>
   </g>
   <g id="patch_10">
    <path clip-path="url(#p6f88d27756)" d="M 253.48375 400.99145 
L 278.992321 400.99145 
L 278.992321 359.645127 
L 253.48375 359.645127 
z
" style="fill:#ff0000;stroke:#000000;stroke-linejoin:miter;"/>
   </g>
   <g id="patch_11">
    <path clip-path="url(#p6f88d27756)" d="M 285.369464 400.99145 
L 310.878036 400.99145 
L 310.878036 343.996621 
L 285.369464 343.996621 
z
" style="fill:#ff0000;stroke:#000000;stroke-linejoin:miter;"/>
   </g>
   <g id="patch_12">
    <path clip-path="url(#p6f88d27756)" d="M 317.255179 400.99145 
L 342.76375 400.99145 
L 342.76375 335.817123 
L 317.255179 335.817123 
z
" style="fill:#ff0000;stroke:#000000;stroke-linejoin:miter;"/>
   </g>
   <g id="patch_13">
    <path clip-path="url(#p6f88d27756)" d="M 349.140893 400.99145 
L 374.649464 400.99145 
L 374.649464 278.246896 
L 349.140893 278.246896 
z
" style="fill:#ff0000;stroke:#000000;stroke-linejoin:miter;"/>
   </g>
   <g id="patch_14">
    <path clip-path="url(#p6f88d27756)" d="M 381.026607 400.99145 
L 406.535179 400.99145 
L 406.535179 55.400337 
L 381.026607 55.400337 
z
" style="fill:#ff0000;stroke:#000000;stroke-linejoin:miter;"/>
   </g>
   <g id="patch_15">
    <path clip-path="url(#p6f88d27756)" d="M 412.912321 400.99145 
L 438.420893 400.99145 
L 438.420893 353.351745 
L 412.912321 353.351745 
z
" style="fill:#ff0000;stroke:#000000;stroke-linejoin:miter;"/>
   </g>
   <g id="patch_16">
    <path d="M 30.28375 400.99145 
L 30.28375 55.39145 
" style="fill:none;stroke:#000000;stroke-linecap:square;stroke-linejoin:miter;"/>
   </g>
   <g id="patch_17">
    <path d="M 30.28375 55.39145 
L 476.68375 55.39145 
" style="fill:none;stroke:#000000;stroke-linecap:square;stroke-linejoin:miter;"/>
   </g>
   <g id="patch_18">
    <path d="M 476.68375 400.99145 
L 476.68375 55.39145 
" style="fill:none;stroke:#000000;stroke-linecap:square;stroke-linejoin:miter;"/>
   </g>
   <g id="patch_19">
    <path d="M 30.28375 400.99145 
L 476.68375 400.99145 
" style="fill:none;stroke:#000000;stroke-linecap:square;stroke-linejoin:miter;"/>
   </g>
   <g id="matplotlib.axis_1">
    <g id="xtick_1">
     <g id="line2d_1">
      <defs>
       <path d="M 0 0 
L 0 -4 
" id="m5610c8694c" style="stroke:#000000;stroke-width:0.5;"/>
      </defs>
      <g>
       <use style="stroke:#000000;stroke-width:0.5;" x="30.28375" xlink:href="#m5610c8694c" y="400.99145"/>
      </g>
     </g>
     <g id="line2d_2">
      <defs>
       <path d="M 0 0 
L 0 4 
" id="m0b059e419b" style="stroke:#000000;stroke-width:0.5;"/>
      </defs>
      <g>
       <use style="stroke:#000000;stroke-width:0.5;" x="30.28375" xlink:href="#m0b059e419b" y="55.39145"/>
      </g>
     </g>
     <g id="text_1">
      <!-- PARSE_CERTIFICATE_VERIFY_START -->
      <defs>
       <path d="M 50.984375 -16.609375 
L 50.984375 -23.578125 
L -0.984375 -23.578125 
L -0.984375 -16.609375 
z
" id="BitstreamVeraSans-Roman-5f"/>
       <path d="M 44.390625 34.1875 
Q 47.5625 33.109375 50.5625 29.59375 
Q 53.5625 26.078125 56.59375 19.921875 
L 66.609375 0 
L 56 0 
L 46.6875 18.703125 
Q 43.0625 26.03125 39.671875 28.421875 
Q 36.28125 30.8125 30.421875 30.8125 
L 19.671875 30.8125 
L 19.671875 0 
L 9.8125 0 
L 9.8125 72.90625 
L 32.078125 72.90625 
Q 44.578125 72.90625 50.734375 67.671875 
Q 56.890625 62.453125 56.890625 51.90625 
Q 56.890625 45.015625 53.6875 40.46875 
Q 50.484375 35.9375 44.390625 34.1875 
M 19.671875 64.796875 
L 19.671875 38.921875 
L 32.078125 38.921875 
Q 39.203125 38.921875 42.84375 42.21875 
Q 46.484375 45.515625 46.484375 51.90625 
Q 46.484375 58.296875 42.84375 61.546875 
Q 39.203125 64.796875 32.078125 64.796875 
z
" id="BitstreamVeraSans-Roman-52"/>
       <path d="M 34.1875 63.1875 
L 20.796875 26.90625 
L 47.609375 26.90625 
z
M 28.609375 72.90625 
L 39.796875 72.90625 
L 67.578125 0 
L 57.328125 0 
L 50.6875 18.703125 
L 17.828125 18.703125 
L 11.1875 0 
L 0.78125 0 
z
" id="BitstreamVeraSans-Roman-41"/>
       <path d="M 9.8125 72.90625 
L 51.703125 72.90625 
L 51.703125 64.59375 
L 19.671875 64.59375 
L 19.671875 43.109375 
L 48.578125 43.109375 
L 48.578125 34.8125 
L 19.671875 34.8125 
L 19.671875 0 
L 9.8125 0 
z
" id="BitstreamVeraSans-Roman-46"/>
       <path d="M 64.40625 67.28125 
L 64.40625 56.890625 
Q 59.421875 61.53125 53.78125 63.8125 
Q 48.140625 66.109375 41.796875 66.109375 
Q 29.296875 66.109375 22.65625 58.46875 
Q 16.015625 50.828125 16.015625 36.375 
Q 16.015625 21.96875 22.65625 14.328125 
Q 29.296875 6.6875 41.796875 6.6875 
Q 48.140625 6.6875 53.78125 8.984375 
Q 59.421875 11.28125 64.40625 15.921875 
L 64.40625 5.609375 
Q 59.234375 2.09375 53.4375 0.328125 
Q 47.65625 -1.421875 41.21875 -1.421875 
Q 24.65625 -1.421875 15.125 8.703125 
Q 5.609375 18.84375 5.609375 36.375 
Q 5.609375 53.953125 15.125 64.078125 
Q 24.65625 74.21875 41.21875 74.21875 
Q 47.75 74.21875 53.53125 72.484375 
Q 59.328125 70.75 64.40625 67.28125 
" id="BitstreamVeraSans-Roman-43"/>
       <path d="M 28.609375 0 
L 0.78125 72.90625 
L 11.078125 72.90625 
L 34.1875 11.53125 
L 57.328125 72.90625 
L 67.578125 72.90625 
L 39.796875 0 
z
" id="BitstreamVeraSans-Roman-56"/>
       <path d="M 19.671875 64.796875 
L 19.671875 37.40625 
L 32.078125 37.40625 
Q 38.96875 37.40625 42.71875 40.96875 
Q 46.484375 44.53125 46.484375 51.125 
Q 46.484375 57.671875 42.71875 61.234375 
Q 38.96875 64.796875 32.078125 64.796875 
z
M 9.8125 72.90625 
L 32.078125 72.90625 
Q 44.34375 72.90625 50.609375 67.359375 
Q 56.890625 61.8125 56.890625 51.125 
Q 56.890625 40.328125 50.609375 34.8125 
Q 44.34375 29.296875 32.078125 29.296875 
L 19.671875 29.296875 
L 19.671875 0 
L 9.8125 0 
z
" id="BitstreamVeraSans-Roman-50"/>
       <path d="M 9.8125 72.90625 
L 55.90625 72.90625 
L 55.90625 64.59375 
L 19.671875 64.59375 
L 19.671875 43.015625 
L 54.390625 43.015625 
L 54.390625 34.71875 
L 19.671875 34.71875 
L 19.671875 8.296875 
L 56.78125 8.296875 
L 56.78125 0 
L 9.8125 0 
z
" id="BitstreamVeraSans-Roman-45"/>
       <path d="M -0.203125 72.90625 
L 10.40625 72.90625 
L 30.609375 42.921875 
L 50.6875 72.90625 
L 61.28125 72.90625 
L 35.5 34.71875 
L 35.5 0 
L 25.59375 0 
L 25.59375 34.71875 
z
" id="BitstreamVeraSans-Roman-59"/>
       <path d="M -0.296875 72.90625 
L 61.375 72.90625 
L 61.375 64.59375 
L 35.5 64.59375 
L 35.5 0 
L 25.59375 0 
L 25.59375 64.59375 
L -0.296875 64.59375 
z
" id="BitstreamVeraSans-Roman-54"/>
       <path d="M 53.515625 70.515625 
L 53.515625 60.890625 
Q 47.90625 63.578125 42.921875 64.890625 
Q 37.9375 66.21875 33.296875 66.21875 
Q 25.25 66.21875 20.875 63.09375 
Q 16.5 59.96875 16.5 54.203125 
Q 16.5 49.359375 19.40625 46.890625 
Q 22.3125 44.4375 30.421875 42.921875 
L 36.375 41.703125 
Q 47.40625 39.59375 52.65625 34.296875 
Q 57.90625 29 57.90625 20.125 
Q 57.90625 9.515625 50.796875 4.046875 
Q 43.703125 -1.421875 29.984375 -1.421875 
Q 24.8125 -1.421875 18.96875 -0.25 
Q 13.140625 0.921875 6.890625 3.21875 
L 6.890625 13.375 
Q 12.890625 10.015625 18.65625 8.296875 
Q 24.421875 6.59375 29.984375 6.59375 
Q 38.421875 6.59375 43.015625 9.90625 
Q 47.609375 13.234375 47.609375 19.390625 
Q 47.609375 24.75 44.3125 27.78125 
Q 41.015625 30.8125 33.5 32.328125 
L 27.484375 33.5 
Q 16.453125 35.6875 11.515625 40.375 
Q 6.59375 45.0625 6.59375 53.421875 
Q 6.59375 63.09375 13.40625 68.65625 
Q 20.21875 74.21875 32.171875 74.21875 
Q 37.3125 74.21875 42.625 73.28125 
Q 47.953125 72.359375 53.515625 70.515625 
" id="BitstreamVeraSans-Roman-53"/>
       <path d="M 9.8125 72.90625 
L 19.671875 72.90625 
L 19.671875 0 
L 9.8125 0 
z
" id="BitstreamVeraSans-Roman-49"/>
      </defs>
      <g transform="translate(33.3221875 619.74645)rotate(-90.0)scale(0.12 -0.12)">
       <use xlink:href="#BitstreamVeraSans-Roman-50"/>
       <use x="60.208984375" xlink:href="#BitstreamVeraSans-Roman-41"/>
       <use x="128.6171875" xlink:href="#BitstreamVeraSans-Roman-52"/>
       <use x="198.099609375" xlink:href="#BitstreamVeraSans-Roman-53"/>
       <use x="261.576171875" xlink:href="#BitstreamVeraSans-Roman-45"/>
       <use x="324.759765625" xlink:href="#BitstreamVeraSans-Roman-5f"/>
       <use x="374.759765625" xlink:href="#BitstreamVeraSans-Roman-43"/>
       <use x="444.583984375" xlink:href="#BitstreamVeraSans-Roman-45"/>
       <use x="507.767578125" xlink:href="#BitstreamVeraSans-Roman-52"/>
       <use x="577.140625" xlink:href="#BitstreamVeraSans-Roman-54"/>
       <use x="638.224609375" xlink:href="#BitstreamVeraSans-Roman-49"/>
       <use x="667.716796875" xlink:href="#BitstreamVeraSans-Roman-46"/>
       <use x="725.236328125" xlink:href="#BitstreamVeraSans-Roman-49"/>
       <use x="754.728515625" xlink:href="#BitstreamVeraSans-Roman-43"/>
       <use x="824.552734375" xlink:href="#BitstreamVeraSans-Roman-41"/>
       <use x="892.8515625" xlink:href="#BitstreamVeraSans-Roman-54"/>
       <use x="953.935546875" xlink:href="#BitstreamVeraSans-Roman-45"/>
       <use x="1017.119140625" xlink:href="#BitstreamVeraSans-Roman-5f"/>
       <use x="1067.119140625" xlink:href="#BitstreamVeraSans-Roman-56"/>
       <use x="1135.52734375" xlink:href="#BitstreamVeraSans-Roman-45"/>
       <use x="1198.7109375" xlink:href="#BitstreamVeraSans-Roman-52"/>
       <use x="1268.193359375" xlink:href="#BitstreamVeraSans-Roman-49"/>
       <use x="1297.685546875" xlink:href="#BitstreamVeraSans-Roman-46"/>
       <use x="1355.205078125" xlink:href="#BitstreamVeraSans-Roman-59"/>
       <use x="1416.2890625" xlink:href="#BitstreamVeraSans-Roman-5f"/>
       <use x="1466.2890625" xlink:href="#BitstreamVeraSans-Roman-53"/>
       <use x="1529.765625" xlink:href="#BitstreamVeraSans-Roman-54"/>
       <use x="1590.740234375" xlink:href="#BitstreamVeraSans-Roman-41"/>
       <use x="1659.1484375" xlink:href="#BitstreamVeraSans-Roman-52"/>
       <use x="1728.521484375" xlink:href="#BitstreamVeraSans-Roman-54"/>
      </g>
     </g>
    </g>
    <g id="xtick_2">
     <g id="line2d_3">
      <g>
       <use style="stroke:#000000;stroke-width:0.5;" x="62.1694642857" xlink:href="#m5610c8694c" y="400.99145"/>
      </g>
     </g>
     <g id="line2d_4">
      <g>
       <use style="stroke:#000000;stroke-width:0.5;" x="62.1694642857" xlink:href="#m0b059e419b" y="55.39145"/>
      </g>
     </g>
     <g id="text_2">
      <!-- WRITE_SERVER_HELLO_START -->
      <defs>
       <path d="M 39.40625 66.21875 
Q 28.65625 66.21875 22.328125 58.203125 
Q 16.015625 50.203125 16.015625 36.375 
Q 16.015625 22.609375 22.328125 14.59375 
Q 28.65625 6.59375 39.40625 6.59375 
Q 50.140625 6.59375 56.421875 14.59375 
Q 62.703125 22.609375 62.703125 36.375 
Q 62.703125 50.203125 56.421875 58.203125 
Q 50.140625 66.21875 39.40625 66.21875 
M 39.40625 74.21875 
Q 54.734375 74.21875 63.90625 63.9375 
Q 73.09375 53.65625 73.09375 36.375 
Q 73.09375 19.140625 63.90625 8.859375 
Q 54.734375 -1.421875 39.40625 -1.421875 
Q 24.03125 -1.421875 14.8125 8.828125 
Q 5.609375 19.09375 5.609375 36.375 
Q 5.609375 53.65625 14.8125 63.9375 
Q 24.03125 74.21875 39.40625 74.21875 
" id="BitstreamVeraSans-Roman-4f"/>
       <path d="M 9.8125 72.90625 
L 19.671875 72.90625 
L 19.671875 8.296875 
L 55.171875 8.296875 
L 55.171875 0 
L 9.8125 0 
z
" id="BitstreamVeraSans-Roman-4c"/>
       <path d="M 9.8125 72.90625 
L 19.671875 72.90625 
L 19.671875 43.015625 
L 55.515625 43.015625 
L 55.515625 72.90625 
L 65.375 72.90625 
L 65.375 0 
L 55.515625 0 
L 55.515625 34.71875 
L 19.671875 34.71875 
L 19.671875 0 
L 9.8125 0 
z
" id="BitstreamVeraSans-Roman-48"/>
       <path d="M 3.328125 72.90625 
L 13.28125 72.90625 
L 28.609375 11.28125 
L 43.890625 72.90625 
L 54.984375 72.90625 
L 70.3125 11.28125 
L 85.59375 72.90625 
L 95.609375 72.90625 
L 77.296875 0 
L 64.890625 0 
L 49.515625 63.28125 
L 33.984375 0 
L 21.578125 0 
z
" id="BitstreamVeraSans-Roman-57"/>
      </defs>
      <g transform="translate(65.2079017857 587.5227)rotate(-90.0)scale(0.12 -0.12)">
       <use xlink:href="#BitstreamVeraSans-Roman-57"/>
       <use x="98.876953125" xlink:href="#BitstreamVeraSans-Roman-52"/>
       <use x="168.359375" xlink:href="#BitstreamVeraSans-Roman-49"/>
       <use x="197.8515625" xlink:href="#BitstreamVeraSans-Roman-54"/>
       <use x="258.935546875" xlink:href="#BitstreamVeraSans-Roman-45"/>
       <use x="322.119140625" xlink:href="#BitstreamVeraSans-Roman-5f"/>
       <use x="372.119140625" xlink:href="#BitstreamVeraSans-Roman-53"/>
       <use x="435.595703125" xlink:href="#BitstreamVeraSans-Roman-45"/>
       <use x="498.779296875" xlink:href="#BitstreamVeraSans-Roman-52"/>
       <use x="568.18359375" xlink:href="#BitstreamVeraSans-Roman-56"/>
       <use x="636.591796875" xlink:href="#BitstreamVeraSans-Roman-45"/>
       <use x="699.775390625" xlink:href="#BitstreamVeraSans-Roman-52"/>
       <use x="769.2578125" xlink:href="#BitstreamVeraSans-Roman-5f"/>
       <use x="819.2578125" xlink:href="#BitstreamVeraSans-Roman-48"/>
       <use x="894.453125" xlink:href="#BitstreamVeraSans-Roman-45"/>
       <use x="957.63671875" xlink:href="#BitstreamVeraSans-Roman-4c"/>
       <use x="1013.349609375" xlink:href="#BitstreamVeraSans-Roman-4c"/>
       <use x="1069.015625" xlink:href="#BitstreamVeraSans-Roman-4f"/>
       <use x="1147.7265625" xlink:href="#BitstreamVeraSans-Roman-5f"/>
       <use x="1197.7265625" xlink:href="#BitstreamVeraSans-Roman-53"/>
       <use x="1261.203125" xlink:href="#BitstreamVeraSans-Roman-54"/>
       <use x="1322.177734375" xlink:href="#BitstreamVeraSans-Roman-41"/>
       <use x="1390.5859375" xlink:href="#BitstreamVeraSans-Roman-52"/>
       <use x="1459.958984375" xlink:href="#BitstreamVeraSans-Roman-54"/>
      </g>
     </g>
    </g>
    <g id="xtick_3">
     <g id="line2d_5">
      <g>
       <use style="stroke:#000000;stroke-width:0.5;" x="94.0551785714" xlink:href="#m5610c8694c" y="400.99145"/>
      </g>
     </g>
     <g id="line2d_6">
      <g>
       <use style="stroke:#000000;stroke-width:0.5;" x="94.0551785714" xlink:href="#m0b059e419b" y="55.39145"/>
      </g>
     </g>
     <g id="text_3">
      <!-- WRITE_CERTIFICATE_REQUEST_START -->
      <defs>
       <path d="M 8.6875 72.90625 
L 18.609375 72.90625 
L 18.609375 28.609375 
Q 18.609375 16.890625 22.84375 11.734375 
Q 27.09375 6.59375 36.625 6.59375 
Q 46.09375 6.59375 50.34375 11.734375 
Q 54.59375 16.890625 54.59375 28.609375 
L 54.59375 72.90625 
L 64.5 72.90625 
L 64.5 27.390625 
Q 64.5 13.140625 57.4375 5.859375 
Q 50.390625 -1.421875 36.625 -1.421875 
Q 22.796875 -1.421875 15.734375 5.859375 
Q 8.6875 13.140625 8.6875 27.390625 
z
" id="BitstreamVeraSans-Roman-55"/>
       <path d="M 39.40625 66.21875 
Q 28.65625 66.21875 22.328125 58.203125 
Q 16.015625 50.203125 16.015625 36.375 
Q 16.015625 22.609375 22.328125 14.59375 
Q 28.65625 6.59375 39.40625 6.59375 
Q 50.140625 6.59375 56.421875 14.59375 
Q 62.703125 22.609375 62.703125 36.375 
Q 62.703125 50.203125 56.421875 58.203125 
Q 50.140625 66.21875 39.40625 66.21875 
M 53.21875 1.3125 
L 66.21875 -12.890625 
L 54.296875 -12.890625 
L 43.5 -1.21875 
Q 41.890625 -1.3125 41.03125 -1.359375 
Q 40.1875 -1.421875 39.40625 -1.421875 
Q 24.03125 -1.421875 14.8125 8.859375 
Q 5.609375 19.140625 5.609375 36.375 
Q 5.609375 53.65625 14.8125 63.9375 
Q 24.03125 74.21875 39.40625 74.21875 
Q 54.734375 74.21875 63.90625 63.9375 
Q 73.09375 53.65625 73.09375 36.375 
Q 73.09375 23.6875 67.984375 14.640625 
Q 62.890625 5.609375 53.21875 1.3125 
" id="BitstreamVeraSans-Roman-51"/>
      </defs>
      <g transform="translate(97.0936160714 634.208325)rotate(-90.0)scale(0.12 -0.12)">
       <use xlink:href="#BitstreamVeraSans-Roman-57"/>
       <use x="98.876953125" xlink:href="#BitstreamVeraSans-Roman-52"/>
       <use x="168.359375" xlink:href="#BitstreamVeraSans-Roman-49"/>
       <use x="197.8515625" xlink:href="#BitstreamVeraSans-Roman-54"/>
       <use x="258.935546875" xlink:href="#BitstreamVeraSans-Roman-45"/>
       <use x="322.119140625" xlink:href="#BitstreamVeraSans-Roman-5f"/>
       <use x="372.119140625" xlink:href="#BitstreamVeraSans-Roman-43"/>
       <use x="441.943359375" xlink:href="#BitstreamVeraSans-Roman-45"/>
       <use x="505.126953125" xlink:href="#BitstreamVeraSans-Roman-52"/>
       <use x="574.5" xlink:href="#BitstreamVeraSans-Roman-54"/>
       <use x="635.583984375" xlink:href="#BitstreamVeraSans-Roman-49"/>
       <use x="665.076171875" xlink:href="#BitstreamVeraSans-Roman-46"/>
       <use x="722.595703125" xlink:href="#BitstreamVeraSans-Roman-49"/>
       <use x="752.087890625" xlink:href="#BitstreamVeraSans-Roman-43"/>
       <use x="821.912109375" xlink:href="#BitstreamVeraSans-Roman-41"/>
       <use x="890.2109375" xlink:href="#BitstreamVeraSans-Roman-54"/>
       <use x="951.294921875" xlink:href="#BitstreamVeraSans-Roman-45"/>
       <use x="1014.478515625" xlink:href="#BitstreamVeraSans-Roman-5f"/>
       <use x="1064.478515625" xlink:href="#BitstreamVeraSans-Roman-52"/>
       <use x="1133.9609375" xlink:href="#BitstreamVeraSans-Roman-45"/>
       <use x="1197.14453125" xlink:href="#BitstreamVeraSans-Roman-51"/>
       <use x="1275.85546875" xlink:href="#BitstreamVeraSans-Roman-55"/>
       <use x="1349.048828125" xlink:href="#BitstreamVeraSans-Roman-45"/>
       <use x="1412.232421875" xlink:href="#BitstreamVeraSans-Roman-53"/>
       <use x="1475.708984375" xlink:href="#BitstreamVeraSans-Roman-54"/>
       <use x="1536.79296875" xlink:href="#BitstreamVeraSans-Roman-5f"/>
       <use x="1586.79296875" xlink:href="#BitstreamVeraSans-Roman-53"/>
       <use x="1650.26953125" xlink:href="#BitstreamVeraSans-Roman-54"/>
       <use x="1711.244140625" xlink:href="#BitstreamVeraSans-Roman-41"/>
       <use x="1779.65234375" xlink:href="#BitstreamVeraSans-Roman-52"/>
       <use x="1849.025390625" xlink:href="#BitstreamVeraSans-Roman-54"/>
      </g>
     </g>
    </g>
    <g id="xtick_4">
     <g id="line2d_7">
      <g>
       <use style="stroke:#000000;stroke-width:0.5;" x="125.940892857" xlink:href="#m5610c8694c" y="400.99145"/>
      </g>
     </g>
     <g id="line2d_8">
      <g>
       <use style="stroke:#000000;stroke-width:0.5;" x="125.940892857" xlink:href="#m0b059e419b" y="55.39145"/>
      </g>
     </g>
     <g id="text_4">
      <!-- PARSE_CLIENT_KEY_EXCHANGE_START -->
      <defs>
       <path d="M 9.8125 72.90625 
L 23.09375 72.90625 
L 55.421875 11.921875 
L 55.421875 72.90625 
L 64.984375 72.90625 
L 64.984375 0 
L 51.703125 0 
L 19.390625 60.984375 
L 19.390625 0 
L 9.8125 0 
z
" id="BitstreamVeraSans-Roman-4e"/>
       <path d="M 59.515625 10.40625 
L 59.515625 29.984375 
L 43.40625 29.984375 
L 43.40625 38.09375 
L 69.28125 38.09375 
L 69.28125 6.78125 
Q 63.578125 2.734375 56.6875 0.65625 
Q 49.8125 -1.421875 42 -1.421875 
Q 24.90625 -1.421875 15.25 8.5625 
Q 5.609375 18.5625 5.609375 36.375 
Q 5.609375 54.25 15.25 64.234375 
Q 24.90625 74.21875 42 74.21875 
Q 49.125 74.21875 55.546875 72.453125 
Q 61.96875 70.703125 67.390625 67.28125 
L 67.390625 56.78125 
Q 61.921875 61.421875 55.765625 63.765625 
Q 49.609375 66.109375 42.828125 66.109375 
Q 29.4375 66.109375 22.71875 58.640625 
Q 16.015625 51.171875 16.015625 36.375 
Q 16.015625 21.625 22.71875 14.15625 
Q 29.4375 6.6875 42.828125 6.6875 
Q 48.046875 6.6875 52.140625 7.59375 
Q 56.25 8.5 59.515625 10.40625 
" id="BitstreamVeraSans-Roman-47"/>
       <path d="M 6.296875 72.90625 
L 16.890625 72.90625 
L 35.015625 45.796875 
L 53.21875 72.90625 
L 63.8125 72.90625 
L 40.375 37.890625 
L 65.375 0 
L 54.78125 0 
L 34.28125 31 
L 13.625 0 
L 2.984375 0 
L 29 38.921875 
z
" id="BitstreamVeraSans-Roman-58"/>
       <path d="M 9.8125 72.90625 
L 19.671875 72.90625 
L 19.671875 42.09375 
L 52.390625 72.90625 
L 65.09375 72.90625 
L 28.90625 38.921875 
L 67.671875 0 
L 54.6875 0 
L 19.671875 35.109375 
L 19.671875 0 
L 9.8125 0 
z
" id="BitstreamVeraSans-Roman-4b"/>
      </defs>
      <g transform="translate(128.979330357 639.297075)rotate(-90.0)scale(0.12 -0.12)">
       <use xlink:href="#BitstreamVeraSans-Roman-50"/>
       <use x="60.208984375" xlink:href="#BitstreamVeraSans-Roman-41"/>
       <use x="128.6171875" xlink:href="#BitstreamVeraSans-Roman-52"/>
       <use x="198.099609375" xlink:href="#BitstreamVeraSans-Roman-53"/>
       <use x="261.576171875" xlink:href="#BitstreamVeraSans-Roman-45"/>
       <use x="324.759765625" xlink:href="#BitstreamVeraSans-Roman-5f"/>
       <use x="374.759765625" xlink:href="#BitstreamVeraSans-Roman-43"/>
       <use x="444.583984375" xlink:href="#BitstreamVeraSans-Roman-4c"/>
       <use x="500.296875" xlink:href="#BitstreamVeraSans-Roman-49"/>
       <use x="529.7890625" xlink:href="#BitstreamVeraSans-Roman-45"/>
       <use x="592.97265625" xlink:href="#BitstreamVeraSans-Roman-4e"/>
       <use x="667.77734375" xlink:href="#BitstreamVeraSans-Roman-54"/>
       <use x="728.861328125" xlink:href="#BitstreamVeraSans-Roman-5f"/>
       <use x="778.861328125" xlink:href="#BitstreamVeraSans-Roman-4b"/>
       <use x="844.4375" xlink:href="#BitstreamVeraSans-Roman-45"/>
       <use x="907.62109375" xlink:href="#BitstreamVeraSans-Roman-59"/>
       <use x="968.705078125" xlink:href="#BitstreamVeraSans-Roman-5f"/>
       <use x="1018.705078125" xlink:href="#BitstreamVeraSans-Roman-45"/>
       <use x="1081.888671875" xlink:href="#BitstreamVeraSans-Roman-58"/>
       <use x="1150.28515625" xlink:href="#BitstreamVeraSans-Roman-43"/>
       <use x="1220.109375" xlink:href="#BitstreamVeraSans-Roman-48"/>
       <use x="1295.3046875" xlink:href="#BitstreamVeraSans-Roman-41"/>
       <use x="1363.712890625" xlink:href="#BitstreamVeraSans-Roman-4e"/>
       <use x="1438.517578125" xlink:href="#BitstreamVeraSans-Roman-47"/>
       <use x="1516.0078125" xlink:href="#BitstreamVeraSans-Roman-45"/>
       <use x="1579.19140625" xlink:href="#BitstreamVeraSans-Roman-5f"/>
       <use x="1629.19140625" xlink:href="#BitstreamVeraSans-Roman-53"/>
       <use x="1692.66796875" xlink:href="#BitstreamVeraSans-Roman-54"/>
       <use x="1753.642578125" xlink:href="#BitstreamVeraSans-Roman-41"/>
       <use x="1822.05078125" xlink:href="#BitstreamVeraSans-Roman-52"/>
       <use x="1891.423828125" xlink:href="#BitstreamVeraSans-Roman-54"/>
      </g>
     </g>
    </g>
    <g id="xtick_5">
     <g id="line2d_9">
      <g>
       <use style="stroke:#000000;stroke-width:0.5;" x="157.826607143" xlink:href="#m5610c8694c" y="400.99145"/>
      </g>
     </g>
     <g id="line2d_10">
      <g>
       <use style="stroke:#000000;stroke-width:0.5;" x="157.826607143" xlink:href="#m0b059e419b" y="55.39145"/>
      </g>
     </g>
     <g id="text_5">
      <!-- WRITE_SERVER_CERTIFICATE_START -->
      <g transform="translate(160.865044643 625.1877)rotate(-90.0)scale(0.12 -0.12)">
       <use xlink:href="#BitstreamVeraSans-Roman-57"/>
       <use x="98.876953125" xlink:href="#BitstreamVeraSans-Roman-52"/>
       <use x="168.359375" xlink:href="#BitstreamVeraSans-Roman-49"/>
       <use x="197.8515625" xlink:href="#BitstreamVeraSans-Roman-54"/>
       <use x="258.935546875" xlink:href="#BitstreamVeraSans-Roman-45"/>
       <use x="322.119140625" xlink:href="#BitstreamVeraSans-Roman-5f"/>
       <use x="372.119140625" xlink:href="#BitstreamVeraSans-Roman-53"/>
       <use x="435.595703125" xlink:href="#BitstreamVeraSans-Roman-45"/>
       <use x="498.779296875" xlink:href="#BitstreamVeraSans-Roman-52"/>
       <use x="568.18359375" xlink:href="#BitstreamVeraSans-Roman-56"/>
       <use x="636.591796875" xlink:href="#BitstreamVeraSans-Roman-45"/>
       <use x="699.775390625" xlink:href="#BitstreamVeraSans-Roman-52"/>
       <use x="769.2578125" xlink:href="#BitstreamVeraSans-Roman-5f"/>
       <use x="819.2578125" xlink:href="#BitstreamVeraSans-Roman-43"/>
       <use x="889.08203125" xlink:href="#BitstreamVeraSans-Roman-45"/>
       <use x="952.265625" xlink:href="#BitstreamVeraSans-Roman-52"/>
       <use x="1021.638671875" xlink:href="#BitstreamVeraSans-Roman-54"/>
       <use x="1082.72265625" xlink:href="#BitstreamVeraSans-Roman-49"/>
       <use x="1112.21484375" xlink:href="#BitstreamVeraSans-Roman-46"/>
       <use x="1169.734375" xlink:href="#BitstreamVeraSans-Roman-49"/>
       <use x="1199.2265625" xlink:href="#BitstreamVeraSans-Roman-43"/>
       <use x="1269.05078125" xlink:href="#BitstreamVeraSans-Roman-41"/>
       <use x="1337.349609375" xlink:href="#BitstreamVeraSans-Roman-54"/>
       <use x="1398.43359375" xlink:href="#BitstreamVeraSans-Roman-45"/>
       <use x="1461.6171875" xlink:href="#BitstreamVeraSans-Roman-5f"/>
       <use x="1511.6171875" xlink:href="#BitstreamVeraSans-Roman-53"/>
       <use x="1575.09375" xlink:href="#BitstreamVeraSans-Roman-54"/>
       <use x="1636.068359375" xlink:href="#BitstreamVeraSans-Roman-41"/>
       <use x="1704.4765625" xlink:href="#BitstreamVeraSans-Roman-52"/>
       <use x="1773.849609375" xlink:href="#BitstreamVeraSans-Roman-54"/>
      </g>
     </g>
    </g>
    <g id="xtick_6">
     <g id="line2d_11">
      <g>
       <use style="stroke:#000000;stroke-width:0.5;" x="189.712321429" xlink:href="#m5610c8694c" y="400.99145"/>
      </g>
     </g>
     <g id="line2d_12">
      <g>
       <use style="stroke:#000000;stroke-width:0.5;" x="189.712321429" xlink:href="#m0b059e419b" y="55.39145"/>
      </g>
     </g>
     <g id="text_6">
      <!-- PARSE_FINISHED_START -->
      <defs>
       <path d="M 19.671875 64.796875 
L 19.671875 8.109375 
L 31.59375 8.109375 
Q 46.6875 8.109375 53.6875 14.9375 
Q 60.6875 21.78125 60.6875 36.53125 
Q 60.6875 51.171875 53.6875 57.984375 
Q 46.6875 64.796875 31.59375 64.796875 
z
M 9.8125 72.90625 
L 30.078125 72.90625 
Q 51.265625 72.90625 61.171875 64.09375 
Q 71.09375 55.28125 71.09375 36.53125 
Q 71.09375 17.671875 61.125 8.828125 
Q 51.171875 0 30.078125 0 
L 9.8125 0 
z
" id="BitstreamVeraSans-Roman-44"/>
      </defs>
      <g transform="translate(192.750758929 551.1852)rotate(-90.0)scale(0.12 -0.12)">
       <use xlink:href="#BitstreamVeraSans-Roman-50"/>
       <use x="60.208984375" xlink:href="#BitstreamVeraSans-Roman-41"/>
       <use x="128.6171875" xlink:href="#BitstreamVeraSans-Roman-52"/>
       <use x="198.099609375" xlink:href="#BitstreamVeraSans-Roman-53"/>
       <use x="261.576171875" xlink:href="#BitstreamVeraSans-Roman-45"/>
       <use x="324.759765625" xlink:href="#BitstreamVeraSans-Roman-5f"/>
       <use x="374.759765625" xlink:href="#BitstreamVeraSans-Roman-46"/>
       <use x="432.279296875" xlink:href="#BitstreamVeraSans-Roman-49"/>
       <use x="461.771484375" xlink:href="#BitstreamVeraSans-Roman-4e"/>
       <use x="536.576171875" xlink:href="#BitstreamVeraSans-Roman-49"/>
       <use x="566.068359375" xlink:href="#BitstreamVeraSans-Roman-53"/>
       <use x="629.544921875" xlink:href="#BitstreamVeraSans-Roman-48"/>
       <use x="704.740234375" xlink:href="#BitstreamVeraSans-Roman-45"/>
       <use x="767.923828125" xlink:href="#BitstreamVeraSans-Roman-44"/>
       <use x="844.92578125" xlink:href="#BitstreamVeraSans-Roman-5f"/>
       <use x="894.92578125" xlink:href="#BitstreamVeraSans-Roman-53"/>
       <use x="958.40234375" xlink:href="#BitstreamVeraSans-Roman-54"/>
       <use x="1019.376953125" xlink:href="#BitstreamVeraSans-Roman-41"/>
       <use x="1087.78515625" xlink:href="#BitstreamVeraSans-Roman-52"/>
       <use x="1157.158203125" xlink:href="#BitstreamVeraSans-Roman-54"/>
      </g>
     </g>
    </g>
    <g id="xtick_7">
     <g id="line2d_13">
      <g>
       <use style="stroke:#000000;stroke-width:0.5;" x="221.598035714" xlink:href="#m5610c8694c" y="400.99145"/>
      </g>
     </g>
     <g id="line2d_14">
      <g>
       <use style="stroke:#000000;stroke-width:0.5;" x="221.598035714" xlink:href="#m0b059e419b" y="55.39145"/>
      </g>
     </g>
     <g id="text_7">
      <!-- WRITE_CHANGE_CIPHER_SPEC_START -->
      <g transform="translate(224.636473214 632.8302)rotate(-90.0)scale(0.12 -0.12)">
       <use xlink:href="#BitstreamVeraSans-Roman-57"/>
       <use x="98.876953125" xlink:href="#BitstreamVeraSans-Roman-52"/>
       <use x="168.359375" xlink:href="#BitstreamVeraSans-Roman-49"/>
       <use x="197.8515625" xlink:href="#BitstreamVeraSans-Roman-54"/>
       <use x="258.935546875" xlink:href="#BitstreamVeraSans-Roman-45"/>
       <use x="322.119140625" xlink:href="#BitstreamVeraSans-Roman-5f"/>
       <use x="372.119140625" xlink:href="#BitstreamVeraSans-Roman-43"/>
       <use x="441.943359375" xlink:href="#BitstreamVeraSans-Roman-48"/>
       <use x="517.138671875" xlink:href="#BitstreamVeraSans-Roman-41"/>
       <use x="585.546875" xlink:href="#BitstreamVeraSans-Roman-4e"/>
       <use x="660.3515625" xlink:href="#BitstreamVeraSans-Roman-47"/>
       <use x="737.841796875" xlink:href="#BitstreamVeraSans-Roman-45"/>
       <use x="801.025390625" xlink:href="#BitstreamVeraSans-Roman-5f"/>
       <use x="851.025390625" xlink:href="#BitstreamVeraSans-Roman-43"/>
       <use x="920.849609375" xlink:href="#BitstreamVeraSans-Roman-49"/>
       <use x="950.341796875" xlink:href="#BitstreamVeraSans-Roman-50"/>
       <use x="1010.64453125" xlink:href="#BitstreamVeraSans-Roman-48"/>
       <use x="1085.83984375" xlink:href="#BitstreamVeraSans-Roman-45"/>
       <use x="1149.0234375" xlink:href="#BitstreamVeraSans-Roman-52"/>
       <use x="1218.505859375" xlink:href="#BitstreamVeraSans-Roman-5f"/>
       <use x="1268.505859375" xlink:href="#BitstreamVeraSans-Roman-53"/>
       <use x="1331.982421875" xlink:href="#BitstreamVeraSans-Roman-50"/>
       <use x="1392.28515625" xlink:href="#BitstreamVeraSans-Roman-45"/>
       <use x="1455.46875" xlink:href="#BitstreamVeraSans-Roman-43"/>
       <use x="1525.29296875" xlink:href="#BitstreamVeraSans-Roman-5f"/>
       <use x="1575.29296875" xlink:href="#BitstreamVeraSans-Roman-53"/>
       <use x="1638.76953125" xlink:href="#BitstreamVeraSans-Roman-54"/>
       <use x="1699.744140625" xlink:href="#BitstreamVeraSans-Roman-41"/>
       <use x="1768.15234375" xlink:href="#BitstreamVeraSans-Roman-52"/>
       <use x="1837.525390625" xlink:href="#BitstreamVeraSans-Roman-54"/>
      </g>
     </g>
    </g>
    <g id="xtick_8">
     <g id="line2d_15">
      <g>
       <use style="stroke:#000000;stroke-width:0.5;" x="253.48375" xlink:href="#m5610c8694c" y="400.99145"/>
      </g>
     </g>
     <g id="line2d_16">
      <g>
       <use style="stroke:#000000;stroke-width:0.5;" x="253.48375" xlink:href="#m0b059e419b" y="55.39145"/>
      </g>
     </g>
     <g id="text_8">
      <!-- PARSE_CLIENT_HELLO_START -->
      <g transform="translate(256.5221875 582.675825)rotate(-90.0)scale(0.12 -0.12)">
       <use xlink:href="#BitstreamVeraSans-Roman-50"/>
       <use x="60.208984375" xlink:href="#BitstreamVeraSans-Roman-41"/>
       <use x="128.6171875" xlink:href="#BitstreamVeraSans-Roman-52"/>
       <use x="198.099609375" xlink:href="#BitstreamVeraSans-Roman-53"/>
       <use x="261.576171875" xlink:href="#BitstreamVeraSans-Roman-45"/>
       <use x="324.759765625" xlink:href="#BitstreamVeraSans-Roman-5f"/>
       <use x="374.759765625" xlink:href="#BitstreamVeraSans-Roman-43"/>
       <use x="444.583984375" xlink:href="#BitstreamVeraSans-Roman-4c"/>
       <use x="500.296875" xlink:href="#BitstreamVeraSans-Roman-49"/>
       <use x="529.7890625" xlink:href="#BitstreamVeraSans-Roman-45"/>
       <use x="592.97265625" xlink:href="#BitstreamVeraSans-Roman-4e"/>
       <use x="667.77734375" xlink:href="#BitstreamVeraSans-Roman-54"/>
       <use x="728.861328125" xlink:href="#BitstreamVeraSans-Roman-5f"/>
       <use x="778.861328125" xlink:href="#BitstreamVeraSans-Roman-48"/>
       <use x="854.056640625" xlink:href="#BitstreamVeraSans-Roman-45"/>
       <use x="917.240234375" xlink:href="#BitstreamVeraSans-Roman-4c"/>
       <use x="972.953125" xlink:href="#BitstreamVeraSans-Roman-4c"/>
       <use x="1028.619140625" xlink:href="#BitstreamVeraSans-Roman-4f"/>
       <use x="1107.330078125" xlink:href="#BitstreamVeraSans-Roman-5f"/>
       <use x="1157.330078125" xlink:href="#BitstreamVeraSans-Roman-53"/>
       <use x="1220.806640625" xlink:href="#BitstreamVeraSans-Roman-54"/>
       <use x="1281.78125" xlink:href="#BitstreamVeraSans-Roman-41"/>
       <use x="1350.189453125" xlink:href="#BitstreamVeraSans-Roman-52"/>
       <use x="1419.5625" xlink:href="#BitstreamVeraSans-Roman-54"/>
      </g>
     </g>
    </g>
    <g id="xtick_9">
     <g id="line2d_17">
      <g>
       <use style="stroke:#000000;stroke-width:0.5;" x="285.369464286" xlink:href="#m5610c8694c" y="400.99145"/>
      </g>
     </g>
     <g id="line2d_18">
      <g>
       <use style="stroke:#000000;stroke-width:0.5;" x="285.369464286" xlink:href="#m0b059e419b" y="55.39145"/>
      </g>
     </g>
     <g id="text_9">
      <!-- WRITE_SERVER_HELLO_DONE_START -->
      <g transform="translate(288.407901786 628.76895)rotate(-90.0)scale(0.12 -0.12)">
       <use xlink:href="#BitstreamVeraSans-Roman-57"/>
       <use x="98.876953125" xlink:href="#BitstreamVeraSans-Roman-52"/>
       <use x="168.359375" xlink:href="#BitstreamVeraSans-Roman-49"/>
       <use x="197.8515625" xlink:href="#BitstreamVeraSans-Roman-54"/>
       <use x="258.935546875" xlink:href="#BitstreamVeraSans-Roman-45"/>
       <use x="322.119140625" xlink:href="#BitstreamVeraSans-Roman-5f"/>
       <use x="372.119140625" xlink:href="#BitstreamVeraSans-Roman-53"/>
       <use x="435.595703125" xlink:href="#BitstreamVeraSans-Roman-45"/>
       <use x="498.779296875" xlink:href="#BitstreamVeraSans-Roman-52"/>
       <use x="568.18359375" xlink:href="#BitstreamVeraSans-Roman-56"/>
       <use x="636.591796875" xlink:href="#BitstreamVeraSans-Roman-45"/>
       <use x="699.775390625" xlink:href="#BitstreamVeraSans-Roman-52"/>
       <use x="769.2578125" xlink:href="#BitstreamVeraSans-Roman-5f"/>
       <use x="819.2578125" xlink:href="#BitstreamVeraSans-Roman-48"/>
       <use x="894.453125" xlink:href="#BitstreamVeraSans-Roman-45"/>
       <use x="957.63671875" xlink:href="#BitstreamVeraSans-Roman-4c"/>
       <use x="1013.349609375" xlink:href="#BitstreamVeraSans-Roman-4c"/>
       <use x="1069.015625" xlink:href="#BitstreamVeraSans-Roman-4f"/>
       <use x="1147.7265625" xlink:href="#BitstreamVeraSans-Roman-5f"/>
       <use x="1197.7265625" xlink:href="#BitstreamVeraSans-Roman-44"/>
       <use x="1274.728515625" xlink:href="#BitstreamVeraSans-Roman-4f"/>
       <use x="1353.439453125" xlink:href="#BitstreamVeraSans-Roman-4e"/>
       <use x="1428.244140625" xlink:href="#BitstreamVeraSans-Roman-45"/>
       <use x="1491.427734375" xlink:href="#BitstreamVeraSans-Roman-5f"/>
       <use x="1541.427734375" xlink:href="#BitstreamVeraSans-Roman-53"/>
       <use x="1604.904296875" xlink:href="#BitstreamVeraSans-Roman-54"/>
       <use x="1665.87890625" xlink:href="#BitstreamVeraSans-Roman-41"/>
       <use x="1734.287109375" xlink:href="#BitstreamVeraSans-Roman-52"/>
       <use x="1803.66015625" xlink:href="#BitstreamVeraSans-Roman-54"/>
      </g>
     </g>
    </g>
    <g id="xtick_10">
     <g id="line2d_19">
      <g>
       <use style="stroke:#000000;stroke-width:0.5;" x="317.255178571" xlink:href="#m5610c8694c" y="400.99145"/>
      </g>
     </g>
     <g id="line2d_20">
      <g>
       <use style="stroke:#000000;stroke-width:0.5;" x="317.255178571" xlink:href="#m0b059e419b" y="55.39145"/>
      </g>
     </g>
     <g id="text_10">
      <!-- PARSE_CHANGE_CIPHER_SPEC_START -->
      <g transform="translate(320.293616071 633.147075)rotate(-90.0)scale(0.12 -0.12)">
       <use xlink:href="#BitstreamVeraSans-Roman-50"/>
       <use x="60.208984375" xlink:href="#BitstreamVeraSans-Roman-41"/>
       <use x="128.6171875" xlink:href="#BitstreamVeraSans-Roman-52"/>
       <use x="198.099609375" xlink:href="#BitstreamVeraSans-Roman-53"/>
       <use x="261.576171875" xlink:href="#BitstreamVeraSans-Roman-45"/>
       <use x="324.759765625" xlink:href="#BitstreamVeraSans-Roman-5f"/>
       <use x="374.759765625" xlink:href="#BitstreamVeraSans-Roman-43"/>
       <use x="444.583984375" xlink:href="#BitstreamVeraSans-Roman-48"/>
       <use x="519.779296875" xlink:href="#BitstreamVeraSans-Roman-41"/>
       <use x="588.1875" xlink:href="#BitstreamVeraSans-Roman-4e"/>
       <use x="662.9921875" xlink:href="#BitstreamVeraSans-Roman-47"/>
       <use x="740.482421875" xlink:href="#BitstreamVeraSans-Roman-45"/>
       <use x="803.666015625" xlink:href="#BitstreamVeraSans-Roman-5f"/>
       <use x="853.666015625" xlink:href="#BitstreamVeraSans-Roman-43"/>
       <use x="923.490234375" xlink:href="#BitstreamVeraSans-Roman-49"/>
       <use x="952.982421875" xlink:href="#BitstreamVeraSans-Roman-50"/>
       <use x="1013.28515625" xlink:href="#BitstreamVeraSans-Roman-48"/>
       <use x="1088.48046875" xlink:href="#BitstreamVeraSans-Roman-45"/>
       <use x="1151.6640625" xlink:href="#BitstreamVeraSans-Roman-52"/>
       <use x="1221.146484375" xlink:href="#BitstreamVeraSans-Roman-5f"/>
       <use x="1271.146484375" xlink:href="#BitstreamVeraSans-Roman-53"/>
       <use x="1334.623046875" xlink:href="#BitstreamVeraSans-Roman-50"/>
       <use x="1394.92578125" xlink:href="#BitstreamVeraSans-Roman-45"/>
       <use x="1458.109375" xlink:href="#BitstreamVeraSans-Roman-43"/>
       <use x="1527.93359375" xlink:href="#BitstreamVeraSans-Roman-5f"/>
       <use x="1577.93359375" xlink:href="#BitstreamVeraSans-Roman-53"/>
       <use x="1641.41015625" xlink:href="#BitstreamVeraSans-Roman-54"/>
       <use x="1702.384765625" xlink:href="#BitstreamVeraSans-Roman-41"/>
       <use x="1770.79296875" xlink:href="#BitstreamVeraSans-Roman-52"/>
       <use x="1840.166015625" xlink:href="#BitstreamVeraSans-Roman-54"/>
      </g>
     </g>
    </g>
    <g id="xtick_11">
     <g id="line2d_21">
      <g>
       <use style="stroke:#000000;stroke-width:0.5;" x="349.140892857" xlink:href="#m5610c8694c" y="400.99145"/>
      </g>
     </g>
     <g id="line2d_22">
      <g>
       <use style="stroke:#000000;stroke-width:0.5;" x="349.140892857" xlink:href="#m0b059e419b" y="55.39145"/>
      </g>
     </g>
     <g id="text_11">
      <!-- WRITE_FINISHED_START -->
      <g transform="translate(352.179330357 550.868325)rotate(-90.0)scale(0.12 -0.12)">
       <use xlink:href="#BitstreamVeraSans-Roman-57"/>
       <use x="98.876953125" xlink:href="#BitstreamVeraSans-Roman-52"/>
       <use x="168.359375" xlink:href="#BitstreamVeraSans-Roman-49"/>
       <use x="197.8515625" xlink:href="#BitstreamVeraSans-Roman-54"/>
       <use x="258.935546875" xlink:href="#BitstreamVeraSans-Roman-45"/>
       <use x="322.119140625" xlink:href="#BitstreamVeraSans-Roman-5f"/>
       <use x="372.119140625" xlink:href="#BitstreamVeraSans-Roman-46"/>
       <use x="429.638671875" xlink:href="#BitstreamVeraSans-Roman-49"/>
       <use x="459.130859375" xlink:href="#BitstreamVeraSans-Roman-4e"/>
       <use x="533.935546875" xlink:href="#BitstreamVeraSans-Roman-49"/>
       <use x="563.427734375" xlink:href="#BitstreamVeraSans-Roman-53"/>
       <use x="626.904296875" xlink:href="#BitstreamVeraSans-Roman-48"/>
       <use x="702.099609375" xlink:href="#BitstreamVeraSans-Roman-45"/>
       <use x="765.283203125" xlink:href="#BitstreamVeraSans-Roman-44"/>
       <use x="842.28515625" xlink:href="#BitstreamVeraSans-Roman-5f"/>
       <use x="892.28515625" xlink:href="#BitstreamVeraSans-Roman-53"/>
       <use x="955.76171875" xlink:href="#BitstreamVeraSans-Roman-54"/>
       <use x="1016.736328125" xlink:href="#BitstreamVeraSans-Roman-41"/>
       <use x="1085.14453125" xlink:href="#BitstreamVeraSans-Roman-52"/>
       <use x="1154.517578125" xlink:href="#BitstreamVeraSans-Roman-54"/>
      </g>
     </g>
    </g>
    <g id="xtick_12">
     <g id="line2d_23">
      <g>
       <use style="stroke:#000000;stroke-width:0.5;" x="381.026607143" xlink:href="#m5610c8694c" y="400.99145"/>
      </g>
     </g>
     <g id="line2d_24">
      <g>
       <use style="stroke:#000000;stroke-width:0.5;" x="381.026607143" xlink:href="#m0b059e419b" y="55.39145"/>
      </g>
     </g>
     <g id="text_12">
      <!-- WRITE_SERVER_KEY_EXCHANGE_START -->
      <g transform="translate(384.065044643 644.14395)rotate(-90.0)scale(0.12 -0.12)">
       <use xlink:href="#BitstreamVeraSans-Roman-57"/>
       <use x="98.876953125" xlink:href="#BitstreamVeraSans-Roman-52"/>
       <use x="168.359375" xlink:href="#BitstreamVeraSans-Roman-49"/>
       <use x="197.8515625" xlink:href="#BitstreamVeraSans-Roman-54"/>
       <use x="258.935546875" xlink:href="#BitstreamVeraSans-Roman-45"/>
       <use x="322.119140625" xlink:href="#BitstreamVeraSans-Roman-5f"/>
       <use x="372.119140625" xlink:href="#BitstreamVeraSans-Roman-53"/>
       <use x="435.595703125" xlink:href="#BitstreamVeraSans-Roman-45"/>
       <use x="498.779296875" xlink:href="#BitstreamVeraSans-Roman-52"/>
       <use x="568.18359375" xlink:href="#BitstreamVeraSans-Roman-56"/>
       <use x="636.591796875" xlink:href="#BitstreamVeraSans-Roman-45"/>
       <use x="699.775390625" xlink:href="#BitstreamVeraSans-Roman-52"/>
       <use x="769.2578125" xlink:href="#BitstreamVeraSans-Roman-5f"/>
       <use x="819.2578125" xlink:href="#BitstreamVeraSans-Roman-4b"/>
       <use x="884.833984375" xlink:href="#BitstreamVeraSans-Roman-45"/>
       <use x="948.017578125" xlink:href="#BitstreamVeraSans-Roman-59"/>
       <use x="1009.1015625" xlink:href="#BitstreamVeraSans-Roman-5f"/>
       <use x="1059.1015625" xlink:href="#BitstreamVeraSans-Roman-45"/>
       <use x="1122.28515625" xlink:href="#BitstreamVeraSans-Roman-58"/>
       <use x="1190.681640625" xlink:href="#BitstreamVeraSans-Roman-43"/>
       <use x="1260.505859375" xlink:href="#BitstreamVeraSans-Roman-48"/>
       <use x="1335.701171875" xlink:href="#BitstreamVeraSans-Roman-41"/>
       <use x="1404.109375" xlink:href="#BitstreamVeraSans-Roman-4e"/>
       <use x="1478.9140625" xlink:href="#BitstreamVeraSans-Roman-47"/>
       <use x="1556.404296875" xlink:href="#BitstreamVeraSans-Roman-45"/>
       <use x="1619.587890625" xlink:href="#BitstreamVeraSans-Roman-5f"/>
       <use x="1669.587890625" xlink:href="#BitstreamVeraSans-Roman-53"/>
       <use x="1733.064453125" xlink:href="#BitstreamVeraSans-Roman-54"/>
       <use x="1794.0390625" xlink:href="#BitstreamVeraSans-Roman-41"/>
       <use x="1862.447265625" xlink:href="#BitstreamVeraSans-Roman-52"/>
       <use x="1931.8203125" xlink:href="#BitstreamVeraSans-Roman-54"/>
      </g>
     </g>
    </g>
    <g id="xtick_13">
     <g id="line2d_25">
      <g>
       <use style="stroke:#000000;stroke-width:0.5;" x="412.912321429" xlink:href="#m5610c8694c" y="400.99145"/>
      </g>
     </g>
     <g id="line2d_26">
      <g>
       <use style="stroke:#000000;stroke-width:0.5;" x="412.912321429" xlink:href="#m0b059e419b" y="55.39145"/>
      </g>
     </g>
     <g id="text_13">
      <!-- PARSE_CLIENT_CERTIFICATE_START -->
      <g transform="translate(415.950758929 620.340825)rotate(-90.0)scale(0.12 -0.12)">
       <use xlink:href="#BitstreamVeraSans-Roman-50"/>
       <use x="60.208984375" xlink:href="#BitstreamVeraSans-Roman-41"/>
       <use x="128.6171875" xlink:href="#BitstreamVeraSans-Roman-52"/>
       <use x="198.099609375" xlink:href="#BitstreamVeraSans-Roman-53"/>
       <use x="261.576171875" xlink:href="#BitstreamVeraSans-Roman-45"/>
       <use x="324.759765625" xlink:href="#BitstreamVeraSans-Roman-5f"/>
       <use x="374.759765625" xlink:href="#BitstreamVeraSans-Roman-43"/>
       <use x="444.583984375" xlink:href="#BitstreamVeraSans-Roman-4c"/>
       <use x="500.296875" xlink:href="#BitstreamVeraSans-Roman-49"/>
       <use x="529.7890625" xlink:href="#BitstreamVeraSans-Roman-45"/>
       <use x="592.97265625" xlink:href="#BitstreamVeraSans-Roman-4e"/>
       <use x="667.77734375" xlink:href="#BitstreamVeraSans-Roman-54"/>
       <use x="728.861328125" xlink:href="#BitstreamVeraSans-Roman-5f"/>
       <use x="778.861328125" xlink:href="#BitstreamVeraSans-Roman-43"/>
       <use x="848.685546875" xlink:href="#BitstreamVeraSans-Roman-45"/>
       <use x="911.869140625" xlink:href="#BitstreamVeraSans-Roman-52"/>
       <use x="981.2421875" xlink:href="#BitstreamVeraSans-Roman-54"/>
       <use x="1042.326171875" xlink:href="#BitstreamVeraSans-Roman-49"/>
       <use x="1071.818359375" xlink:href="#BitstreamVeraSans-Roman-46"/>
       <use x="1129.337890625" xlink:href="#BitstreamVeraSans-Roman-49"/>
       <use x="1158.830078125" xlink:href="#BitstreamVeraSans-Roman-43"/>
       <use x="1228.654296875" xlink:href="#BitstreamVeraSans-Roman-41"/>
       <use x="1296.953125" xlink:href="#BitstreamVeraSans-Roman-54"/>
       <use x="1358.037109375" xlink:href="#BitstreamVeraSans-Roman-45"/>
       <use x="1421.220703125" xlink:href="#BitstreamVeraSans-Roman-5f"/>
       <use x="1471.220703125" xlink:href="#BitstreamVeraSans-Roman-53"/>
       <use x="1534.697265625" xlink:href="#BitstreamVeraSans-Roman-54"/>
       <use x="1595.671875" xlink:href="#BitstreamVeraSans-Roman-41"/>
       <use x="1664.080078125" xlink:href="#BitstreamVeraSans-Roman-52"/>
       <use x="1733.453125" xlink:href="#BitstreamVeraSans-Roman-54"/>
      </g>
     </g>
    </g>
   </g>
   <g id="matplotlib.axis_2">
    <g id="ytick_1">
     <g id="line2d_27">
      <defs>
       <path d="M 0 0 
L 4 0 
" id="mb52a558b34" style="stroke:#000000;stroke-width:0.5;"/>
      </defs>
      <g>
       <use style="stroke:#000000;stroke-width:0.5;" x="30.28375" xlink:href="#mb52a558b34" y="400.99145"/>
      </g>
     </g>
     <g id="line2d_28">
      <defs>
       <path d="M 0 0 
L -4 0 
" id="maad1fdaa23" style="stroke:#000000;stroke-width:0.5;"/>
      </defs>
      <g>
       <use style="stroke:#000000;stroke-width:0.5;" x="476.68375" xlink:href="#maad1fdaa23" y="400.99145"/>
      </g>
     </g>
     <g id="text_14">
      <!-- 0.0 -->
      <defs>
       <path d="M 31.78125 66.40625 
Q 24.171875 66.40625 20.328125 58.90625 
Q 16.5 51.421875 16.5 36.375 
Q 16.5 21.390625 20.328125 13.890625 
Q 24.171875 6.390625 31.78125 6.390625 
Q 39.453125 6.390625 43.28125 13.890625 
Q 47.125 21.390625 47.125 36.375 
Q 47.125 51.421875 43.28125 58.90625 
Q 39.453125 66.40625 31.78125 66.40625 
M 31.78125 74.21875 
Q 44.046875 74.21875 50.515625 64.515625 
Q 56.984375 54.828125 56.984375 36.375 
Q 56.984375 17.96875 50.515625 8.265625 
Q 44.046875 -1.421875 31.78125 -1.421875 
Q 19.53125 -1.421875 13.0625 8.265625 
Q 6.59375 17.96875 6.59375 36.375 
Q 6.59375 54.828125 13.0625 64.515625 
Q 19.53125 74.21875 31.78125 74.21875 
" id="BitstreamVeraSans-Roman-30"/>
       <path d="M 10.6875 12.40625 
L 21 12.40625 
L 21 0 
L 10.6875 0 
z
" id="BitstreamVeraSans-Roman-2e"/>
      </defs>
      <g transform="translate(7.2 404.3027)scale(0.12 -0.12)">
       <use xlink:href="#BitstreamVeraSans-Roman-30"/>
       <use x="63.623046875" xlink:href="#BitstreamVeraSans-Roman-2e"/>
       <use x="95.41015625" xlink:href="#BitstreamVeraSans-Roman-30"/>
      </g>
     </g>
    </g>
    <g id="ytick_2">
     <g id="line2d_29">
      <g>
       <use style="stroke:#000000;stroke-width:0.5;" x="30.28375" xlink:href="#mb52a558b34" y="331.87145"/>
      </g>
     </g>
     <g id="line2d_30">
      <g>
       <use style="stroke:#000000;stroke-width:0.5;" x="476.68375" xlink:href="#maad1fdaa23" y="331.87145"/>
      </g>
     </g>
     <g id="text_15">
      <!-- 0.2 -->
      <defs>
       <path d="M 19.1875 8.296875 
L 53.609375 8.296875 
L 53.609375 0 
L 7.328125 0 
L 7.328125 8.296875 
Q 12.9375 14.109375 22.625 23.890625 
Q 32.328125 33.6875 34.8125 36.53125 
Q 39.546875 41.84375 41.421875 45.53125 
Q 43.3125 49.21875 43.3125 52.78125 
Q 43.3125 58.59375 39.234375 62.25 
Q 35.15625 65.921875 28.609375 65.921875 
Q 23.96875 65.921875 18.8125 64.3125 
Q 13.671875 62.703125 7.8125 59.421875 
L 7.8125 69.390625 
Q 13.765625 71.78125 18.9375 73 
Q 24.125 74.21875 28.421875 74.21875 
Q 39.75 74.21875 46.484375 68.546875 
Q 53.21875 62.890625 53.21875 53.421875 
Q 53.21875 48.921875 51.53125 44.890625 
Q 49.859375 40.875 45.40625 35.40625 
Q 44.1875 33.984375 37.640625 27.21875 
Q 31.109375 20.453125 19.1875 8.296875 
" id="BitstreamVeraSans-Roman-32"/>
      </defs>
      <g transform="translate(7.2 335.1827)scale(0.12 -0.12)">
       <use xlink:href="#BitstreamVeraSans-Roman-30"/>
       <use x="63.623046875" xlink:href="#BitstreamVeraSans-Roman-2e"/>
       <use x="95.41015625" xlink:href="#BitstreamVeraSans-Roman-32"/>
      </g>
     </g>
    </g>
    <g id="ytick_3">
     <g id="line2d_31">
      <g>
       <use style="stroke:#000000;stroke-width:0.5;" x="30.28375" xlink:href="#mb52a558b34" y="262.75145"/>
      </g>
     </g>
     <g id="line2d_32">
      <g>
       <use style="stroke:#000000;stroke-width:0.5;" x="476.68375" xlink:href="#maad1fdaa23" y="262.75145"/>
      </g>
     </g>
     <g id="text_16">
      <!-- 0.4 -->
      <defs>
       <path d="M 37.796875 64.3125 
L 12.890625 25.390625 
L 37.796875 25.390625 
z
M 35.203125 72.90625 
L 47.609375 72.90625 
L 47.609375 25.390625 
L 58.015625 25.390625 
L 58.015625 17.1875 
L 47.609375 17.1875 
L 47.609375 0 
L 37.796875 0 
L 37.796875 17.1875 
L 4.890625 17.1875 
L 4.890625 26.703125 
z
" id="BitstreamVeraSans-Roman-34"/>
      </defs>
      <g transform="translate(7.2 266.0627)scale(0.12 -0.12)">
       <use xlink:href="#BitstreamVeraSans-Roman-30"/>
       <use x="63.623046875" xlink:href="#BitstreamVeraSans-Roman-2e"/>
       <use x="95.41015625" xlink:href="#BitstreamVeraSans-Roman-34"/>
      </g>
     </g>
    </g>
    <g id="ytick_4">
     <g id="line2d_33">
      <g>
       <use style="stroke:#000000;stroke-width:0.5;" x="30.28375" xlink:href="#mb52a558b34" y="193.63145"/>
      </g>
     </g>
     <g id="line2d_34">
      <g>
       <use style="stroke:#000000;stroke-width:0.5;" x="476.68375" xlink:href="#maad1fdaa23" y="193.63145"/>
      </g>
     </g>
     <g id="text_17">
      <!-- 0.6 -->
      <defs>
       <path d="M 33.015625 40.375 
Q 26.375 40.375 22.484375 35.828125 
Q 18.609375 31.296875 18.609375 23.390625 
Q 18.609375 15.53125 22.484375 10.953125 
Q 26.375 6.390625 33.015625 6.390625 
Q 39.65625 6.390625 43.53125 10.953125 
Q 47.40625 15.53125 47.40625 23.390625 
Q 47.40625 31.296875 43.53125 35.828125 
Q 39.65625 40.375 33.015625 40.375 
M 52.59375 71.296875 
L 52.59375 62.3125 
Q 48.875 64.0625 45.09375 64.984375 
Q 41.3125 65.921875 37.59375 65.921875 
Q 27.828125 65.921875 22.671875 59.328125 
Q 17.53125 52.734375 16.796875 39.40625 
Q 19.671875 43.65625 24.015625 45.921875 
Q 28.375 48.1875 33.59375 48.1875 
Q 44.578125 48.1875 50.953125 41.515625 
Q 57.328125 34.859375 57.328125 23.390625 
Q 57.328125 12.15625 50.6875 5.359375 
Q 44.046875 -1.421875 33.015625 -1.421875 
Q 20.359375 -1.421875 13.671875 8.265625 
Q 6.984375 17.96875 6.984375 36.375 
Q 6.984375 53.65625 15.1875 63.9375 
Q 23.390625 74.21875 37.203125 74.21875 
Q 40.921875 74.21875 44.703125 73.484375 
Q 48.484375 72.75 52.59375 71.296875 
" id="BitstreamVeraSans-Roman-36"/>
      </defs>
      <g transform="translate(7.2 196.9427)scale(0.12 -0.12)">
       <use xlink:href="#BitstreamVeraSans-Roman-30"/>
       <use x="63.623046875" xlink:href="#BitstreamVeraSans-Roman-2e"/>
       <use x="95.41015625" xlink:href="#BitstreamVeraSans-Roman-36"/>
      </g>
     </g>
    </g>
    <g id="ytick_5">
     <g id="line2d_35">
      <g>
       <use style="stroke:#000000;stroke-width:0.5;" x="30.28375" xlink:href="#mb52a558b34" y="124.51145"/>
      </g>
     </g>
     <g id="line2d_36">
      <g>
       <use style="stroke:#000000;stroke-width:0.5;" x="476.68375" xlink:href="#maad1fdaa23" y="124.51145"/>
      </g>
     </g>
     <g id="text_18">
      <!-- 0.8 -->
      <defs>
       <path d="M 31.78125 34.625 
Q 24.75 34.625 20.71875 30.859375 
Q 16.703125 27.09375 16.703125 20.515625 
Q 16.703125 13.921875 20.71875 10.15625 
Q 24.75 6.390625 31.78125 6.390625 
Q 38.8125 6.390625 42.859375 10.171875 
Q 46.921875 13.96875 46.921875 20.515625 
Q 46.921875 27.09375 42.890625 30.859375 
Q 38.875 34.625 31.78125 34.625 
M 21.921875 38.8125 
Q 15.578125 40.375 12.03125 44.71875 
Q 8.5 49.078125 8.5 55.328125 
Q 8.5 64.0625 14.71875 69.140625 
Q 20.953125 74.21875 31.78125 74.21875 
Q 42.671875 74.21875 48.875 69.140625 
Q 55.078125 64.0625 55.078125 55.328125 
Q 55.078125 49.078125 51.53125 44.71875 
Q 48 40.375 41.703125 38.8125 
Q 48.828125 37.15625 52.796875 32.3125 
Q 56.78125 27.484375 56.78125 20.515625 
Q 56.78125 9.90625 50.3125 4.234375 
Q 43.84375 -1.421875 31.78125 -1.421875 
Q 19.734375 -1.421875 13.25 4.234375 
Q 6.78125 9.90625 6.78125 20.515625 
Q 6.78125 27.484375 10.78125 32.3125 
Q 14.796875 37.15625 21.921875 38.8125 
M 18.3125 54.390625 
Q 18.3125 48.734375 21.84375 45.5625 
Q 25.390625 42.390625 31.78125 42.390625 
Q 38.140625 42.390625 41.71875 45.5625 
Q 45.3125 48.734375 45.3125 54.390625 
Q 45.3125 60.0625 41.71875 63.234375 
Q 38.140625 66.40625 31.78125 66.40625 
Q 25.390625 66.40625 21.84375 63.234375 
Q 18.3125 60.0625 18.3125 54.390625 
" id="BitstreamVeraSans-Roman-38"/>
      </defs>
      <g transform="translate(7.2 127.8227)scale(0.12 -0.12)">
       <use xlink:href="#BitstreamVeraSans-Roman-30"/>
       <use x="63.623046875" xlink:href="#BitstreamVeraSans-Roman-2e"/>
       <use x="95.41015625" xlink:href="#BitstreamVeraSans-Roman-38"/>
      </g>
     </g>
    </g>
    <g id="ytick_6">
     <g id="line2d_37">
      <g>
       <use style="stroke:#000000;stroke-width:0.5;" x="30.28375" xlink:href="#mb52a558b34" y="55.39145"/>
      </g>
     </g>
     <g id="line2d_38">
      <g>
       <use style="stroke:#000000;stroke-width:0.5;" x="476.68375" xlink:href="#maad1fdaa23" y="55.39145"/>
      </g>
     </g>
     <g id="text_19">
      <!-- 1.0 -->
      <defs>
       <path d="M 12.40625 8.296875 
L 28.515625 8.296875 
L 28.515625 63.921875 
L 10.984375 60.40625 
L 10.984375 69.390625 
L 28.421875 72.90625 
L 38.28125 72.90625 
L 38.28125 8.296875 
L 54.390625 8.296875 
L 54.390625 0 
L 12.40625 0 
z
" id="BitstreamVeraSans-Roman-31"/>
      </defs>
      <g transform="translate(7.2 58.7027)scale(0.12 -0.12)">
       <use xlink:href="#BitstreamVeraSans-Roman-31"/>
       <use x="63.623046875" xlink:href="#BitstreamVeraSans-Roman-2e"/>
       <use x="95.41015625" xlink:href="#BitstreamVeraSans-Roman-30"/>
      </g>
     </g>
    </g>
   </g>
   <g id="text_20">
    <!-- 0.28 -->
    <g transform="translate(46.3492857143 301.035970291)rotate(-90.0)scale(0.12 -0.12)">
     <use xlink:href="#BitstreamVeraSans-Roman-30"/>
     <use x="63.623046875" xlink:href="#BitstreamVeraSans-Roman-2e"/>
     <use x="95.41015625" xlink:href="#BitstreamVeraSans-Roman-32"/>
     <use x="159.033203125" xlink:href="#BitstreamVeraSans-Roman-38"/>
    </g>
   </g>
   <g id="text_21">
    <!-- 0.24 -->
    <g transform="translate(78.235 313.699275751)rotate(-90.0)scale(0.12 -0.12)">
     <use xlink:href="#BitstreamVeraSans-Roman-30"/>
     <use x="63.623046875" xlink:href="#BitstreamVeraSans-Roman-2e"/>
     <use x="95.41015625" xlink:href="#BitstreamVeraSans-Roman-32"/>
     <use x="159.033203125" xlink:href="#BitstreamVeraSans-Roman-34"/>
    </g>
   </g>
   <g id="text_22">
    <!-- 0.14 -->
    <g transform="translate(110.120714286 348.501155615)rotate(-90.0)scale(0.12 -0.12)">
     <use xlink:href="#BitstreamVeraSans-Roman-30"/>
     <use x="63.623046875" xlink:href="#BitstreamVeraSans-Roman-2e"/>
     <use x="95.41015625" xlink:href="#BitstreamVeraSans-Roman-31"/>
     <use x="159.033203125" xlink:href="#BitstreamVeraSans-Roman-34"/>
    </g>
   </g>
   <g id="text_23">
    <!-- 0.54 -->
    <defs>
     <path d="M 10.796875 72.90625 
L 49.515625 72.90625 
L 49.515625 64.59375 
L 19.828125 64.59375 
L 19.828125 46.734375 
Q 21.96875 47.46875 24.109375 47.828125 
Q 26.265625 48.1875 28.421875 48.1875 
Q 40.625 48.1875 47.75 41.5 
Q 54.890625 34.8125 54.890625 23.390625 
Q 54.890625 11.625 47.5625 5.09375 
Q 40.234375 -1.421875 26.90625 -1.421875 
Q 22.3125 -1.421875 17.546875 -0.640625 
Q 12.796875 0.140625 7.71875 1.703125 
L 7.71875 11.625 
Q 12.109375 9.234375 16.796875 8.0625 
Q 21.484375 6.890625 26.703125 6.890625 
Q 35.15625 6.890625 40.078125 11.328125 
Q 45.015625 15.765625 45.015625 23.390625 
Q 45.015625 31 40.078125 35.4375 
Q 35.15625 39.890625 26.703125 39.890625 
Q 22.75 39.890625 18.8125 39.015625 
Q 14.890625 38.140625 10.796875 36.28125 
z
" id="BitstreamVeraSans-Roman-35"/>
    </defs>
    <g transform="translate(142.006428571 210.15489976)rotate(-90.0)scale(0.12 -0.12)">
     <use xlink:href="#BitstreamVeraSans-Roman-30"/>
     <use x="63.623046875" xlink:href="#BitstreamVeraSans-Roman-2e"/>
     <use x="95.41015625" xlink:href="#BitstreamVeraSans-Roman-35"/>
     <use x="159.033203125" xlink:href="#BitstreamVeraSans-Roman-34"/>
    </g>
   </g>
   <g id="text_24">
    <!-- 0.98 -->
    <defs>
     <path d="M 10.984375 1.515625 
L 10.984375 10.5 
Q 14.703125 8.734375 18.5 7.8125 
Q 22.3125 6.890625 25.984375 6.890625 
Q 35.75 6.890625 40.890625 13.453125 
Q 46.046875 20.015625 46.78125 33.40625 
Q 43.953125 29.203125 39.59375 26.953125 
Q 35.25 24.703125 29.984375 24.703125 
Q 19.046875 24.703125 12.671875 31.3125 
Q 6.296875 37.9375 6.296875 49.421875 
Q 6.296875 60.640625 12.9375 67.421875 
Q 19.578125 74.21875 30.609375 74.21875 
Q 43.265625 74.21875 49.921875 64.515625 
Q 56.59375 54.828125 56.59375 36.375 
Q 56.59375 19.140625 48.40625 8.859375 
Q 40.234375 -1.421875 26.421875 -1.421875 
Q 22.703125 -1.421875 18.890625 -0.6875 
Q 15.09375 0.046875 10.984375 1.515625 
M 30.609375 32.421875 
Q 37.25 32.421875 41.125 36.953125 
Q 45.015625 41.5 45.015625 49.421875 
Q 45.015625 57.28125 41.125 61.84375 
Q 37.25 66.40625 30.609375 66.40625 
Q 23.96875 66.40625 20.09375 61.84375 
Q 16.21875 57.28125 16.21875 49.421875 
Q 16.21875 41.5 20.09375 36.953125 
Q 23.96875 32.421875 30.609375 32.421875 
" id="BitstreamVeraSans-Roman-39"/>
    </defs>
    <g transform="translate(173.892142857 80.4102986639)rotate(-90.0)scale(0.12 -0.12)">
     <use xlink:href="#BitstreamVeraSans-Roman-30"/>
     <use x="63.623046875" xlink:href="#BitstreamVeraSans-Roman-2e"/>
     <use x="95.41015625" xlink:href="#BitstreamVeraSans-Roman-39"/>
     <use x="159.033203125" xlink:href="#BitstreamVeraSans-Roman-38"/>
    </g>
   </g>
   <g id="text_25">
    <!-- 0.28 -->
    <g transform="translate(205.777857143 302.074272844)rotate(-90.0)scale(0.12 -0.12)">
     <use xlink:href="#BitstreamVeraSans-Roman-30"/>
     <use x="63.623046875" xlink:href="#BitstreamVeraSans-Roman-2e"/>
     <use x="95.41015625" xlink:href="#BitstreamVeraSans-Roman-32"/>
     <use x="159.033203125" xlink:href="#BitstreamVeraSans-Roman-38"/>
    </g>
   </g>
   <g id="text_26">
    <!-- 0.20 -->
    <g transform="translate(237.663571429 329.789995455)rotate(-90.0)scale(0.12 -0.12)">
     <use xlink:href="#BitstreamVeraSans-Roman-30"/>
     <use x="63.623046875" xlink:href="#BitstreamVeraSans-Roman-2e"/>
     <use x="95.41015625" xlink:href="#BitstreamVeraSans-Roman-32"/>
     <use x="159.033203125" xlink:href="#BitstreamVeraSans-Roman-30"/>
    </g>
   </g>
   <g id="text_27">
    <!-- 0.12 -->
    <g transform="translate(269.549285714 356.189127236)rotate(-90.0)scale(0.12 -0.12)">
     <use xlink:href="#BitstreamVeraSans-Roman-30"/>
     <use x="63.623046875" xlink:href="#BitstreamVeraSans-Roman-2e"/>
     <use x="95.41015625" xlink:href="#BitstreamVeraSans-Roman-31"/>
     <use x="159.033203125" xlink:href="#BitstreamVeraSans-Roman-32"/>
    </g>
   </g>
   <g id="text_28">
    <!-- 0.16 -->
    <g transform="translate(301.435 340.540620582)rotate(-90.0)scale(0.12 -0.12)">
     <use xlink:href="#BitstreamVeraSans-Roman-30"/>
     <use x="63.623046875" xlink:href="#BitstreamVeraSans-Roman-2e"/>
     <use x="95.41015625" xlink:href="#BitstreamVeraSans-Roman-31"/>
     <use x="159.033203125" xlink:href="#BitstreamVeraSans-Roman-36"/>
    </g>
   </g>
   <g id="text_29">
    <!-- 0.19 -->
    <g transform="translate(333.320714286 332.361123054)rotate(-90.0)scale(0.12 -0.12)">
     <use xlink:href="#BitstreamVeraSans-Roman-30"/>
     <use x="63.623046875" xlink:href="#BitstreamVeraSans-Roman-2e"/>
     <use x="95.41015625" xlink:href="#BitstreamVeraSans-Roman-31"/>
     <use x="159.033203125" xlink:href="#BitstreamVeraSans-Roman-39"/>
    </g>
   </g>
   <g id="text_30">
    <!-- 0.36 -->
    <defs>
     <path d="M 40.578125 39.3125 
Q 47.65625 37.796875 51.625 33 
Q 55.609375 28.21875 55.609375 21.1875 
Q 55.609375 10.40625 48.1875 4.484375 
Q 40.765625 -1.421875 27.09375 -1.421875 
Q 22.515625 -1.421875 17.65625 -0.515625 
Q 12.796875 0.390625 7.625 2.203125 
L 7.625 11.71875 
Q 11.71875 9.328125 16.59375 8.109375 
Q 21.484375 6.890625 26.8125 6.890625 
Q 36.078125 6.890625 40.9375 10.546875 
Q 45.796875 14.203125 45.796875 21.1875 
Q 45.796875 27.640625 41.28125 31.265625 
Q 36.765625 34.90625 28.71875 34.90625 
L 20.21875 34.90625 
L 20.21875 43.015625 
L 29.109375 43.015625 
Q 36.375 43.015625 40.234375 45.921875 
Q 44.09375 48.828125 44.09375 54.296875 
Q 44.09375 59.90625 40.109375 62.90625 
Q 36.140625 65.921875 28.71875 65.921875 
Q 24.65625 65.921875 20.015625 65.03125 
Q 15.375 64.15625 9.8125 62.3125 
L 9.8125 71.09375 
Q 15.4375 72.65625 20.34375 73.4375 
Q 25.25 74.21875 29.59375 74.21875 
Q 40.828125 74.21875 47.359375 69.109375 
Q 53.90625 64.015625 53.90625 55.328125 
Q 53.90625 49.265625 50.4375 45.09375 
Q 46.96875 40.921875 40.578125 39.3125 
" id="BitstreamVeraSans-Roman-33"/>
    </defs>
    <g transform="translate(365.206428571 274.790895579)rotate(-90.0)scale(0.12 -0.12)">
     <use xlink:href="#BitstreamVeraSans-Roman-30"/>
     <use x="63.623046875" xlink:href="#BitstreamVeraSans-Roman-2e"/>
     <use x="95.41015625" xlink:href="#BitstreamVeraSans-Roman-33"/>
     <use x="159.033203125" xlink:href="#BitstreamVeraSans-Roman-36"/>
    </g>
   </g>
   <g id="text_31">
    <!-- 1.00 -->
    <g transform="translate(397.092142857 72.6803371949)rotate(-90.0)scale(0.12 -0.12)">
     <use xlink:href="#BitstreamVeraSans-Roman-31"/>
     <use x="63.623046875" xlink:href="#BitstreamVeraSans-Roman-2e"/>
     <use x="95.41015625" xlink:href="#BitstreamVeraSans-Roman-30"/>
     <use x="159.033203125" xlink:href="#BitstreamVeraSans-Roman-30"/>
    </g>
   </g>
   <g id="text_32">
    <!-- 0.14 -->
    <g transform="translate(428.977857143 349.895744633)rotate(-90.0)scale(0.12 -0.12)">
     <use xlink:href="#BitstreamVeraSans-Roman-30"/>
     <use x="63.623046875" xlink:href="#BitstreamVeraSans-Roman-2e"/>
     <use x="95.41015625" xlink:href="#BitstreamVeraSans-Roman-31"/>
     <use x="159.033203125" xlink:href="#BitstreamVeraSans-Roman-34"/>
    </g>
   </g>
   <g id="text_33">
    <!-- Quartile of the median over all protocol steps -->
    <defs>
     <path d="M 8.5 21.578125 
L 8.5 54.6875 
L 17.484375 54.6875 
L 17.484375 21.921875 
Q 17.484375 14.15625 20.5 10.265625 
Q 23.53125 6.390625 29.59375 6.390625 
Q 36.859375 6.390625 41.078125 11.03125 
Q 45.3125 15.671875 45.3125 23.6875 
L 45.3125 54.6875 
L 54.296875 54.6875 
L 54.296875 0 
L 45.3125 0 
L 45.3125 8.40625 
Q 42.046875 3.421875 37.71875 1 
Q 33.40625 -1.421875 27.6875 -1.421875 
Q 18.265625 -1.421875 13.375 4.4375 
Q 8.5 10.296875 8.5 21.578125 
" id="BitstreamVeraSans-Roman-75"/>
     <path d="M 34.28125 27.484375 
Q 23.390625 27.484375 19.1875 25 
Q 14.984375 22.515625 14.984375 16.5 
Q 14.984375 11.71875 18.140625 8.90625 
Q 21.296875 6.109375 26.703125 6.109375 
Q 34.1875 6.109375 38.703125 11.40625 
Q 43.21875 16.703125 43.21875 25.484375 
L 43.21875 27.484375 
z
M 52.203125 31.203125 
L 52.203125 0 
L 43.21875 0 
L 43.21875 8.296875 
Q 40.140625 3.328125 35.546875 0.953125 
Q 30.953125 -1.421875 24.3125 -1.421875 
Q 15.921875 -1.421875 10.953125 3.296875 
Q 6 8.015625 6 15.921875 
Q 6 25.140625 12.171875 29.828125 
Q 18.359375 34.515625 30.609375 34.515625 
L 43.21875 34.515625 
L 43.21875 35.40625 
Q 43.21875 41.609375 39.140625 45 
Q 35.0625 48.390625 27.6875 48.390625 
Q 23 48.390625 18.546875 47.265625 
Q 14.109375 46.140625 10.015625 43.890625 
L 10.015625 52.203125 
Q 14.9375 54.109375 19.578125 55.046875 
Q 24.21875 56 28.609375 56 
Q 40.484375 56 46.34375 49.84375 
Q 52.203125 43.703125 52.203125 31.203125 
" id="BitstreamVeraSans-Roman-61"/>
     <path id="BitstreamVeraSans-Roman-20"/>
     <path d="M 37.109375 75.984375 
L 37.109375 68.5 
L 28.515625 68.5 
Q 23.6875 68.5 21.796875 66.546875 
Q 19.921875 64.59375 19.921875 59.515625 
L 19.921875 54.6875 
L 34.71875 54.6875 
L 34.71875 47.703125 
L 19.921875 47.703125 
L 19.921875 0 
L 10.890625 0 
L 10.890625 47.703125 
L 2.296875 47.703125 
L 2.296875 54.6875 
L 10.890625 54.6875 
L 10.890625 58.5 
Q 10.890625 67.625 15.140625 71.796875 
Q 19.390625 75.984375 28.609375 75.984375 
z
" id="BitstreamVeraSans-Roman-66"/>
     <path d="M 54.890625 33.015625 
L 54.890625 0 
L 45.90625 0 
L 45.90625 32.71875 
Q 45.90625 40.484375 42.875 44.328125 
Q 39.84375 48.1875 33.796875 48.1875 
Q 26.515625 48.1875 22.3125 43.546875 
Q 18.109375 38.921875 18.109375 30.90625 
L 18.109375 0 
L 9.078125 0 
L 9.078125 75.984375 
L 18.109375 75.984375 
L 18.109375 46.1875 
Q 21.34375 51.125 25.703125 53.5625 
Q 30.078125 56 35.796875 56 
Q 45.21875 56 50.046875 50.171875 
Q 54.890625 44.34375 54.890625 33.015625 
" id="BitstreamVeraSans-Roman-68"/>
     <path d="M 45.40625 46.390625 
L 45.40625 75.984375 
L 54.390625 75.984375 
L 54.390625 0 
L 45.40625 0 
L 45.40625 8.203125 
Q 42.578125 3.328125 38.25 0.953125 
Q 33.9375 -1.421875 27.875 -1.421875 
Q 17.96875 -1.421875 11.734375 6.484375 
Q 5.515625 14.40625 5.515625 27.296875 
Q 5.515625 40.1875 11.734375 48.09375 
Q 17.96875 56 27.875 56 
Q 33.9375 56 38.25 53.625 
Q 42.578125 51.265625 45.40625 46.390625 
M 14.796875 27.296875 
Q 14.796875 17.390625 18.875 11.75 
Q 22.953125 6.109375 30.078125 6.109375 
Q 37.203125 6.109375 41.296875 11.75 
Q 45.40625 17.390625 45.40625 27.296875 
Q 45.40625 37.203125 41.296875 42.84375 
Q 37.203125 48.484375 30.078125 48.484375 
Q 22.953125 48.484375 18.875 42.84375 
Q 14.796875 37.203125 14.796875 27.296875 
" id="BitstreamVeraSans-Roman-64"/>
     <path d="M 48.78125 52.59375 
L 48.78125 44.1875 
Q 44.96875 46.296875 41.140625 47.34375 
Q 37.3125 48.390625 33.40625 48.390625 
Q 24.65625 48.390625 19.8125 42.84375 
Q 14.984375 37.3125 14.984375 27.296875 
Q 14.984375 17.28125 19.8125 11.734375 
Q 24.65625 6.203125 33.40625 6.203125 
Q 37.3125 6.203125 41.140625 7.25 
Q 44.96875 8.296875 48.78125 10.40625 
L 48.78125 2.09375 
Q 45.015625 0.34375 40.984375 -0.53125 
Q 36.96875 -1.421875 32.421875 -1.421875 
Q 20.0625 -1.421875 12.78125 6.34375 
Q 5.515625 14.109375 5.515625 27.296875 
Q 5.515625 40.671875 12.859375 48.328125 
Q 20.21875 56 33.015625 56 
Q 37.15625 56 41.109375 55.140625 
Q 45.0625 54.296875 48.78125 52.59375 
" id="BitstreamVeraSans-Roman-63"/>
     <path d="M 44.28125 53.078125 
L 44.28125 44.578125 
Q 40.484375 46.53125 36.375 47.5 
Q 32.28125 48.484375 27.875 48.484375 
Q 21.1875 48.484375 17.84375 46.4375 
Q 14.5 44.390625 14.5 40.28125 
Q 14.5 37.15625 16.890625 35.375 
Q 19.28125 33.59375 26.515625 31.984375 
L 29.59375 31.296875 
Q 39.15625 29.25 43.1875 25.515625 
Q 47.21875 21.78125 47.21875 15.09375 
Q 47.21875 7.46875 41.1875 3.015625 
Q 35.15625 -1.421875 24.609375 -1.421875 
Q 20.21875 -1.421875 15.453125 -0.5625 
Q 10.6875 0.296875 5.421875 2 
L 5.421875 11.28125 
Q 10.40625 8.6875 15.234375 7.390625 
Q 20.0625 6.109375 24.8125 6.109375 
Q 31.15625 6.109375 34.5625 8.28125 
Q 37.984375 10.453125 37.984375 14.40625 
Q 37.984375 18.0625 35.515625 20.015625 
Q 33.0625 21.96875 24.703125 23.78125 
L 21.578125 24.515625 
Q 13.234375 26.265625 9.515625 29.90625 
Q 5.8125 33.546875 5.8125 39.890625 
Q 5.8125 47.609375 11.28125 51.796875 
Q 16.75 56 26.8125 56 
Q 31.78125 56 36.171875 55.265625 
Q 40.578125 54.546875 44.28125 53.078125 
" id="BitstreamVeraSans-Roman-73"/>
     <path d="M 54.890625 33.015625 
L 54.890625 0 
L 45.90625 0 
L 45.90625 32.71875 
Q 45.90625 40.484375 42.875 44.328125 
Q 39.84375 48.1875 33.796875 48.1875 
Q 26.515625 48.1875 22.3125 43.546875 
Q 18.109375 38.921875 18.109375 30.90625 
L 18.109375 0 
L 9.078125 0 
L 9.078125 54.6875 
L 18.109375 54.6875 
L 18.109375 46.1875 
Q 21.34375 51.125 25.703125 53.5625 
Q 30.078125 56 35.796875 56 
Q 45.21875 56 50.046875 50.171875 
Q 54.890625 44.34375 54.890625 33.015625 
" id="BitstreamVeraSans-Roman-6e"/>
     <path d="M 41.109375 46.296875 
Q 39.59375 47.171875 37.8125 47.578125 
Q 36.03125 48 33.890625 48 
Q 26.265625 48 22.1875 43.046875 
Q 18.109375 38.09375 18.109375 28.8125 
L 18.109375 0 
L 9.078125 0 
L 9.078125 54.6875 
L 18.109375 54.6875 
L 18.109375 46.1875 
Q 20.953125 51.171875 25.484375 53.578125 
Q 30.03125 56 36.53125 56 
Q 37.453125 56 38.578125 55.875 
Q 39.703125 55.765625 41.0625 55.515625 
z
" id="BitstreamVeraSans-Roman-72"/>
     <path d="M 18.3125 70.21875 
L 18.3125 54.6875 
L 36.8125 54.6875 
L 36.8125 47.703125 
L 18.3125 47.703125 
L 18.3125 18.015625 
Q 18.3125 11.328125 20.140625 9.421875 
Q 21.96875 7.515625 27.59375 7.515625 
L 36.8125 7.515625 
L 36.8125 0 
L 27.59375 0 
Q 17.1875 0 13.234375 3.875 
Q 9.28125 7.765625 9.28125 18.015625 
L 9.28125 47.703125 
L 2.6875 47.703125 
L 2.6875 54.6875 
L 9.28125 54.6875 
L 9.28125 70.21875 
z
" id="BitstreamVeraSans-Roman-74"/>
     <path d="M 2.984375 54.6875 
L 12.5 54.6875 
L 29.59375 8.796875 
L 46.6875 54.6875 
L 56.203125 54.6875 
L 35.6875 0 
L 23.484375 0 
z
" id="BitstreamVeraSans-Roman-76"/>
     <path d="M 30.609375 48.390625 
Q 23.390625 48.390625 19.1875 42.75 
Q 14.984375 37.109375 14.984375 27.296875 
Q 14.984375 17.484375 19.15625 11.84375 
Q 23.34375 6.203125 30.609375 6.203125 
Q 37.796875 6.203125 41.984375 11.859375 
Q 46.1875 17.53125 46.1875 27.296875 
Q 46.1875 37.015625 41.984375 42.703125 
Q 37.796875 48.390625 30.609375 48.390625 
M 30.609375 56 
Q 42.328125 56 49.015625 48.375 
Q 55.71875 40.765625 55.71875 27.296875 
Q 55.71875 13.875 49.015625 6.21875 
Q 42.328125 -1.421875 30.609375 -1.421875 
Q 18.84375 -1.421875 12.171875 6.21875 
Q 5.515625 13.875 5.515625 27.296875 
Q 5.515625 40.765625 12.171875 48.375 
Q 18.84375 56 30.609375 56 
" id="BitstreamVeraSans-Roman-6f"/>
     <path d="M 56.203125 29.59375 
L 56.203125 25.203125 
L 14.890625 25.203125 
Q 15.484375 15.921875 20.484375 11.0625 
Q 25.484375 6.203125 34.421875 6.203125 
Q 39.59375 6.203125 44.453125 7.46875 
Q 49.3125 8.734375 54.109375 11.28125 
L 54.109375 2.78125 
Q 49.265625 0.734375 44.1875 -0.34375 
Q 39.109375 -1.421875 33.890625 -1.421875 
Q 20.796875 -1.421875 13.15625 6.1875 
Q 5.515625 13.8125 5.515625 26.8125 
Q 5.515625 40.234375 12.765625 48.109375 
Q 20.015625 56 32.328125 56 
Q 43.359375 56 49.78125 48.890625 
Q 56.203125 41.796875 56.203125 29.59375 
M 47.21875 32.234375 
Q 47.125 39.59375 43.09375 43.984375 
Q 39.0625 48.390625 32.421875 48.390625 
Q 24.90625 48.390625 20.390625 44.140625 
Q 15.875 39.890625 15.1875 32.171875 
z
" id="BitstreamVeraSans-Roman-65"/>
     <path d="M 9.421875 54.6875 
L 18.40625 54.6875 
L 18.40625 0 
L 9.421875 0 
z
M 9.421875 75.984375 
L 18.40625 75.984375 
L 18.40625 64.59375 
L 9.421875 64.59375 
z
" id="BitstreamVeraSans-Roman-69"/>
     <path d="M 52 44.1875 
Q 55.375 50.25 60.0625 53.125 
Q 64.75 56 71.09375 56 
Q 79.640625 56 84.28125 50.015625 
Q 88.921875 44.046875 88.921875 33.015625 
L 88.921875 0 
L 79.890625 0 
L 79.890625 32.71875 
Q 79.890625 40.578125 77.09375 44.375 
Q 74.3125 48.1875 68.609375 48.1875 
Q 61.625 48.1875 57.5625 43.546875 
Q 53.515625 38.921875 53.515625 30.90625 
L 53.515625 0 
L 44.484375 0 
L 44.484375 32.71875 
Q 44.484375 40.625 41.703125 44.40625 
Q 38.921875 48.1875 33.109375 48.1875 
Q 26.21875 48.1875 22.15625 43.53125 
Q 18.109375 38.875 18.109375 30.90625 
L 18.109375 0 
L 9.078125 0 
L 9.078125 54.6875 
L 18.109375 54.6875 
L 18.109375 46.1875 
Q 21.1875 51.21875 25.484375 53.609375 
Q 29.78125 56 35.6875 56 
Q 41.65625 56 45.828125 52.96875 
Q 50 49.953125 52 44.1875 
" id="BitstreamVeraSans-Roman-6d"/>
     <path d="M 9.421875 75.984375 
L 18.40625 75.984375 
L 18.40625 0 
L 9.421875 0 
z
" id="BitstreamVeraSans-Roman-6c"/>
     <path d="M 18.109375 8.203125 
L 18.109375 -20.796875 
L 9.078125 -20.796875 
L 9.078125 54.6875 
L 18.109375 54.6875 
L 18.109375 46.390625 
Q 20.953125 51.265625 25.265625 53.625 
Q 29.59375 56 35.59375 56 
Q 45.5625 56 51.78125 48.09375 
Q 58.015625 40.1875 58.015625 27.296875 
Q 58.015625 14.40625 51.78125 6.484375 
Q 45.5625 -1.421875 35.59375 -1.421875 
Q 29.59375 -1.421875 25.265625 0.953125 
Q 20.953125 3.328125 18.109375 8.203125 
M 48.6875 27.296875 
Q 48.6875 37.203125 44.609375 42.84375 
Q 40.53125 48.484375 33.40625 48.484375 
Q 26.265625 48.484375 22.1875 42.84375 
Q 18.109375 37.203125 18.109375 27.296875 
Q 18.109375 17.390625 22.1875 11.75 
Q 26.265625 6.109375 33.40625 6.109375 
Q 40.53125 6.109375 44.609375 11.75 
Q 48.6875 17.390625 48.6875 27.296875 
" id="BitstreamVeraSans-Roman-70"/>
    </defs>
    <g transform="translate(89.542 18.14175)scale(0.144 -0.144)">
     <use xlink:href="#BitstreamVeraSans-Roman-51"/>
     <use x="78.7109375" xlink:href="#BitstreamVeraSans-Roman-75"/>
     <use x="142.08984375" xlink:href="#BitstreamVeraSans-Roman-61"/>
     <use x="203.369140625" xlink:href="#BitstreamVeraSans-Roman-72"/>
     <use x="244.482421875" xlink:href="#BitstreamVeraSans-Roman-74"/>
     <use x="283.69140625" xlink:href="#BitstreamVeraSans-Roman-69"/>
     <use x="311.474609375" xlink:href="#BitstreamVeraSans-Roman-6c"/>
     <use x="339.2578125" xlink:href="#BitstreamVeraSans-Roman-65"/>
     <use x="400.78125" xlink:href="#BitstreamVeraSans-Roman-20"/>
     <use x="432.568359375" xlink:href="#BitstreamVeraSans-Roman-6f"/>
     <use x="493.75" xlink:href="#BitstreamVeraSans-Roman-66"/>
     <use x="528.955078125" xlink:href="#BitstreamVeraSans-Roman-20"/>
     <use x="560.7421875" xlink:href="#BitstreamVeraSans-Roman-74"/>
     <use x="599.951171875" xlink:href="#BitstreamVeraSans-Roman-68"/>
     <use x="663.330078125" xlink:href="#BitstreamVeraSans-Roman-65"/>
     <use x="724.853515625" xlink:href="#BitstreamVeraSans-Roman-20"/>
     <use x="756.640625" xlink:href="#BitstreamVeraSans-Roman-6d"/>
     <use x="854.052734375" xlink:href="#BitstreamVeraSans-Roman-65"/>
     <use x="915.576171875" xlink:href="#BitstreamVeraSans-Roman-64"/>
     <use x="979.052734375" xlink:href="#BitstreamVeraSans-Roman-69"/>
     <use x="1006.8359375" xlink:href="#BitstreamVeraSans-Roman-61"/>
     <use x="1068.115234375" xlink:href="#BitstreamVeraSans-Roman-6e"/>
     <use x="1131.494140625" xlink:href="#BitstreamVeraSans-Roman-20"/>
     <use x="1163.28125" xlink:href="#BitstreamVeraSans-Roman-6f"/>
     <use x="1224.462890625" xlink:href="#BitstreamVeraSans-Roman-76"/>
     <use x="1283.642578125" xlink:href="#BitstreamVeraSans-Roman-65"/>
     <use x="1345.166015625" xlink:href="#BitstreamVeraSans-Roman-72"/>
     <use x="1386.279296875" xlink:href="#BitstreamVeraSans-Roman-20"/>
     <use x="1418.06640625" xlink:href="#BitstreamVeraSans-Roman-61"/>
     <use x="1479.345703125" xlink:href="#BitstreamVeraSans-Roman-6c"/>
     <use x="1507.12890625" xlink:href="#BitstreamVeraSans-Roman-6c"/>
     <use x="1534.912109375" xlink:href="#BitstreamVeraSans-Roman-20"/>
     <use x="1566.69921875" xlink:href="#BitstreamVeraSans-Roman-70"/>
     <use x="1630.17578125" xlink:href="#BitstreamVeraSans-Roman-72"/>
     <use x="1671.2578125" xlink:href="#BitstreamVeraSans-Roman-6f"/>
     <use x="1732.439453125" xlink:href="#BitstreamVeraSans-Roman-74"/>
     <use x="1771.6484375" xlink:href="#BitstreamVeraSans-Roman-6f"/>
     <use x="1832.830078125" xlink:href="#BitstreamVeraSans-Roman-63"/>
     <use x="1887.810546875" xlink:href="#BitstreamVeraSans-Roman-6f"/>
     <use x="1948.9921875" xlink:href="#BitstreamVeraSans-Roman-6c"/>
     <use x="1976.775390625" xlink:href="#BitstreamVeraSans-Roman-20"/>
     <use x="2008.5625" xlink:href="#BitstreamVeraSans-Roman-73"/>
     <use x="2060.662109375" xlink:href="#BitstreamVeraSans-Roman-74"/>
     <use x="2099.87109375" xlink:href="#BitstreamVeraSans-Roman-65"/>
     <use x="2161.39453125" xlink:href="#BitstreamVeraSans-Roman-70"/>
     <use x="2224.87109375" xlink:href="#BitstreamVeraSans-Roman-73"/>
    </g>
    <!--  -->
    <g transform="translate(253.48375 34.2666)scale(0.144 -0.144)"/>
    <!--  -->
    <g transform="translate(253.48375 50.39145)scale(0.144 -0.144)"/>
   </g>
  </g>
 </g>
 <defs>
  <clipPath id="p6f88d27756">
   <rect height="345.6" width="446.4" x="30.28375" y="55.39145"/>
  </clipPath>
 </defs>
</svg>
