<?xml version="1.0" encoding="utf-8" standalone="no"?>
<!DOCTYPE svg PUBLIC "-//W3C//DTD SVG 1.1//EN"
  "http://www.w3.org/Graphics/SVG/1.1/DTD/svg11.dtd">
<!-- Created with matplotlib (http://matplotlib.org/) -->
<svg height="345pt" version="1.1" viewBox="0 0 592 345" width="592pt" xmlns="http://www.w3.org/2000/svg" xmlns:xlink="http://www.w3.org/1999/xlink">
 <defs>
  <style type="text/css">
*{stroke-linecap:butt;stroke-linejoin:round;}
  </style>
 </defs>
 <g id="figure_1">
  <g id="patch_1">
   <path d="M 0 345.42825 
L 592.165293 345.42825 
L 592.165293 -0 
L 0 -0 
z
" style="fill:#ffffff;"/>
  </g>
  <g id="axes_1">
   <g id="patch_2">
    <path d="M 66.053125 307.872 
L 423.173125 307.872 
L 423.173125 41.76 
L 66.053125 41.76 
z
" style="fill:#ffffff;"/>
   </g>
   <g id="matplotlib.axis_1">
    <g id="xtick_1">
     <g id="line2d_1">
      <defs>
       <path d="M 0 0 
L 0 3.5 
" id="m7f46ef0108" style="stroke:#000000;stroke-width:0.8;"/>
      </defs>
      <g>
       <use style="stroke:#000000;stroke-width:0.8;" x="105.706825" xlink:href="#m7f46ef0108" y="307.872"/>
      </g>
     </g>
     <g id="text_1">
      <!-- 100 -->
      <defs>
       <path d="M 12.40625 8.296875 
L 28.515625 8.296875 
L 28.515625 63.921875 
L 10.984375 60.40625 
L 10.984375 69.390625 
L 28.421875 72.90625 
L 38.28125 72.90625 
L 38.28125 8.296875 
L 54.390625 8.296875 
L 54.390625 0 
L 12.40625 0 
z
" id="DejaVuSans-31"/>
       <path d="M 31.78125 66.40625 
Q 24.171875 66.40625 20.328125 58.90625 
Q 16.5 51.421875 16.5 36.375 
Q 16.5 21.390625 20.328125 13.890625 
Q 24.171875 6.390625 31.78125 6.390625 
Q 39.453125 6.390625 43.28125 13.890625 
Q 47.125 21.390625 47.125 36.375 
Q 47.125 51.421875 43.28125 58.90625 
Q 39.453125 66.40625 31.78125 66.40625 
M 31.78125 74.21875 
Q 44.046875 74.21875 50.515625 64.515625 
Q 56.984375 54.828125 56.984375 36.375 
Q 56.984375 17.96875 50.515625 8.265625 
Q 44.046875 -1.421875 31.78125 -1.421875 
Q 19.53125 -1.421875 13.0625 8.265625 
Q 6.59375 17.96875 6.59375 36.375 
Q 6.59375 54.828125 13.0625 64.515625 
Q 19.53125 74.21875 31.78125 74.21875 
" id="DejaVuSans-30"/>
      </defs>
      <g transform="translate(96.163075 322.470438)scale(0.1 -0.1)">
       <use xlink:href="#DejaVuSans-31"/>
       <use x="63.623047" xlink:href="#DejaVuSans-30"/>
       <use x="127.246094" xlink:href="#DejaVuSans-30"/>
      </g>
     </g>
    </g>
    <g id="xtick_2">
     <g id="line2d_2">
      <g>
       <use style="stroke:#000000;stroke-width:0.8;" x="183.569101" xlink:href="#m7f46ef0108" y="307.872"/>
      </g>
     </g>
     <g id="text_2">
      <!-- 200 -->
      <defs>
       <path d="M 19.1875 8.296875 
L 53.609375 8.296875 
L 53.609375 0 
L 7.328125 0 
L 7.328125 8.296875 
Q 12.9375 14.109375 22.625 23.890625 
Q 32.328125 33.6875 34.8125 36.53125 
Q 39.546875 41.84375 41.421875 45.53125 
Q 43.3125 49.21875 43.3125 52.78125 
Q 43.3125 58.59375 39.234375 62.25 
Q 35.15625 65.921875 28.609375 65.921875 
Q 23.96875 65.921875 18.8125 64.3125 
Q 13.671875 62.703125 7.8125 59.421875 
L 7.8125 69.390625 
Q 13.765625 71.78125 18.9375 73 
Q 24.125 74.21875 28.421875 74.21875 
Q 39.75 74.21875 46.484375 68.546875 
Q 53.21875 62.890625 53.21875 53.421875 
Q 53.21875 48.921875 51.53125 44.890625 
Q 49.859375 40.875 45.40625 35.40625 
Q 44.1875 33.984375 37.640625 27.21875 
Q 31.109375 20.453125 19.1875 8.296875 
" id="DejaVuSans-32"/>
      </defs>
      <g transform="translate(174.025351 322.470438)scale(0.1 -0.1)">
       <use xlink:href="#DejaVuSans-32"/>
       <use x="63.623047" xlink:href="#DejaVuSans-30"/>
       <use x="127.246094" xlink:href="#DejaVuSans-30"/>
      </g>
     </g>
    </g>
    <g id="xtick_3">
     <g id="line2d_3">
      <g>
       <use style="stroke:#000000;stroke-width:0.8;" x="261.431377" xlink:href="#m7f46ef0108" y="307.872"/>
      </g>
     </g>
     <g id="text_3">
      <!-- 300 -->
      <defs>
       <path d="M 40.578125 39.3125 
Q 47.65625 37.796875 51.625 33 
Q 55.609375 28.21875 55.609375 21.1875 
Q 55.609375 10.40625 48.1875 4.484375 
Q 40.765625 -1.421875 27.09375 -1.421875 
Q 22.515625 -1.421875 17.65625 -0.515625 
Q 12.796875 0.390625 7.625 2.203125 
L 7.625 11.71875 
Q 11.71875 9.328125 16.59375 8.109375 
Q 21.484375 6.890625 26.8125 6.890625 
Q 36.078125 6.890625 40.9375 10.546875 
Q 45.796875 14.203125 45.796875 21.1875 
Q 45.796875 27.640625 41.28125 31.265625 
Q 36.765625 34.90625 28.71875 34.90625 
L 20.21875 34.90625 
L 20.21875 43.015625 
L 29.109375 43.015625 
Q 36.375 43.015625 40.234375 45.921875 
Q 44.09375 48.828125 44.09375 54.296875 
Q 44.09375 59.90625 40.109375 62.90625 
Q 36.140625 65.921875 28.71875 65.921875 
Q 24.65625 65.921875 20.015625 65.03125 
Q 15.375 64.15625 9.8125 62.3125 
L 9.8125 71.09375 
Q 15.4375 72.65625 20.34375 73.4375 
Q 25.25 74.21875 29.59375 74.21875 
Q 40.828125 74.21875 47.359375 69.109375 
Q 53.90625 64.015625 53.90625 55.328125 
Q 53.90625 49.265625 50.4375 45.09375 
Q 46.96875 40.921875 40.578125 39.3125 
" id="DejaVuSans-33"/>
      </defs>
      <g transform="translate(251.887627 322.470438)scale(0.1 -0.1)">
       <use xlink:href="#DejaVuSans-33"/>
       <use x="63.623047" xlink:href="#DejaVuSans-30"/>
       <use x="127.246094" xlink:href="#DejaVuSans-30"/>
      </g>
     </g>
    </g>
    <g id="xtick_4">
     <g id="line2d_4">
      <g>
       <use style="stroke:#000000;stroke-width:0.8;" x="339.293652" xlink:href="#m7f46ef0108" y="307.872"/>
      </g>
     </g>
     <g id="text_4">
      <!-- 400 -->
      <defs>
       <path d="M 37.796875 64.3125 
L 12.890625 25.390625 
L 37.796875 25.390625 
z
M 35.203125 72.90625 
L 47.609375 72.90625 
L 47.609375 25.390625 
L 58.015625 25.390625 
L 58.015625 17.1875 
L 47.609375 17.1875 
L 47.609375 0 
L 37.796875 0 
L 37.796875 17.1875 
L 4.890625 17.1875 
L 4.890625 26.703125 
z
" id="DejaVuSans-34"/>
      </defs>
      <g transform="translate(329.749902 322.470438)scale(0.1 -0.1)">
       <use xlink:href="#DejaVuSans-34"/>
       <use x="63.623047" xlink:href="#DejaVuSans-30"/>
       <use x="127.246094" xlink:href="#DejaVuSans-30"/>
      </g>
     </g>
    </g>
    <g id="xtick_5">
     <g id="line2d_5">
      <g>
       <use style="stroke:#000000;stroke-width:0.8;" x="417.155928" xlink:href="#m7f46ef0108" y="307.872"/>
      </g>
     </g>
     <g id="text_5">
      <!-- 500 -->
      <defs>
       <path d="M 10.796875 72.90625 
L 49.515625 72.90625 
L 49.515625 64.59375 
L 19.828125 64.59375 
L 19.828125 46.734375 
Q 21.96875 47.46875 24.109375 47.828125 
Q 26.265625 48.1875 28.421875 48.1875 
Q 40.625 48.1875 47.75 41.5 
Q 54.890625 34.8125 54.890625 23.390625 
Q 54.890625 11.625 47.5625 5.09375 
Q 40.234375 -1.421875 26.90625 -1.421875 
Q 22.3125 -1.421875 17.546875 -0.640625 
Q 12.796875 0.140625 7.71875 1.703125 
L 7.71875 11.625 
Q 12.109375 9.234375 16.796875 8.0625 
Q 21.484375 6.890625 26.703125 6.890625 
Q 35.15625 6.890625 40.078125 11.328125 
Q 45.015625 15.765625 45.015625 23.390625 
Q 45.015625 31 40.078125 35.4375 
Q 35.15625 39.890625 26.703125 39.890625 
Q 22.75 39.890625 18.8125 39.015625 
Q 14.890625 38.140625 10.796875 36.28125 
z
" id="DejaVuSans-35"/>
      </defs>
      <g transform="translate(407.612178 322.470438)scale(0.1 -0.1)">
       <use xlink:href="#DejaVuSans-35"/>
       <use x="63.623047" xlink:href="#DejaVuSans-30"/>
       <use x="127.246094" xlink:href="#DejaVuSans-30"/>
      </g>
     </g>
    </g>
    <g id="text_6">
     <!-- Latency 1 / usec -->
     <defs>
      <path d="M 9.8125 72.90625 
L 19.671875 72.90625 
L 19.671875 8.296875 
L 55.171875 8.296875 
L 55.171875 0 
L 9.8125 0 
z
" id="DejaVuSans-4c"/>
      <path d="M 34.28125 27.484375 
Q 23.390625 27.484375 19.1875 25 
Q 14.984375 22.515625 14.984375 16.5 
Q 14.984375 11.71875 18.140625 8.90625 
Q 21.296875 6.109375 26.703125 6.109375 
Q 34.1875 6.109375 38.703125 11.40625 
Q 43.21875 16.703125 43.21875 25.484375 
L 43.21875 27.484375 
z
M 52.203125 31.203125 
L 52.203125 0 
L 43.21875 0 
L 43.21875 8.296875 
Q 40.140625 3.328125 35.546875 0.953125 
Q 30.953125 -1.421875 24.3125 -1.421875 
Q 15.921875 -1.421875 10.953125 3.296875 
Q 6 8.015625 6 15.921875 
Q 6 25.140625 12.171875 29.828125 
Q 18.359375 34.515625 30.609375 34.515625 
L 43.21875 34.515625 
L 43.21875 35.40625 
Q 43.21875 41.609375 39.140625 45 
Q 35.0625 48.390625 27.6875 48.390625 
Q 23 48.390625 18.546875 47.265625 
Q 14.109375 46.140625 10.015625 43.890625 
L 10.015625 52.203125 
Q 14.9375 54.109375 19.578125 55.046875 
Q 24.21875 56 28.609375 56 
Q 40.484375 56 46.34375 49.84375 
Q 52.203125 43.703125 52.203125 31.203125 
" id="DejaVuSans-61"/>
      <path d="M 18.3125 70.21875 
L 18.3125 54.6875 
L 36.8125 54.6875 
L 36.8125 47.703125 
L 18.3125 47.703125 
L 18.3125 18.015625 
Q 18.3125 11.328125 20.140625 9.421875 
Q 21.96875 7.515625 27.59375 7.515625 
L 36.8125 7.515625 
L 36.8125 0 
L 27.59375 0 
Q 17.1875 0 13.234375 3.875 
Q 9.28125 7.765625 9.28125 18.015625 
L 9.28125 47.703125 
L 2.6875 47.703125 
L 2.6875 54.6875 
L 9.28125 54.6875 
L 9.28125 70.21875 
z
" id="DejaVuSans-74"/>
      <path d="M 56.203125 29.59375 
L 56.203125 25.203125 
L 14.890625 25.203125 
Q 15.484375 15.921875 20.484375 11.0625 
Q 25.484375 6.203125 34.421875 6.203125 
Q 39.59375 6.203125 44.453125 7.46875 
Q 49.3125 8.734375 54.109375 11.28125 
L 54.109375 2.78125 
Q 49.265625 0.734375 44.1875 -0.34375 
Q 39.109375 -1.421875 33.890625 -1.421875 
Q 20.796875 -1.421875 13.15625 6.1875 
Q 5.515625 13.8125 5.515625 26.8125 
Q 5.515625 40.234375 12.765625 48.109375 
Q 20.015625 56 32.328125 56 
Q 43.359375 56 49.78125 48.890625 
Q 56.203125 41.796875 56.203125 29.59375 
M 47.21875 32.234375 
Q 47.125 39.59375 43.09375 43.984375 
Q 39.0625 48.390625 32.421875 48.390625 
Q 24.90625 48.390625 20.390625 44.140625 
Q 15.875 39.890625 15.1875 32.171875 
z
" id="DejaVuSans-65"/>
      <path d="M 54.890625 33.015625 
L 54.890625 0 
L 45.90625 0 
L 45.90625 32.71875 
Q 45.90625 40.484375 42.875 44.328125 
Q 39.84375 48.1875 33.796875 48.1875 
Q 26.515625 48.1875 22.3125 43.546875 
Q 18.109375 38.921875 18.109375 30.90625 
L 18.109375 0 
L 9.078125 0 
L 9.078125 54.6875 
L 18.109375 54.6875 
L 18.109375 46.1875 
Q 21.34375 51.125 25.703125 53.5625 
Q 30.078125 56 35.796875 56 
Q 45.21875 56 50.046875 50.171875 
Q 54.890625 44.34375 54.890625 33.015625 
" id="DejaVuSans-6e"/>
      <path d="M 48.78125 52.59375 
L 48.78125 44.1875 
Q 44.96875 46.296875 41.140625 47.34375 
Q 37.3125 48.390625 33.40625 48.390625 
Q 24.65625 48.390625 19.8125 42.84375 
Q 14.984375 37.3125 14.984375 27.296875 
Q 14.984375 17.28125 19.8125 11.734375 
Q 24.65625 6.203125 33.40625 6.203125 
Q 37.3125 6.203125 41.140625 7.25 
Q 44.96875 8.296875 48.78125 10.40625 
L 48.78125 2.09375 
Q 45.015625 0.34375 40.984375 -0.53125 
Q 36.96875 -1.421875 32.421875 -1.421875 
Q 20.0625 -1.421875 12.78125 6.34375 
Q 5.515625 14.109375 5.515625 27.296875 
Q 5.515625 40.671875 12.859375 48.328125 
Q 20.21875 56 33.015625 56 
Q 37.15625 56 41.109375 55.140625 
Q 45.0625 54.296875 48.78125 52.59375 
" id="DejaVuSans-63"/>
      <path d="M 32.171875 -5.078125 
Q 28.375 -14.84375 24.75 -17.8125 
Q 21.140625 -20.796875 15.09375 -20.796875 
L 7.90625 -20.796875 
L 7.90625 -13.28125 
L 13.1875 -13.28125 
Q 16.890625 -13.28125 18.9375 -11.515625 
Q 21 -9.765625 23.484375 -3.21875 
L 25.09375 0.875 
L 2.984375 54.6875 
L 12.5 54.6875 
L 29.59375 11.921875 
L 46.6875 54.6875 
L 56.203125 54.6875 
z
" id="DejaVuSans-79"/>
      <path id="DejaVuSans-20"/>
      <path d="M 25.390625 72.90625 
L 33.6875 72.90625 
L 8.296875 -9.28125 
L 0 -9.28125 
z
" id="DejaVuSans-2f"/>
      <path d="M 8.5 21.578125 
L 8.5 54.6875 
L 17.484375 54.6875 
L 17.484375 21.921875 
Q 17.484375 14.15625 20.5 10.265625 
Q 23.53125 6.390625 29.59375 6.390625 
Q 36.859375 6.390625 41.078125 11.03125 
Q 45.3125 15.671875 45.3125 23.6875 
L 45.3125 54.6875 
L 54.296875 54.6875 
L 54.296875 0 
L 45.3125 0 
L 45.3125 8.40625 
Q 42.046875 3.421875 37.71875 1 
Q 33.40625 -1.421875 27.6875 -1.421875 
Q 18.265625 -1.421875 13.375 4.4375 
Q 8.5 10.296875 8.5 21.578125 
M 31.109375 56 
z
" id="DejaVuSans-75"/>
      <path d="M 44.28125 53.078125 
L 44.28125 44.578125 
Q 40.484375 46.53125 36.375 47.5 
Q 32.28125 48.484375 27.875 48.484375 
Q 21.1875 48.484375 17.84375 46.4375 
Q 14.5 44.390625 14.5 40.28125 
Q 14.5 37.15625 16.890625 35.375 
Q 19.28125 33.59375 26.515625 31.984375 
L 29.59375 31.296875 
Q 39.15625 29.25 43.1875 25.515625 
Q 47.21875 21.78125 47.21875 15.09375 
Q 47.21875 7.46875 41.1875 3.015625 
Q 35.15625 -1.421875 24.609375 -1.421875 
Q 20.21875 -1.421875 15.453125 -0.5625 
Q 10.6875 0.296875 5.421875 2 
L 5.421875 11.28125 
Q 10.40625 8.6875 15.234375 7.390625 
Q 20.0625 6.109375 24.8125 6.109375 
Q 31.15625 6.109375 34.5625 8.28125 
Q 37.984375 10.453125 37.984375 14.40625 
Q 37.984375 18.0625 35.515625 20.015625 
Q 33.0625 21.96875 24.703125 23.78125 
L 21.578125 24.515625 
Q 13.234375 26.265625 9.515625 29.90625 
Q 5.8125 33.546875 5.8125 39.890625 
Q 5.8125 47.609375 11.28125 51.796875 
Q 16.75 56 26.8125 56 
Q 31.78125 56 36.171875 55.265625 
Q 40.578125 54.546875 44.28125 53.078125 
" id="DejaVuSans-73"/>
     </defs>
     <g transform="translate(203.617031 336.148562)scale(0.1 -0.1)">
      <use xlink:href="#DejaVuSans-4c"/>
      <use x="55.712891" xlink:href="#DejaVuSans-61"/>
      <use x="116.992188" xlink:href="#DejaVuSans-74"/>
      <use x="156.201172" xlink:href="#DejaVuSans-65"/>
      <use x="217.724609" xlink:href="#DejaVuSans-6e"/>
      <use x="281.103516" xlink:href="#DejaVuSans-63"/>
      <use x="336.083984" xlink:href="#DejaVuSans-79"/>
      <use x="395.263672" xlink:href="#DejaVuSans-20"/>
      <use x="427.050781" xlink:href="#DejaVuSans-31"/>
      <use x="490.673828" xlink:href="#DejaVuSans-20"/>
      <use x="522.460938" xlink:href="#DejaVuSans-2f"/>
      <use x="556.152344" xlink:href="#DejaVuSans-20"/>
      <use x="587.939453" xlink:href="#DejaVuSans-75"/>
      <use x="651.318359" xlink:href="#DejaVuSans-73"/>
      <use x="703.417969" xlink:href="#DejaVuSans-65"/>
      <use x="764.941406" xlink:href="#DejaVuSans-63"/>
     </g>
    </g>
   </g>
   <g id="matplotlib.axis_2">
    <g id="ytick_1">
     <g id="line2d_6">
      <defs>
       <path d="M 0 0 
L -3.5 0 
" id="m019969e0ac" style="stroke:#000000;stroke-width:0.8;"/>
      </defs>
      <g>
       <use style="stroke:#000000;stroke-width:0.8;" x="66.053125" xlink:href="#m019969e0ac" y="296.427535"/>
      </g>
     </g>
     <g id="text_7">
      <!-- 0 -->
      <g transform="translate(52.690625 300.226754)scale(0.1 -0.1)">
       <use xlink:href="#DejaVuSans-30"/>
      </g>
     </g>
    </g>
    <g id="ytick_2">
     <g id="line2d_7">
      <g>
       <use style="stroke:#000000;stroke-width:0.8;" x="66.053125" xlink:href="#m019969e0ac" y="243.319055"/>
      </g>
     </g>
     <g id="text_8">
      <!-- 100000 -->
      <g transform="translate(20.878125 247.118274)scale(0.1 -0.1)">
       <use xlink:href="#DejaVuSans-31"/>
       <use x="63.623047" xlink:href="#DejaVuSans-30"/>
       <use x="127.246094" xlink:href="#DejaVuSans-30"/>
       <use x="190.869141" xlink:href="#DejaVuSans-30"/>
       <use x="254.492188" xlink:href="#DejaVuSans-30"/>
       <use x="318.115234" xlink:href="#DejaVuSans-30"/>
      </g>
     </g>
    </g>
    <g id="ytick_3">
     <g id="line2d_8">
      <g>
       <use style="stroke:#000000;stroke-width:0.8;" x="66.053125" xlink:href="#m019969e0ac" y="190.210576"/>
      </g>
     </g>
     <g id="text_9">
      <!-- 200000 -->
      <g transform="translate(20.878125 194.009795)scale(0.1 -0.1)">
       <use xlink:href="#DejaVuSans-32"/>
       <use x="63.623047" xlink:href="#DejaVuSans-30"/>
       <use x="127.246094" xlink:href="#DejaVuSans-30"/>
       <use x="190.869141" xlink:href="#DejaVuSans-30"/>
       <use x="254.492188" xlink:href="#DejaVuSans-30"/>
       <use x="318.115234" xlink:href="#DejaVuSans-30"/>
      </g>
     </g>
    </g>
    <g id="ytick_4">
     <g id="line2d_9">
      <g>
       <use style="stroke:#000000;stroke-width:0.8;" x="66.053125" xlink:href="#m019969e0ac" y="137.102097"/>
      </g>
     </g>
     <g id="text_10">
      <!-- 300000 -->
      <g transform="translate(20.878125 140.901316)scale(0.1 -0.1)">
       <use xlink:href="#DejaVuSans-33"/>
       <use x="63.623047" xlink:href="#DejaVuSans-30"/>
       <use x="127.246094" xlink:href="#DejaVuSans-30"/>
       <use x="190.869141" xlink:href="#DejaVuSans-30"/>
       <use x="254.492188" xlink:href="#DejaVuSans-30"/>
       <use x="318.115234" xlink:href="#DejaVuSans-30"/>
      </g>
     </g>
    </g>
    <g id="ytick_5">
     <g id="line2d_10">
      <g>
       <use style="stroke:#000000;stroke-width:0.8;" x="66.053125" xlink:href="#m019969e0ac" y="83.993617"/>
      </g>
     </g>
     <g id="text_11">
      <!-- 400000 -->
      <g transform="translate(20.878125 87.792836)scale(0.1 -0.1)">
       <use xlink:href="#DejaVuSans-34"/>
       <use x="63.623047" xlink:href="#DejaVuSans-30"/>
       <use x="127.246094" xlink:href="#DejaVuSans-30"/>
       <use x="190.869141" xlink:href="#DejaVuSans-30"/>
       <use x="254.492188" xlink:href="#DejaVuSans-30"/>
       <use x="318.115234" xlink:href="#DejaVuSans-30"/>
      </g>
     </g>
    </g>
    <g id="text_12">
     <!-- Handshake (without IO) / usec -->
     <defs>
      <path d="M 9.8125 72.90625 
L 19.671875 72.90625 
L 19.671875 43.015625 
L 55.515625 43.015625 
L 55.515625 72.90625 
L 65.375 72.90625 
L 65.375 0 
L 55.515625 0 
L 55.515625 34.71875 
L 19.671875 34.71875 
L 19.671875 0 
L 9.8125 0 
z
" id="DejaVuSans-48"/>
      <path d="M 45.40625 46.390625 
L 45.40625 75.984375 
L 54.390625 75.984375 
L 54.390625 0 
L 45.40625 0 
L 45.40625 8.203125 
Q 42.578125 3.328125 38.25 0.953125 
Q 33.9375 -1.421875 27.875 -1.421875 
Q 17.96875 -1.421875 11.734375 6.484375 
Q 5.515625 14.40625 5.515625 27.296875 
Q 5.515625 40.1875 11.734375 48.09375 
Q 17.96875 56 27.875 56 
Q 33.9375 56 38.25 53.625 
Q 42.578125 51.265625 45.40625 46.390625 
M 14.796875 27.296875 
Q 14.796875 17.390625 18.875 11.75 
Q 22.953125 6.109375 30.078125 6.109375 
Q 37.203125 6.109375 41.296875 11.75 
Q 45.40625 17.390625 45.40625 27.296875 
Q 45.40625 37.203125 41.296875 42.84375 
Q 37.203125 48.484375 30.078125 48.484375 
Q 22.953125 48.484375 18.875 42.84375 
Q 14.796875 37.203125 14.796875 27.296875 
" id="DejaVuSans-64"/>
      <path d="M 54.890625 33.015625 
L 54.890625 0 
L 45.90625 0 
L 45.90625 32.71875 
Q 45.90625 40.484375 42.875 44.328125 
Q 39.84375 48.1875 33.796875 48.1875 
Q 26.515625 48.1875 22.3125 43.546875 
Q 18.109375 38.921875 18.109375 30.90625 
L 18.109375 0 
L 9.078125 0 
L 9.078125 75.984375 
L 18.109375 75.984375 
L 18.109375 46.1875 
Q 21.34375 51.125 25.703125 53.5625 
Q 30.078125 56 35.796875 56 
Q 45.21875 56 50.046875 50.171875 
Q 54.890625 44.34375 54.890625 33.015625 
" id="DejaVuSans-68"/>
      <path d="M 9.078125 75.984375 
L 18.109375 75.984375 
L 18.109375 31.109375 
L 44.921875 54.6875 
L 56.390625 54.6875 
L 27.390625 29.109375 
L 57.625 0 
L 45.90625 0 
L 18.109375 26.703125 
L 18.109375 0 
L 9.078125 0 
z
" id="DejaVuSans-6b"/>
      <path d="M 31 75.875 
Q 24.46875 64.65625 21.28125 53.65625 
Q 18.109375 42.671875 18.109375 31.390625 
Q 18.109375 20.125 21.3125 9.0625 
Q 24.515625 -2 31 -13.1875 
L 23.1875 -13.1875 
Q 15.875 -1.703125 12.234375 9.375 
Q 8.59375 20.453125 8.59375 31.390625 
Q 8.59375 42.28125 12.203125 53.3125 
Q 15.828125 64.359375 23.1875 75.875 
z
" id="DejaVuSans-28"/>
      <path d="M 4.203125 54.6875 
L 13.1875 54.6875 
L 24.421875 12.015625 
L 35.59375 54.6875 
L 46.1875 54.6875 
L 57.421875 12.015625 
L 68.609375 54.6875 
L 77.59375 54.6875 
L 63.28125 0 
L 52.6875 0 
L 40.921875 44.828125 
L 29.109375 0 
L 18.5 0 
z
" id="DejaVuSans-77"/>
      <path d="M 9.421875 54.6875 
L 18.40625 54.6875 
L 18.40625 0 
L 9.421875 0 
z
M 9.421875 75.984375 
L 18.40625 75.984375 
L 18.40625 64.59375 
L 9.421875 64.59375 
z
" id="DejaVuSans-69"/>
      <path d="M 30.609375 48.390625 
Q 23.390625 48.390625 19.1875 42.75 
Q 14.984375 37.109375 14.984375 27.296875 
Q 14.984375 17.484375 19.15625 11.84375 
Q 23.34375 6.203125 30.609375 6.203125 
Q 37.796875 6.203125 41.984375 11.859375 
Q 46.1875 17.53125 46.1875 27.296875 
Q 46.1875 37.015625 41.984375 42.703125 
Q 37.796875 48.390625 30.609375 48.390625 
M 30.609375 56 
Q 42.328125 56 49.015625 48.375 
Q 55.71875 40.765625 55.71875 27.296875 
Q 55.71875 13.875 49.015625 6.21875 
Q 42.328125 -1.421875 30.609375 -1.421875 
Q 18.84375 -1.421875 12.171875 6.21875 
Q 5.515625 13.875 5.515625 27.296875 
Q 5.515625 40.765625 12.171875 48.375 
Q 18.84375 56 30.609375 56 
" id="DejaVuSans-6f"/>
      <path d="M 9.8125 72.90625 
L 19.671875 72.90625 
L 19.671875 0 
L 9.8125 0 
z
" id="DejaVuSans-49"/>
      <path d="M 39.40625 66.21875 
Q 28.65625 66.21875 22.328125 58.203125 
Q 16.015625 50.203125 16.015625 36.375 
Q 16.015625 22.609375 22.328125 14.59375 
Q 28.65625 6.59375 39.40625 6.59375 
Q 50.140625 6.59375 56.421875 14.59375 
Q 62.703125 22.609375 62.703125 36.375 
Q 62.703125 50.203125 56.421875 58.203125 
Q 50.140625 66.21875 39.40625 66.21875 
M 39.40625 74.21875 
Q 54.734375 74.21875 63.90625 63.9375 
Q 73.09375 53.65625 73.09375 36.375 
Q 73.09375 19.140625 63.90625 8.859375 
Q 54.734375 -1.421875 39.40625 -1.421875 
Q 24.03125 -1.421875 14.8125 8.828125 
Q 5.609375 19.09375 5.609375 36.375 
Q 5.609375 53.65625 14.8125 63.9375 
Q 24.03125 74.21875 39.40625 74.21875 
" id="DejaVuSans-4f"/>
      <path d="M 8.015625 75.875 
L 15.828125 75.875 
Q 23.140625 64.359375 26.78125 53.3125 
Q 30.421875 42.28125 30.421875 31.390625 
Q 30.421875 20.453125 26.78125 9.375 
Q 23.140625 -1.703125 15.828125 -13.1875 
L 8.015625 -13.1875 
Q 14.5 -2 17.703125 9.0625 
Q 20.90625 20.125 20.90625 31.390625 
Q 20.90625 42.671875 17.703125 53.65625 
Q 14.5 64.65625 8.015625 75.875 
" id="DejaVuSans-29"/>
     </defs>
     <g transform="translate(14.798437 250.537875)rotate(-90)scale(0.1 -0.1)">
      <use xlink:href="#DejaVuSans-48"/>
      <use x="75.195312" xlink:href="#DejaVuSans-61"/>
      <use x="136.474609" xlink:href="#DejaVuSans-6e"/>
      <use x="199.853516" xlink:href="#DejaVuSans-64"/>
      <use x="263.330078" xlink:href="#DejaVuSans-73"/>
      <use x="315.429688" xlink:href="#DejaVuSans-68"/>
      <use x="378.808594" xlink:href="#DejaVuSans-61"/>
      <use x="440.087891" xlink:href="#DejaVuSans-6b"/>
      <use x="497.951172" xlink:href="#DejaVuSans-65"/>
      <use x="559.474609" xlink:href="#DejaVuSans-20"/>
      <use x="591.261719" xlink:href="#DejaVuSans-28"/>
      <use x="630.275391" xlink:href="#DejaVuSans-77"/>
      <use x="712.0625" xlink:href="#DejaVuSans-69"/>
      <use x="739.845703" xlink:href="#DejaVuSans-74"/>
      <use x="779.054688" xlink:href="#DejaVuSans-68"/>
      <use x="842.433594" xlink:href="#DejaVuSans-6f"/>
      <use x="903.615234" xlink:href="#DejaVuSans-75"/>
      <use x="966.994141" xlink:href="#DejaVuSans-74"/>
      <use x="1006.203125" xlink:href="#DejaVuSans-20"/>
      <use x="1037.990234" xlink:href="#DejaVuSans-49"/>
      <use x="1067.482422" xlink:href="#DejaVuSans-4f"/>
      <use x="1146.193359" xlink:href="#DejaVuSans-29"/>
      <use x="1185.207031" xlink:href="#DejaVuSans-20"/>
      <use x="1216.994141" xlink:href="#DejaVuSans-2f"/>
      <use x="1250.685547" xlink:href="#DejaVuSans-20"/>
      <use x="1282.472656" xlink:href="#DejaVuSans-75"/>
      <use x="1345.851562" xlink:href="#DejaVuSans-73"/>
      <use x="1397.951172" xlink:href="#DejaVuSans-65"/>
      <use x="1459.474609" xlink:href="#DejaVuSans-63"/>
     </g>
    </g>
   </g>
   <g id="line2d_11">
    <defs>
     <path d="M 0 4 
C 1.060812 4 2.078319 3.578535 2.828427 2.828427 
C 3.578535 2.078319 4 1.060812 4 0 
C 4 -1.060812 3.578535 -2.078319 2.828427 -2.828427 
C 2.078319 -3.578535 1.060812 -4 0 -4 
C -1.060812 -4 -2.078319 -3.578535 -2.828427 -2.828427 
C -3.578535 -2.078319 -4 -1.060812 -4 0 
C -4 1.060812 -3.578535 2.078319 -2.828427 2.828427 
C -2.078319 3.578535 -1.060812 4 0 4 
z
" id="m0d82cc12aa" style="stroke:#ff7f00;"/>
    </defs>
    <g clip-path="url(#pa0ef638ec3)">
     <use style="fill:#ff7f00;stroke:#ff7f00;" x="205.837712" xlink:href="#m0d82cc12aa" y="99.032685"/>
     <use style="fill:#ff7f00;stroke:#ff7f00;" x="220.070936" xlink:href="#m0d82cc12aa" y="98.528537"/>
     <use style="fill:#ff7f00;stroke:#ff7f00;" x="96.550221" xlink:href="#m0d82cc12aa" y="99.025845"/>
     <use style="fill:#ff7f00;stroke:#ff7f00;" x="229.850437" xlink:href="#m0d82cc12aa" y="98.943824"/>
     <use style="fill:#ff7f00;stroke:#ff7f00;" x="405.756891" xlink:href="#m0d82cc12aa" y="98.971377"/>
     <use style="fill:#ff7f00;stroke:#ff7f00;" x="330.261628" xlink:href="#m0d82cc12aa" y="98.400227"/>
     <use style="fill:#ff7f00;stroke:#ff7f00;" x="189.673503" xlink:href="#m0d82cc12aa" y="98.993534"/>
     <use style="fill:#ff7f00;stroke:#ff7f00;" x="204.49848" xlink:href="#m0d82cc12aa" y="98.983677"/>
     <use style="fill:#ff7f00;stroke:#ff7f00;" x="237.761245" xlink:href="#m0d82cc12aa" y="99.029626"/>
     <use style="fill:#ff7f00;stroke:#ff7f00;" x="253.022251" xlink:href="#m0d82cc12aa" y="98.516365"/>
     <use style="fill:#ff7f00;stroke:#ff7f00;" x="238.384143" xlink:href="#m0d82cc12aa" y="98.953426"/>
     <use style="fill:#ff7f00;stroke:#ff7f00;" x="365.829116" xlink:href="#m0d82cc12aa" y="98.390094"/>
     <use style="fill:#ff7f00;stroke:#ff7f00;" x="251.838744" xlink:href="#m0d82cc12aa" y="99.019727"/>
     <use style="fill:#ff7f00;stroke:#ff7f00;" x="280.242902" xlink:href="#m0d82cc12aa" y="99.009063"/>
     <use style="fill:#ff7f00;stroke:#ff7f00;" x="251.963324" xlink:href="#m0d82cc12aa" y="99.047556"/>
     <use style="fill:#ff7f00;stroke:#ff7f00;" x="279.993743" xlink:href="#m0d82cc12aa" y="99.005536"/>
    </g>
   </g>
   <g id="line2d_12">
    <defs>
     <path d="M 0 4 
C 1.060812 4 2.078319 3.578535 2.828427 2.828427 
C 3.578535 2.078319 4 1.060812 4 0 
C 4 -1.060812 3.578535 -2.078319 2.828427 -2.828427 
C 2.078319 -3.578535 1.060812 -4 0 -4 
C -1.060812 -4 -2.078319 -3.578535 -2.828427 -2.828427 
C -3.578535 -2.078319 -4 -1.060812 -4 0 
C -4 1.060812 -3.578535 2.078319 -2.828427 2.828427 
C -2.078319 3.578535 -1.060812 4 0 4 
z
" id="me701fae187" style="stroke:#984ea3;"/>
    </defs>
    <g clip-path="url(#pa0ef638ec3)">
     <use style="fill:#984ea3;stroke:#984ea3;" x="210.976622" xlink:href="#me701fae187" y="54.36565"/>
     <use style="fill:#984ea3;stroke:#984ea3;" x="230.099597" xlink:href="#me701fae187" y="54.327879"/>
     <use style="fill:#984ea3;stroke:#984ea3;" x="230.56677" xlink:href="#me701fae187" y="53.856"/>
     <use style="fill:#984ea3;stroke:#984ea3;" x="247.416167" xlink:href="#me701fae187" y="54.336249"/>
     <use style="fill:#984ea3;stroke:#984ea3;" x="231.065089" xlink:href="#me701fae187" y="54.356006"/>
     <use style="fill:#984ea3;stroke:#984ea3;" x="238.259563" xlink:href="#me701fae187" y="54.341985"/>
     <use style="fill:#984ea3;stroke:#984ea3;" x="253.769729" xlink:href="#me701fae187" y="54.338862"/>
     <use style="fill:#984ea3;stroke:#984ea3;" x="284.790059" xlink:href="#me701fae187" y="54.350525"/>
     <use style="fill:#984ea3;stroke:#984ea3;" x="405.570022" xlink:href="#me701fae187" y="54.334847"/>
     <use style="fill:#984ea3;stroke:#984ea3;" x="253.084541" xlink:href="#me701fae187" y="53.860291"/>
     <use style="fill:#984ea3;stroke:#984ea3;" x="237.107202" xlink:href="#me701fae187" y="54.427617"/>
     <use style="fill:#984ea3;stroke:#984ea3;" x="255.233539" xlink:href="#me701fae187" y="54.401955"/>
     <use style="fill:#984ea3;stroke:#984ea3;" x="280.678931" xlink:href="#me701fae187" y="54.34685"/>
     <use style="fill:#984ea3;stroke:#984ea3;" x="191.355328" xlink:href="#me701fae187" y="54.344492"/>
     <use style="fill:#984ea3;stroke:#984ea3;" x="205.059089" xlink:href="#me701fae187" y="54.342049"/>
     <use style="fill:#984ea3;stroke:#984ea3;" x="253.39599" xlink:href="#me701fae187" y="54.37094"/>
     <use style="fill:#984ea3;stroke:#984ea3;" x="280.678931" xlink:href="#me701fae187" y="54.404866"/>
     <use style="fill:#984ea3;stroke:#984ea3;" x="215.274619" xlink:href="#me701fae187" y="54.350907"/>
    </g>
   </g>
   <g id="line2d_13">
    <defs>
     <path d="M 0 4 
C 1.060812 4 2.078319 3.578535 2.828427 2.828427 
C 3.578535 2.078319 4 1.060812 4 0 
C 4 -1.060812 3.578535 -2.078319 2.828427 -2.828427 
C 2.078319 -3.578535 1.060812 -4 0 -4 
C -1.060812 -4 -2.078319 -3.578535 -2.828427 -2.828427 
C -3.578535 -2.078319 -4 -1.060812 -4 0 
C -4 1.060812 -3.578535 2.078319 -2.828427 2.828427 
C -2.078319 3.578535 -1.060812 4 0 4 
z
" id="m039e9f95ac" style="stroke:#4daf4a;"/>
    </defs>
    <g clip-path="url(#pa0ef638ec3)">
     <use style="fill:#4daf4a;stroke:#4daf4a;" x="91.878485" xlink:href="#m039e9f95ac" y="284.557259"/>
     <use style="fill:#4daf4a;stroke:#4daf4a;" x="386.353612" xlink:href="#m039e9f95ac" y="284.368362"/>
     <use style="fill:#4daf4a;stroke:#4daf4a;" x="207.176943" xlink:href="#m039e9f95ac" y="284.530471"/>
     <use style="fill:#4daf4a;stroke:#4daf4a;" x="184.316579" xlink:href="#m039e9f95ac" y="284.504575"/>
     <use style="fill:#4daf4a;stroke:#4daf4a;" x="330.137049" xlink:href="#m039e9f95ac" y="283.962316"/>
     <use style="fill:#4daf4a;stroke:#4daf4a;" x="198.518658" xlink:href="#m039e9f95ac" y="284.516641"/>
     <use style="fill:#4daf4a;stroke:#4daf4a;" x="207.239233" xlink:href="#m039e9f95ac" y="284.534698"/>
     <use style="fill:#4daf4a;stroke:#4daf4a;" x="329.950179" xlink:href="#m039e9f95ac" y="283.96221"/>
     <use style="fill:#4daf4a;stroke:#4daf4a;" x="92.875122" xlink:href="#m039e9f95ac" y="284.434557"/>
     <use style="fill:#4daf4a;stroke:#4daf4a;" x="390.931914" xlink:href="#m039e9f95ac" y="284.451403"/>
     <use style="fill:#4daf4a;stroke:#4daf4a;" x="204.80993" xlink:href="#m039e9f95ac" y="284.555687"/>
     <use style="fill:#4daf4a;stroke:#4daf4a;" x="219.012009" xlink:href="#m039e9f95ac" y="283.950016"/>
     <use style="fill:#4daf4a;stroke:#4daf4a;" x="184.441158" xlink:href="#m039e9f95ac" y="284.550546"/>
     <use style="fill:#4daf4a;stroke:#4daf4a;" x="198.580948" xlink:href="#m039e9f95ac" y="284.527539"/>
     <use style="fill:#4daf4a;stroke:#4daf4a;" x="204.49848" xlink:href="#m039e9f95ac" y="284.42538"/>
     <use style="fill:#4daf4a;stroke:#4daf4a;" x="219.198878" xlink:href="#m039e9f95ac" y="283.964441"/>
     <use style="fill:#4daf4a;stroke:#4daf4a;" x="217.454763" xlink:href="#m039e9f95ac" y="284.517406"/>
     <use style="fill:#4daf4a;stroke:#4daf4a;" x="242.495271" xlink:href="#m039e9f95ac" y="284.047885"/>
     <use style="fill:#4daf4a;stroke:#4daf4a;" x="219.759487" xlink:href="#m039e9f95ac" y="284.569367"/>
     <use style="fill:#4daf4a;stroke:#4daf4a;" x="242.619851" xlink:href="#m039e9f95ac" y="284.042064"/>
     <use style="fill:#4daf4a;stroke:#4daf4a;" x="221.129863" xlink:href="#m039e9f95ac" y="284.386887"/>
     <use style="fill:#4daf4a;stroke:#4daf4a;" x="352.34337" xlink:href="#m039e9f95ac" y="283.823491"/>
     <use style="fill:#4daf4a;stroke:#4daf4a;" x="221.379022" xlink:href="#m039e9f95ac" y="284.490724"/>
     <use style="fill:#4daf4a;stroke:#4daf4a;" x="344.868591" xlink:href="#m039e9f95ac" y="283.968562"/>
    </g>
   </g>
   <g id="line2d_14">
    <defs>
     <path d="M 0 4 
C 1.060812 4 2.078319 3.578535 2.828427 2.828427 
C 3.578535 2.078319 4 1.060812 4 0 
C 4 -1.060812 3.578535 -2.078319 2.828427 -2.828427 
C 2.078319 -3.578535 1.060812 -4 0 -4 
C -1.060812 -4 -2.078319 -3.578535 -2.828427 -2.828427 
C -3.578535 -2.078319 -4 -1.060812 -4 0 
C -4 1.060812 -3.578535 2.078319 -2.828427 2.828427 
C -2.078319 3.578535 -1.060812 4 0 4 
z
" id="m91ada0ab35" style="stroke:#a65628;"/>
    </defs>
    <g clip-path="url(#pa0ef638ec3)">
     <use style="fill:#a65628;stroke:#a65628;" x="210.416013" xlink:href="#m91ada0ab35" y="224.321239"/>
     <use style="fill:#a65628;stroke:#a65628;" x="330.386208" xlink:href="#m91ada0ab35" y="223.832407"/>
     <use style="fill:#a65628;stroke:#a65628;" x="96.051903" xlink:href="#m91ada0ab35" y="224.497793"/>
     <use style="fill:#a65628;stroke:#a65628;" x="394.482434" xlink:href="#m91ada0ab35" y="224.344607"/>
     <use style="fill:#a65628;stroke:#a65628;" x="185.313216" xlink:href="#m91ada0ab35" y="224.28247"/>
     <use style="fill:#a65628;stroke:#a65628;" x="199.35957" xlink:href="#m91ada0ab35" y="224.456007"/>
     <use style="fill:#a65628;stroke:#a65628;" x="205.308248" xlink:href="#m91ada0ab35" y="224.475275"/>
     <use style="fill:#a65628;stroke:#a65628;" x="220.257805" xlink:href="#m91ada0ab35" y="224.0766"/>
     <use style="fill:#a65628;stroke:#a65628;" x="225.240991" xlink:href="#m91ada0ab35" y="224.295726"/>
     <use style="fill:#a65628;stroke:#a65628;" x="243.927937" xlink:href="#m91ada0ab35" y="223.958487"/>
     <use style="fill:#a65628;stroke:#a65628;" x="221.379022" xlink:href="#m91ada0ab35" y="224.320793"/>
     <use style="fill:#a65628;stroke:#a65628;" x="353.246572" xlink:href="#m91ada0ab35" y="223.688398"/>
     <use style="fill:#a65628;stroke:#a65628;" x="252.897671" xlink:href="#m91ada0ab35" y="224.322025"/>
     <use style="fill:#a65628;stroke:#a65628;" x="280.087178" xlink:href="#m91ada0ab35" y="224.449698"/>
     <use style="fill:#a65628;stroke:#a65628;" x="253.084541" xlink:href="#m91ada0ab35" y="224.105151"/>
     <use style="fill:#a65628;stroke:#a65628;" x="279.744584" xlink:href="#m91ada0ab35" y="224.372903"/>
    </g>
   </g>
   <g id="line2d_15">
    <defs>
     <path d="M 0 4 
C 1.060812 4 2.078319 3.578535 2.828427 2.828427 
C 3.578535 2.078319 4 1.060812 4 0 
C 4 -1.060812 3.578535 -2.078319 2.828427 -2.828427 
C 2.078319 -3.578535 1.060812 -4 0 -4 
C -1.060812 -4 -2.078319 -3.578535 -2.828427 -2.828427 
C -3.578535 -2.078319 -4 -1.060812 -4 0 
C -4 1.060812 -3.578535 2.078319 -2.828427 2.828427 
C -2.078319 3.578535 -1.060812 4 0 4 
z
" id="m2c1d4a348b" style="stroke:#ffff33;"/>
    </defs>
    <g clip-path="url(#pa0ef638ec3)">
     <use style="fill:#ffff33;stroke:#ffff33;" x="96.238772" xlink:href="#m2c1d4a348b" y="237.113946"/>
     <use style="fill:#ffff33;stroke:#ffff33;" x="395.541361" xlink:href="#m2c1d4a348b" y="236.814414"/>
     <use style="fill:#ffff33;stroke:#ffff33;" x="189.860373" xlink:href="#m2c1d4a348b" y="237.054995"/>
     <use style="fill:#ffff33;stroke:#ffff33;" x="205.308248" xlink:href="#m2c1d4a348b" y="237.018967"/>
     <use style="fill:#ffff33;stroke:#ffff33;" x="218.825139" xlink:href="#m2c1d4a348b" y="236.80547"/>
     <use style="fill:#ffff33;stroke:#ffff33;" x="330.573078" xlink:href="#m2c1d4a348b" y="236.518812"/>
     <use style="fill:#ffff33;stroke:#ffff33;" x="227.857163" xlink:href="#m2c1d4a348b" y="236.816963"/>
     <use style="fill:#ffff33;stroke:#ffff33;" x="353.682601" xlink:href="#m2c1d4a348b" y="236.469336"/>
    </g>
   </g>
   <g id="line2d_16">
    <defs>
     <path d="M 0 4 
C 1.060812 4 2.078319 3.578535 2.828427 2.828427 
C 3.578535 2.078319 4 1.060812 4 0 
C 4 -1.060812 3.578535 -2.078319 2.828427 -2.828427 
C 2.078319 -3.578535 1.060812 -4 0 -4 
C -1.060812 -4 -2.078319 -3.578535 -2.828427 -2.828427 
C -3.578535 -2.078319 -4 -1.060812 -4 0 
C -4 1.060812 -3.578535 2.078319 -2.828427 2.828427 
C -2.078319 3.578535 -1.060812 4 0 4 
z
" id="m544c758fef" style="stroke:#f781bf;"/>
    </defs>
    <g clip-path="url(#pa0ef638ec3)">
     <use style="fill:#f781bf;stroke:#f781bf;" x="395.85281" xlink:href="#m544c758fef" y="192.304325"/>
     <use style="fill:#f781bf;stroke:#f781bf;" x="196.027065" xlink:href="#m544c758fef" y="192.198384"/>
     <use style="fill:#f781bf;stroke:#f781bf;" x="205.993436" xlink:href="#m544c758fef" y="192.260542"/>
     <use style="fill:#f781bf;stroke:#f781bf;" x="218.70056" xlink:href="#m544c758fef" y="192.153178"/>
     <use style="fill:#f781bf;stroke:#f781bf;" x="331.258266" xlink:href="#m544c758fef" y="191.910791"/>
     <use style="fill:#f781bf;stroke:#f781bf;" x="211.288071" xlink:href="#m544c758fef" y="192.369839"/>
     <use style="fill:#f781bf;stroke:#f781bf;" x="225.42786" xlink:href="#m544c758fef" y="191.746919"/>
     <use style="fill:#f781bf;stroke:#f781bf;" x="96.363352" xlink:href="#m544c758fef" y="192.372431"/>
     <use style="fill:#f781bf;stroke:#f781bf;" x="227.047396" xlink:href="#m544c758fef" y="192.339037"/>
     <use style="fill:#f781bf;stroke:#f781bf;" x="244.488545" xlink:href="#m544c758fef" y="191.891183"/>
     <use style="fill:#f781bf;stroke:#f781bf;" x="227.483424" xlink:href="#m544c758fef" y="192.338336"/>
     <use style="fill:#f781bf;stroke:#f781bf;" x="354.305499" xlink:href="#m544c758fef" y="191.823013"/>
    </g>
   </g>
   <g id="line2d_17">
    <defs>
     <path d="M 0 4 
C 1.060812 4 2.078319 3.578535 2.828427 2.828427 
C 3.578535 2.078319 4 1.060812 4 0 
C 4 -1.060812 3.578535 -2.078319 2.828427 -2.828427 
C 2.078319 -3.578535 1.060812 -4 0 -4 
C -1.060812 -4 -2.078319 -3.578535 -2.828427 -2.828427 
C -3.578535 -2.078319 -4 -1.060812 -4 0 
C -4 1.060812 -3.578535 2.078319 -2.828427 2.828427 
C -2.078319 3.578535 -1.060812 4 0 4 
z
" id="m5f6f22aaef" style="stroke:#999999;"/>
    </defs>
    <g clip-path="url(#pa0ef638ec3)">
     <use style="fill:#999999;stroke:#999999;" x="205.619697" xlink:href="#m5f6f22aaef" y="295.770286"/>
     <use style="fill:#999999;stroke:#999999;" x="219.323458" xlink:href="#m5f6f22aaef" y="295.264714"/>
     <use style="fill:#999999;stroke:#999999;" x="95.833888" xlink:href="#m5f6f22aaef" y="295.755245"/>
     <use style="fill:#999999;stroke:#999999;" x="386.883075" xlink:href="#m5f6f22aaef" y="295.714267"/>
     <use style="fill:#999999;stroke:#999999;" x="195.528746" xlink:href="#m5f6f22aaef" y="295.729073"/>
     <use style="fill:#999999;stroke:#999999;" x="210.789752" xlink:href="#m5f6f22aaef" y="295.724591"/>
     <use style="fill:#999999;stroke:#999999;" x="199.203846" xlink:href="#m5f6f22aaef" y="295.724187"/>
     <use style="fill:#999999;stroke:#999999;" x="330.012469" xlink:href="#m5f6f22aaef" y="295.14641"/>
     <use style="fill:#999999;stroke:#999999;" x="220.257805" xlink:href="#m5f6f22aaef" y="295.771411"/>
     <use style="fill:#999999;stroke:#999999;" x="242.80672" xlink:href="#m5f6f22aaef" y="295.261443"/>
     <use style="fill:#999999;stroke:#999999;" x="228.106323" xlink:href="#m5f6f22aaef" y="295.725356"/>
     <use style="fill:#999999;stroke:#999999;" x="340.414869" xlink:href="#m5f6f22aaef" y="295.145156"/>
     <use style="fill:#999999;stroke:#999999;" x="279.931453" xlink:href="#m5f6f22aaef" y="295.77447"/>
     <use style="fill:#999999;stroke:#999999;" x="251.278136" xlink:href="#m5f6f22aaef" y="295.77583"/>
     <use style="fill:#999999;stroke:#999999;" x="279.557714" xlink:href="#m5f6f22aaef" y="295.774853"/>
     <use style="fill:#999999;stroke:#999999;" x="251.153556" xlink:href="#m5f6f22aaef" y="295.776"/>
    </g>
   </g>
   <g id="line2d_18">
    <defs>
     <path d="M 0 4 
C 1.060812 4 2.078319 3.578535 2.828427 2.828427 
C 3.578535 2.078319 4 1.060812 4 0 
C 4 -1.060812 3.578535 -2.078319 2.828427 -2.828427 
C 2.078319 -3.578535 1.060812 -4 0 -4 
C -1.060812 -4 -2.078319 -3.578535 -2.828427 -2.828427 
C -3.578535 -2.078319 -4 -1.060812 -4 0 
C -4 1.060812 -3.578535 2.078319 -2.828427 2.828427 
C -2.078319 3.578535 -1.060812 4 0 4 
z
" id="m3bff0f7a28" style="stroke:#e41a1c;"/>
    </defs>
    <g clip-path="url(#pa0ef638ec3)">
     <use style="fill:#e41a1c;stroke:#e41a1c;" x="205.619697" xlink:href="#m3bff0f7a28" y="251.93478"/>
     <use style="fill:#e41a1c;stroke:#e41a1c;" x="219.884066" xlink:href="#m3bff0f7a28" y="251.361442"/>
     <use style="fill:#e41a1c;stroke:#e41a1c;" x="211.350361" xlink:href="#m3bff0f7a28" y="251.893165"/>
     <use style="fill:#e41a1c;stroke:#e41a1c;" x="330.199339" xlink:href="#m3bff0f7a28" y="251.245645"/>
     <use style="fill:#e41a1c;stroke:#e41a1c;" x="96.238772" xlink:href="#m3bff0f7a28" y="251.910329"/>
     <use style="fill:#e41a1c;stroke:#e41a1c;" x="406.473224" xlink:href="#m3bff0f7a28" y="251.865782"/>
     <use style="fill:#e41a1c;stroke:#e41a1c;" x="185.313216" xlink:href="#m3bff0f7a28" y="251.905125"/>
     <use style="fill:#e41a1c;stroke:#e41a1c;" x="199.328425" xlink:href="#m3bff0f7a28" y="251.885156"/>
     <use style="fill:#e41a1c;stroke:#e41a1c;" x="238.197273" xlink:href="#m3bff0f7a28" y="251.936671"/>
     <use style="fill:#e41a1c;stroke:#e41a1c;" x="252.461642" xlink:href="#m3bff0f7a28" y="251.429591"/>
     <use style="fill:#e41a1c;stroke:#e41a1c;" x="238.820172" xlink:href="#m3bff0f7a28" y="251.892251"/>
     <use style="fill:#e41a1c;stroke:#e41a1c;" x="364.52103" xlink:href="#m3bff0f7a28" y="251.282332"/>
    </g>
   </g>
   <g id="line2d_19">
    <defs>
     <path d="M 0 4 
C 1.060812 4 2.078319 3.578535 2.828427 2.828427 
C 3.578535 2.078319 4 1.060812 4 0 
C 4 -1.060812 3.578535 -2.078319 2.828427 -2.828427 
C 2.078319 -3.578535 1.060812 -4 0 -4 
C -1.060812 -4 -2.078319 -3.578535 -2.828427 -2.828427 
C -3.578535 -2.078319 -4 -1.060812 -4 0 
C -4 1.060812 -3.578535 2.078319 -2.828427 2.828427 
C -2.078319 3.578535 -1.060812 4 0 4 
z
" id="m1dd9792440" style="stroke:#377eb8;"/>
    </defs>
    <g clip-path="url(#pa0ef638ec3)">
     <use style="fill:#377eb8;stroke:#377eb8;" x="220.257805" xlink:href="#m1dd9792440" y="251.435879"/>
     <use style="fill:#377eb8;stroke:#377eb8;" x="406.940398" xlink:href="#m1dd9792440" y="251.866079"/>
     <use style="fill:#377eb8;stroke:#377eb8;" x="231.220814" xlink:href="#m1dd9792440" y="251.90283"/>
     <use style="fill:#377eb8;stroke:#377eb8;" x="237.948114" xlink:href="#m1dd9792440" y="251.89053"/>
     <use style="fill:#377eb8;stroke:#377eb8;" x="254.268047" xlink:href="#m1dd9792440" y="251.899134"/>
     <use style="fill:#377eb8;stroke:#377eb8;" x="205.308248" xlink:href="#m1dd9792440" y="251.965689"/>
     <use style="fill:#377eb8;stroke:#377eb8;" x="82.285852" xlink:href="#m1dd9792440" y="251.957468"/>
     <use style="fill:#377eb8;stroke:#377eb8;" x="186.247563" xlink:href="#m1dd9792440" y="251.902405"/>
     <use style="fill:#377eb8;stroke:#377eb8;" x="238.508723" xlink:href="#m1dd9792440" y="251.935439"/>
     <use style="fill:#377eb8;stroke:#377eb8;" x="252.274773" xlink:href="#m1dd9792440" y="251.410005"/>
     <use style="fill:#377eb8;stroke:#377eb8;" x="251.340426" xlink:href="#m1dd9792440" y="251.959614"/>
     <use style="fill:#377eb8;stroke:#377eb8;" x="279.931453" xlink:href="#m1dd9792440" y="251.955514"/>
     <use style="fill:#377eb8;stroke:#377eb8;" x="96.238772" xlink:href="#m1dd9792440" y="251.940304"/>
     <use style="fill:#377eb8;stroke:#377eb8;" x="251.527295" xlink:href="#m1dd9792440" y="251.931233"/>
     <use style="fill:#377eb8;stroke:#377eb8;" x="203.128104" xlink:href="#m1dd9792440" y="251.806938"/>
     <use style="fill:#377eb8;stroke:#377eb8;" x="280.180613" xlink:href="#m1dd9792440" y="251.929767"/>
     <use style="fill:#377eb8;stroke:#377eb8;" x="213.717374" xlink:href="#m1dd9792440" y="251.912708"/>
     <use style="fill:#377eb8;stroke:#377eb8;" x="222.749398" xlink:href="#m1dd9792440" y="251.890509"/>
     <use style="fill:#377eb8;stroke:#377eb8;" x="215.02546" xlink:href="#m1dd9792440" y="251.915513"/>
     <use style="fill:#377eb8;stroke:#377eb8;" x="286.783334" xlink:href="#m1dd9792440" y="251.900578"/>
    </g>
   </g>
   <g id="patch_3">
    <path d="M 66.053125 307.872 
L 66.053125 41.76 
" style="fill:none;stroke:#000000;stroke-linecap:square;stroke-linejoin:miter;stroke-width:0.8;"/>
   </g>
   <g id="patch_4">
    <path d="M 423.173125 307.872 
L 423.173125 41.76 
" style="fill:none;stroke:#000000;stroke-linecap:square;stroke-linejoin:miter;stroke-width:0.8;"/>
   </g>
   <g id="patch_5">
    <path d="M 66.053125 307.872 
L 423.173125 307.872 
" style="fill:none;stroke:#000000;stroke-linecap:square;stroke-linejoin:miter;stroke-width:0.8;"/>
   </g>
   <g id="patch_6">
    <path d="M 66.053125 41.76 
L 423.173125 41.76 
" style="fill:none;stroke:#000000;stroke-linecap:square;stroke-linejoin:miter;stroke-width:0.8;"/>
   </g>
   <g id="legend_1">
    <g id="patch_7">
     <path d="M 426.814157 119.984709 
L 583.807293 119.984709 
Q 584.965293 119.984709 584.965293 118.826709 
L 584.965293 42.918 
Q 584.965293 41.76 583.807293 41.76 
L 426.814157 41.76 
Q 425.656157 41.76 425.656157 42.918 
L 425.656157 118.826709 
Q 425.656157 119.984709 426.814157 119.984709 
z
" style="fill:#ffffff;opacity:0.8;stroke:#cccccc;stroke-linejoin:miter;"/>
    </g>
    <g id="line2d_20"/>
    <g id="line2d_21">
     <g>
      <use style="fill:#ff7f00;stroke:#ff7f00;" x="433.762157" xlink:href="#m0d82cc12aa" y="46.448995"/>
     </g>
    </g>
    <g id="text_13">
     <!-- TLS-DHE-PSK - m=371996.795,var=0.001 -->
     <defs>
      <path d="M -0.296875 72.90625 
L 61.375 72.90625 
L 61.375 64.59375 
L 35.5 64.59375 
L 35.5 0 
L 25.59375 0 
L 25.59375 64.59375 
L -0.296875 64.59375 
z
" id="DejaVuSans-54"/>
      <path d="M 53.515625 70.515625 
L 53.515625 60.890625 
Q 47.90625 63.578125 42.921875 64.890625 
Q 37.9375 66.21875 33.296875 66.21875 
Q 25.25 66.21875 20.875 63.09375 
Q 16.5 59.96875 16.5 54.203125 
Q 16.5 49.359375 19.40625 46.890625 
Q 22.3125 44.4375 30.421875 42.921875 
L 36.375 41.703125 
Q 47.40625 39.59375 52.65625 34.296875 
Q 57.90625 29 57.90625 20.125 
Q 57.90625 9.515625 50.796875 4.046875 
Q 43.703125 -1.421875 29.984375 -1.421875 
Q 24.8125 -1.421875 18.96875 -0.25 
Q 13.140625 0.921875 6.890625 3.21875 
L 6.890625 13.375 
Q 12.890625 10.015625 18.65625 8.296875 
Q 24.421875 6.59375 29.984375 6.59375 
Q 38.421875 6.59375 43.015625 9.90625 
Q 47.609375 13.234375 47.609375 19.390625 
Q 47.609375 24.75 44.3125 27.78125 
Q 41.015625 30.8125 33.5 32.328125 
L 27.484375 33.5 
Q 16.453125 35.6875 11.515625 40.375 
Q 6.59375 45.0625 6.59375 53.421875 
Q 6.59375 63.09375 13.40625 68.65625 
Q 20.21875 74.21875 32.171875 74.21875 
Q 37.3125 74.21875 42.625 73.28125 
Q 47.953125 72.359375 53.515625 70.515625 
" id="DejaVuSans-53"/>
      <path d="M 4.890625 31.390625 
L 31.203125 31.390625 
L 31.203125 23.390625 
L 4.890625 23.390625 
z
" id="DejaVuSans-2d"/>
      <path d="M 19.671875 64.796875 
L 19.671875 8.109375 
L 31.59375 8.109375 
Q 46.6875 8.109375 53.6875 14.9375 
Q 60.6875 21.78125 60.6875 36.53125 
Q 60.6875 51.171875 53.6875 57.984375 
Q 46.6875 64.796875 31.59375 64.796875 
z
M 9.8125 72.90625 
L 30.078125 72.90625 
Q 51.265625 72.90625 61.171875 64.09375 
Q 71.09375 55.28125 71.09375 36.53125 
Q 71.09375 17.671875 61.125 8.828125 
Q 51.171875 0 30.078125 0 
L 9.8125 0 
z
" id="DejaVuSans-44"/>
      <path d="M 9.8125 72.90625 
L 55.90625 72.90625 
L 55.90625 64.59375 
L 19.671875 64.59375 
L 19.671875 43.015625 
L 54.390625 43.015625 
L 54.390625 34.71875 
L 19.671875 34.71875 
L 19.671875 8.296875 
L 56.78125 8.296875 
L 56.78125 0 
L 9.8125 0 
z
" id="DejaVuSans-45"/>
      <path d="M 19.671875 64.796875 
L 19.671875 37.40625 
L 32.078125 37.40625 
Q 38.96875 37.40625 42.71875 40.96875 
Q 46.484375 44.53125 46.484375 51.125 
Q 46.484375 57.671875 42.71875 61.234375 
Q 38.96875 64.796875 32.078125 64.796875 
z
M 9.8125 72.90625 
L 32.078125 72.90625 
Q 44.34375 72.90625 50.609375 67.359375 
Q 56.890625 61.8125 56.890625 51.125 
Q 56.890625 40.328125 50.609375 34.8125 
Q 44.34375 29.296875 32.078125 29.296875 
L 19.671875 29.296875 
L 19.671875 0 
L 9.8125 0 
z
" id="DejaVuSans-50"/>
      <path d="M 9.8125 72.90625 
L 19.671875 72.90625 
L 19.671875 42.09375 
L 52.390625 72.90625 
L 65.09375 72.90625 
L 28.90625 38.921875 
L 67.671875 0 
L 54.6875 0 
L 19.671875 35.109375 
L 19.671875 0 
L 9.8125 0 
z
" id="DejaVuSans-4b"/>
      <path d="M 52 44.1875 
Q 55.375 50.25 60.0625 53.125 
Q 64.75 56 71.09375 56 
Q 79.640625 56 84.28125 50.015625 
Q 88.921875 44.046875 88.921875 33.015625 
L 88.921875 0 
L 79.890625 0 
L 79.890625 32.71875 
Q 79.890625 40.578125 77.09375 44.375 
Q 74.3125 48.1875 68.609375 48.1875 
Q 61.625 48.1875 57.5625 43.546875 
Q 53.515625 38.921875 53.515625 30.90625 
L 53.515625 0 
L 44.484375 0 
L 44.484375 32.71875 
Q 44.484375 40.625 41.703125 44.40625 
Q 38.921875 48.1875 33.109375 48.1875 
Q 26.21875 48.1875 22.15625 43.53125 
Q 18.109375 38.875 18.109375 30.90625 
L 18.109375 0 
L 9.078125 0 
L 9.078125 54.6875 
L 18.109375 54.6875 
L 18.109375 46.1875 
Q 21.1875 51.21875 25.484375 53.609375 
Q 29.78125 56 35.6875 56 
Q 41.65625 56 45.828125 52.96875 
Q 50 49.953125 52 44.1875 
" id="DejaVuSans-6d"/>
      <path d="M 10.59375 45.40625 
L 73.1875 45.40625 
L 73.1875 37.203125 
L 10.59375 37.203125 
z
M 10.59375 25.484375 
L 73.1875 25.484375 
L 73.1875 17.1875 
L 10.59375 17.1875 
z
" id="DejaVuSans-3d"/>
      <path d="M 8.203125 72.90625 
L 55.078125 72.90625 
L 55.078125 68.703125 
L 28.609375 0 
L 18.3125 0 
L 43.21875 64.59375 
L 8.203125 64.59375 
z
" id="DejaVuSans-37"/>
      <path d="M 10.984375 1.515625 
L 10.984375 10.5 
Q 14.703125 8.734375 18.5 7.8125 
Q 22.3125 6.890625 25.984375 6.890625 
Q 35.75 6.890625 40.890625 13.453125 
Q 46.046875 20.015625 46.78125 33.40625 
Q 43.953125 29.203125 39.59375 26.953125 
Q 35.25 24.703125 29.984375 24.703125 
Q 19.046875 24.703125 12.671875 31.3125 
Q 6.296875 37.9375 6.296875 49.421875 
Q 6.296875 60.640625 12.9375 67.421875 
Q 19.578125 74.21875 30.609375 74.21875 
Q 43.265625 74.21875 49.921875 64.515625 
Q 56.59375 54.828125 56.59375 36.375 
Q 56.59375 19.140625 48.40625 8.859375 
Q 40.234375 -1.421875 26.421875 -1.421875 
Q 22.703125 -1.421875 18.890625 -0.6875 
Q 15.09375 0.046875 10.984375 1.515625 
M 30.609375 32.421875 
Q 37.25 32.421875 41.125 36.953125 
Q 45.015625 41.5 45.015625 49.421875 
Q 45.015625 57.28125 41.125 61.84375 
Q 37.25 66.40625 30.609375 66.40625 
Q 23.96875 66.40625 20.09375 61.84375 
Q 16.21875 57.28125 16.21875 49.421875 
Q 16.21875 41.5 20.09375 36.953125 
Q 23.96875 32.421875 30.609375 32.421875 
" id="DejaVuSans-39"/>
      <path d="M 33.015625 40.375 
Q 26.375 40.375 22.484375 35.828125 
Q 18.609375 31.296875 18.609375 23.390625 
Q 18.609375 15.53125 22.484375 10.953125 
Q 26.375 6.390625 33.015625 6.390625 
Q 39.65625 6.390625 43.53125 10.953125 
Q 47.40625 15.53125 47.40625 23.390625 
Q 47.40625 31.296875 43.53125 35.828125 
Q 39.65625 40.375 33.015625 40.375 
M 52.59375 71.296875 
L 52.59375 62.3125 
Q 48.875 64.0625 45.09375 64.984375 
Q 41.3125 65.921875 37.59375 65.921875 
Q 27.828125 65.921875 22.671875 59.328125 
Q 17.53125 52.734375 16.796875 39.40625 
Q 19.671875 43.65625 24.015625 45.921875 
Q 28.375 48.1875 33.59375 48.1875 
Q 44.578125 48.1875 50.953125 41.515625 
Q 57.328125 34.859375 57.328125 23.390625 
Q 57.328125 12.15625 50.6875 5.359375 
Q 44.046875 -1.421875 33.015625 -1.421875 
Q 20.359375 -1.421875 13.671875 8.265625 
Q 6.984375 17.96875 6.984375 36.375 
Q 6.984375 53.65625 15.1875 63.9375 
Q 23.390625 74.21875 37.203125 74.21875 
Q 40.921875 74.21875 44.703125 73.484375 
Q 48.484375 72.75 52.59375 71.296875 
" id="DejaVuSans-36"/>
      <path d="M 10.6875 12.40625 
L 21 12.40625 
L 21 0 
L 10.6875 0 
z
" id="DejaVuSans-2e"/>
      <path d="M 11.71875 12.40625 
L 22.015625 12.40625 
L 22.015625 4 
L 14.015625 -11.625 
L 7.71875 -11.625 
L 11.71875 4 
z
" id="DejaVuSans-2c"/>
      <path d="M 2.984375 54.6875 
L 12.5 54.6875 
L 29.59375 8.796875 
L 46.6875 54.6875 
L 56.203125 54.6875 
L 35.6875 0 
L 23.484375 0 
z
" id="DejaVuSans-76"/>
      <path d="M 41.109375 46.296875 
Q 39.59375 47.171875 37.8125 47.578125 
Q 36.03125 48 33.890625 48 
Q 26.265625 48 22.1875 43.046875 
Q 18.109375 38.09375 18.109375 28.8125 
L 18.109375 0 
L 9.078125 0 
L 9.078125 54.6875 
L 18.109375 54.6875 
L 18.109375 46.1875 
Q 20.953125 51.171875 25.484375 53.578125 
Q 30.03125 56 36.53125 56 
Q 37.453125 56 38.578125 55.875 
Q 39.703125 55.765625 41.0625 55.515625 
z
" id="DejaVuSans-72"/>
     </defs>
     <g transform="translate(444.184157 48.475495)scale(0.0579 -0.0579)">
      <use xlink:href="#DejaVuSans-54"/>
      <use x="61.083984" xlink:href="#DejaVuSans-4c"/>
      <use x="116.796875" xlink:href="#DejaVuSans-53"/>
      <use x="180.273438" xlink:href="#DejaVuSans-2d"/>
      <use x="216.357422" xlink:href="#DejaVuSans-44"/>
      <use x="293.359375" xlink:href="#DejaVuSans-48"/>
      <use x="368.554688" xlink:href="#DejaVuSans-45"/>
      <use x="431.738281" xlink:href="#DejaVuSans-2d"/>
      <use x="467.822266" xlink:href="#DejaVuSans-50"/>
      <use x="528.125" xlink:href="#DejaVuSans-53"/>
      <use x="591.601562" xlink:href="#DejaVuSans-4b"/>
      <use x="657.177734" xlink:href="#DejaVuSans-20"/>
      <use x="688.964844" xlink:href="#DejaVuSans-2d"/>
      <use x="725.048828" xlink:href="#DejaVuSans-20"/>
      <use x="756.835938" xlink:href="#DejaVuSans-6d"/>
      <use x="854.248047" xlink:href="#DejaVuSans-3d"/>
      <use x="938.037109" xlink:href="#DejaVuSans-33"/>
      <use x="1001.660156" xlink:href="#DejaVuSans-37"/>
      <use x="1065.283203" xlink:href="#DejaVuSans-31"/>
      <use x="1128.90625" xlink:href="#DejaVuSans-39"/>
      <use x="1192.529297" xlink:href="#DejaVuSans-39"/>
      <use x="1256.152344" xlink:href="#DejaVuSans-36"/>
      <use x="1319.775391" xlink:href="#DejaVuSans-2e"/>
      <use x="1351.5625" xlink:href="#DejaVuSans-37"/>
      <use x="1415.185547" xlink:href="#DejaVuSans-39"/>
      <use x="1478.808594" xlink:href="#DejaVuSans-35"/>
      <use x="1542.431641" xlink:href="#DejaVuSans-2c"/>
      <use x="1574.21875" xlink:href="#DejaVuSans-76"/>
      <use x="1633.398438" xlink:href="#DejaVuSans-61"/>
      <use x="1694.677734" xlink:href="#DejaVuSans-72"/>
      <use x="1735.791016" xlink:href="#DejaVuSans-3d"/>
      <use x="1819.580078" xlink:href="#DejaVuSans-30"/>
      <use x="1883.203125" xlink:href="#DejaVuSans-2e"/>
      <use x="1914.990234" xlink:href="#DejaVuSans-30"/>
      <use x="1978.613281" xlink:href="#DejaVuSans-30"/>
      <use x="2042.236328" xlink:href="#DejaVuSans-31"/>
     </g>
    </g>
    <g id="line2d_22"/>
    <g id="line2d_23">
     <g>
      <use style="fill:#984ea3;stroke:#984ea3;" x="433.762157" xlink:href="#me701fae187" y="54.94763"/>
     </g>
    </g>
    <g id="text_14">
     <!-- TLS-DHE-RSA - m=455905.191,var=0.001 -->
     <defs>
      <path d="M 44.390625 34.1875 
Q 47.5625 33.109375 50.5625 29.59375 
Q 53.5625 26.078125 56.59375 19.921875 
L 66.609375 0 
L 56 0 
L 46.6875 18.703125 
Q 43.0625 26.03125 39.671875 28.421875 
Q 36.28125 30.8125 30.421875 30.8125 
L 19.671875 30.8125 
L 19.671875 0 
L 9.8125 0 
L 9.8125 72.90625 
L 32.078125 72.90625 
Q 44.578125 72.90625 50.734375 67.671875 
Q 56.890625 62.453125 56.890625 51.90625 
Q 56.890625 45.015625 53.6875 40.46875 
Q 50.484375 35.9375 44.390625 34.1875 
M 19.671875 64.796875 
L 19.671875 38.921875 
L 32.078125 38.921875 
Q 39.203125 38.921875 42.84375 42.21875 
Q 46.484375 45.515625 46.484375 51.90625 
Q 46.484375 58.296875 42.84375 61.546875 
Q 39.203125 64.796875 32.078125 64.796875 
z
" id="DejaVuSans-52"/>
      <path d="M 34.1875 63.1875 
L 20.796875 26.90625 
L 47.609375 26.90625 
z
M 28.609375 72.90625 
L 39.796875 72.90625 
L 67.578125 0 
L 57.328125 0 
L 50.6875 18.703125 
L 17.828125 18.703125 
L 11.1875 0 
L 0.78125 0 
z
" id="DejaVuSans-41"/>
     </defs>
     <g transform="translate(444.184157 56.97413)scale(0.0579 -0.0579)">
      <use xlink:href="#DejaVuSans-54"/>
      <use x="61.083984" xlink:href="#DejaVuSans-4c"/>
      <use x="116.796875" xlink:href="#DejaVuSans-53"/>
      <use x="180.273438" xlink:href="#DejaVuSans-2d"/>
      <use x="216.357422" xlink:href="#DejaVuSans-44"/>
      <use x="293.359375" xlink:href="#DejaVuSans-48"/>
      <use x="368.554688" xlink:href="#DejaVuSans-45"/>
      <use x="431.738281" xlink:href="#DejaVuSans-2d"/>
      <use x="467.822266" xlink:href="#DejaVuSans-52"/>
      <use x="537.304688" xlink:href="#DejaVuSans-53"/>
      <use x="600.796875" xlink:href="#DejaVuSans-41"/>
      <use x="669.205078" xlink:href="#DejaVuSans-20"/>
      <use x="700.992188" xlink:href="#DejaVuSans-2d"/>
      <use x="737.076172" xlink:href="#DejaVuSans-20"/>
      <use x="768.863281" xlink:href="#DejaVuSans-6d"/>
      <use x="866.275391" xlink:href="#DejaVuSans-3d"/>
      <use x="950.064453" xlink:href="#DejaVuSans-34"/>
      <use x="1013.6875" xlink:href="#DejaVuSans-35"/>
      <use x="1077.310547" xlink:href="#DejaVuSans-35"/>
      <use x="1140.933594" xlink:href="#DejaVuSans-39"/>
      <use x="1204.556641" xlink:href="#DejaVuSans-30"/>
      <use x="1268.179688" xlink:href="#DejaVuSans-35"/>
      <use x="1331.802734" xlink:href="#DejaVuSans-2e"/>
      <use x="1363.589844" xlink:href="#DejaVuSans-31"/>
      <use x="1427.212891" xlink:href="#DejaVuSans-39"/>
      <use x="1490.835938" xlink:href="#DejaVuSans-31"/>
      <use x="1554.458984" xlink:href="#DejaVuSans-2c"/>
      <use x="1586.246094" xlink:href="#DejaVuSans-76"/>
      <use x="1645.425781" xlink:href="#DejaVuSans-61"/>
      <use x="1706.705078" xlink:href="#DejaVuSans-72"/>
      <use x="1747.818359" xlink:href="#DejaVuSans-3d"/>
      <use x="1831.607422" xlink:href="#DejaVuSans-30"/>
      <use x="1895.230469" xlink:href="#DejaVuSans-2e"/>
      <use x="1927.017578" xlink:href="#DejaVuSans-30"/>
      <use x="1990.640625" xlink:href="#DejaVuSans-30"/>
      <use x="2054.263672" xlink:href="#DejaVuSans-31"/>
     </g>
    </g>
    <g id="line2d_24"/>
    <g id="line2d_25">
     <g>
      <use style="fill:#4daf4a;stroke:#4daf4a;" x="433.762157" xlink:href="#m039e9f95ac" y="63.446264"/>
     </g>
    </g>
    <g id="text_15">
     <!-- TLS-ECDH- - m=22800.687,var=0.022 -->
     <defs>
      <path d="M 64.40625 67.28125 
L 64.40625 56.890625 
Q 59.421875 61.53125 53.78125 63.8125 
Q 48.140625 66.109375 41.796875 66.109375 
Q 29.296875 66.109375 22.65625 58.46875 
Q 16.015625 50.828125 16.015625 36.375 
Q 16.015625 21.96875 22.65625 14.328125 
Q 29.296875 6.6875 41.796875 6.6875 
Q 48.140625 6.6875 53.78125 8.984375 
Q 59.421875 11.28125 64.40625 15.921875 
L 64.40625 5.609375 
Q 59.234375 2.09375 53.4375 0.328125 
Q 47.65625 -1.421875 41.21875 -1.421875 
Q 24.65625 -1.421875 15.125 8.703125 
Q 5.609375 18.84375 5.609375 36.375 
Q 5.609375 53.953125 15.125 64.078125 
Q 24.65625 74.21875 41.21875 74.21875 
Q 47.75 74.21875 53.53125 72.484375 
Q 59.328125 70.75 64.40625 67.28125 
" id="DejaVuSans-43"/>
      <path d="M 31.78125 34.625 
Q 24.75 34.625 20.71875 30.859375 
Q 16.703125 27.09375 16.703125 20.515625 
Q 16.703125 13.921875 20.71875 10.15625 
Q 24.75 6.390625 31.78125 6.390625 
Q 38.8125 6.390625 42.859375 10.171875 
Q 46.921875 13.96875 46.921875 20.515625 
Q 46.921875 27.09375 42.890625 30.859375 
Q 38.875 34.625 31.78125 34.625 
M 21.921875 38.8125 
Q 15.578125 40.375 12.03125 44.71875 
Q 8.5 49.078125 8.5 55.328125 
Q 8.5 64.0625 14.71875 69.140625 
Q 20.953125 74.21875 31.78125 74.21875 
Q 42.671875 74.21875 48.875 69.140625 
Q 55.078125 64.0625 55.078125 55.328125 
Q 55.078125 49.078125 51.53125 44.71875 
Q 48 40.375 41.703125 38.8125 
Q 48.828125 37.15625 52.796875 32.3125 
Q 56.78125 27.484375 56.78125 20.515625 
Q 56.78125 9.90625 50.3125 4.234375 
Q 43.84375 -1.421875 31.78125 -1.421875 
Q 19.734375 -1.421875 13.25 4.234375 
Q 6.78125 9.90625 6.78125 20.515625 
Q 6.78125 27.484375 10.78125 32.3125 
Q 14.796875 37.15625 21.921875 38.8125 
M 18.3125 54.390625 
Q 18.3125 48.734375 21.84375 45.5625 
Q 25.390625 42.390625 31.78125 42.390625 
Q 38.140625 42.390625 41.71875 45.5625 
Q 45.3125 48.734375 45.3125 54.390625 
Q 45.3125 60.0625 41.71875 63.234375 
Q 38.140625 66.40625 31.78125 66.40625 
Q 25.390625 66.40625 21.84375 63.234375 
Q 18.3125 60.0625 18.3125 54.390625 
" id="DejaVuSans-38"/>
     </defs>
     <g transform="translate(444.184157 65.472764)scale(0.0579 -0.0579)">
      <use xlink:href="#DejaVuSans-54"/>
      <use x="61.083984" xlink:href="#DejaVuSans-4c"/>
      <use x="116.796875" xlink:href="#DejaVuSans-53"/>
      <use x="180.273438" xlink:href="#DejaVuSans-2d"/>
      <use x="216.357422" xlink:href="#DejaVuSans-45"/>
      <use x="279.541016" xlink:href="#DejaVuSans-43"/>
      <use x="349.365234" xlink:href="#DejaVuSans-44"/>
      <use x="426.367188" xlink:href="#DejaVuSans-48"/>
      <use x="501.5625" xlink:href="#DejaVuSans-2d"/>
      <use x="537.646484" xlink:href="#DejaVuSans-20"/>
      <use x="569.433594" xlink:href="#DejaVuSans-2d"/>
      <use x="605.517578" xlink:href="#DejaVuSans-20"/>
      <use x="637.304688" xlink:href="#DejaVuSans-6d"/>
      <use x="734.716797" xlink:href="#DejaVuSans-3d"/>
      <use x="818.505859" xlink:href="#DejaVuSans-32"/>
      <use x="882.128906" xlink:href="#DejaVuSans-32"/>
      <use x="945.751953" xlink:href="#DejaVuSans-38"/>
      <use x="1009.375" xlink:href="#DejaVuSans-30"/>
      <use x="1072.998047" xlink:href="#DejaVuSans-30"/>
      <use x="1136.621094" xlink:href="#DejaVuSans-2e"/>
      <use x="1168.408203" xlink:href="#DejaVuSans-36"/>
      <use x="1232.03125" xlink:href="#DejaVuSans-38"/>
      <use x="1295.654297" xlink:href="#DejaVuSans-37"/>
      <use x="1359.277344" xlink:href="#DejaVuSans-2c"/>
      <use x="1391.064453" xlink:href="#DejaVuSans-76"/>
      <use x="1450.244141" xlink:href="#DejaVuSans-61"/>
      <use x="1511.523438" xlink:href="#DejaVuSans-72"/>
      <use x="1552.636719" xlink:href="#DejaVuSans-3d"/>
      <use x="1636.425781" xlink:href="#DejaVuSans-30"/>
      <use x="1700.048828" xlink:href="#DejaVuSans-2e"/>
      <use x="1731.835938" xlink:href="#DejaVuSans-30"/>
      <use x="1795.458984" xlink:href="#DejaVuSans-32"/>
      <use x="1859.082031" xlink:href="#DejaVuSans-32"/>
     </g>
    </g>
    <g id="line2d_26"/>
    <g id="line2d_27">
     <g>
      <use style="fill:#a65628;stroke:#a65628;" x="433.762157" xlink:href="#m91ada0ab35" y="71.944898"/>
     </g>
    </g>
    <g id="text_16">
     <!-- TLS-ECDHE-ECDSA - m=135929.445,var=0.003 -->
     <g transform="translate(444.184157 73.971398)scale(0.0579 -0.0579)">
      <use xlink:href="#DejaVuSans-54"/>
      <use x="61.083984" xlink:href="#DejaVuSans-4c"/>
      <use x="116.796875" xlink:href="#DejaVuSans-53"/>
      <use x="180.273438" xlink:href="#DejaVuSans-2d"/>
      <use x="216.357422" xlink:href="#DejaVuSans-45"/>
      <use x="279.541016" xlink:href="#DejaVuSans-43"/>
      <use x="349.365234" xlink:href="#DejaVuSans-44"/>
      <use x="426.367188" xlink:href="#DejaVuSans-48"/>
      <use x="501.5625" xlink:href="#DejaVuSans-45"/>
      <use x="564.746094" xlink:href="#DejaVuSans-2d"/>
      <use x="600.830078" xlink:href="#DejaVuSans-45"/>
      <use x="664.013672" xlink:href="#DejaVuSans-43"/>
      <use x="733.837891" xlink:href="#DejaVuSans-44"/>
      <use x="810.839844" xlink:href="#DejaVuSans-53"/>
      <use x="874.332031" xlink:href="#DejaVuSans-41"/>
      <use x="942.740234" xlink:href="#DejaVuSans-20"/>
      <use x="974.527344" xlink:href="#DejaVuSans-2d"/>
      <use x="1010.611328" xlink:href="#DejaVuSans-20"/>
      <use x="1042.398438" xlink:href="#DejaVuSans-6d"/>
      <use x="1139.810547" xlink:href="#DejaVuSans-3d"/>
      <use x="1223.599609" xlink:href="#DejaVuSans-31"/>
      <use x="1287.222656" xlink:href="#DejaVuSans-33"/>
      <use x="1350.845703" xlink:href="#DejaVuSans-35"/>
      <use x="1414.46875" xlink:href="#DejaVuSans-39"/>
      <use x="1478.091797" xlink:href="#DejaVuSans-32"/>
      <use x="1541.714844" xlink:href="#DejaVuSans-39"/>
      <use x="1605.337891" xlink:href="#DejaVuSans-2e"/>
      <use x="1637.125" xlink:href="#DejaVuSans-34"/>
      <use x="1700.748047" xlink:href="#DejaVuSans-34"/>
      <use x="1764.371094" xlink:href="#DejaVuSans-35"/>
      <use x="1827.994141" xlink:href="#DejaVuSans-2c"/>
      <use x="1859.78125" xlink:href="#DejaVuSans-76"/>
      <use x="1918.960938" xlink:href="#DejaVuSans-61"/>
      <use x="1980.240234" xlink:href="#DejaVuSans-72"/>
      <use x="2021.353516" xlink:href="#DejaVuSans-3d"/>
      <use x="2105.142578" xlink:href="#DejaVuSans-30"/>
      <use x="2168.765625" xlink:href="#DejaVuSans-2e"/>
      <use x="2200.552734" xlink:href="#DejaVuSans-30"/>
      <use x="2264.175781" xlink:href="#DejaVuSans-30"/>
      <use x="2327.798828" xlink:href="#DejaVuSans-33"/>
     </g>
    </g>
    <g id="line2d_28"/>
    <g id="line2d_29">
     <g>
      <use style="fill:#ffff33;stroke:#ffff33;" x="433.762157" xlink:href="#m2c1d4a348b" y="80.443533"/>
     </g>
    </g>
    <g id="text_17">
     <!-- TLS-ECDHE-PSK - m=112224.870,var=0.004 -->
     <g transform="translate(444.184157 82.470033)scale(0.0579 -0.0579)">
      <use xlink:href="#DejaVuSans-54"/>
      <use x="61.083984" xlink:href="#DejaVuSans-4c"/>
      <use x="116.796875" xlink:href="#DejaVuSans-53"/>
      <use x="180.273438" xlink:href="#DejaVuSans-2d"/>
      <use x="216.357422" xlink:href="#DejaVuSans-45"/>
      <use x="279.541016" xlink:href="#DejaVuSans-43"/>
      <use x="349.365234" xlink:href="#DejaVuSans-44"/>
      <use x="426.367188" xlink:href="#DejaVuSans-48"/>
      <use x="501.5625" xlink:href="#DejaVuSans-45"/>
      <use x="564.746094" xlink:href="#DejaVuSans-2d"/>
      <use x="600.830078" xlink:href="#DejaVuSans-50"/>
      <use x="661.132812" xlink:href="#DejaVuSans-53"/>
      <use x="724.609375" xlink:href="#DejaVuSans-4b"/>
      <use x="790.185547" xlink:href="#DejaVuSans-20"/>
      <use x="821.972656" xlink:href="#DejaVuSans-2d"/>
      <use x="858.056641" xlink:href="#DejaVuSans-20"/>
      <use x="889.84375" xlink:href="#DejaVuSans-6d"/>
      <use x="987.255859" xlink:href="#DejaVuSans-3d"/>
      <use x="1071.044922" xlink:href="#DejaVuSans-31"/>
      <use x="1134.667969" xlink:href="#DejaVuSans-31"/>
      <use x="1198.291016" xlink:href="#DejaVuSans-32"/>
      <use x="1261.914062" xlink:href="#DejaVuSans-32"/>
      <use x="1325.537109" xlink:href="#DejaVuSans-32"/>
      <use x="1389.160156" xlink:href="#DejaVuSans-34"/>
      <use x="1452.783203" xlink:href="#DejaVuSans-2e"/>
      <use x="1484.570312" xlink:href="#DejaVuSans-38"/>
      <use x="1548.193359" xlink:href="#DejaVuSans-37"/>
      <use x="1611.816406" xlink:href="#DejaVuSans-30"/>
      <use x="1675.439453" xlink:href="#DejaVuSans-2c"/>
      <use x="1707.226562" xlink:href="#DejaVuSans-76"/>
      <use x="1766.40625" xlink:href="#DejaVuSans-61"/>
      <use x="1827.685547" xlink:href="#DejaVuSans-72"/>
      <use x="1868.798828" xlink:href="#DejaVuSans-3d"/>
      <use x="1952.587891" xlink:href="#DejaVuSans-30"/>
      <use x="2016.210938" xlink:href="#DejaVuSans-2e"/>
      <use x="2047.998047" xlink:href="#DejaVuSans-30"/>
      <use x="2111.621094" xlink:href="#DejaVuSans-30"/>
      <use x="2175.244141" xlink:href="#DejaVuSans-34"/>
     </g>
    </g>
    <g id="line2d_30"/>
    <g id="line2d_31">
     <g>
      <use style="fill:#f781bf;stroke:#f781bf;" x="433.762157" xlink:href="#m544c758fef" y="88.942167"/>
     </g>
    </g>
    <g id="text_18">
     <!-- TLS-ECDHE-RSA - m=196362.623,var=0.002 -->
     <g transform="translate(444.184157 90.968667)scale(0.0579 -0.0579)">
      <use xlink:href="#DejaVuSans-54"/>
      <use x="61.083984" xlink:href="#DejaVuSans-4c"/>
      <use x="116.796875" xlink:href="#DejaVuSans-53"/>
      <use x="180.273438" xlink:href="#DejaVuSans-2d"/>
      <use x="216.357422" xlink:href="#DejaVuSans-45"/>
      <use x="279.541016" xlink:href="#DejaVuSans-43"/>
      <use x="349.365234" xlink:href="#DejaVuSans-44"/>
      <use x="426.367188" xlink:href="#DejaVuSans-48"/>
      <use x="501.5625" xlink:href="#DejaVuSans-45"/>
      <use x="564.746094" xlink:href="#DejaVuSans-2d"/>
      <use x="600.830078" xlink:href="#DejaVuSans-52"/>
      <use x="670.3125" xlink:href="#DejaVuSans-53"/>
      <use x="733.804688" xlink:href="#DejaVuSans-41"/>
      <use x="802.212891" xlink:href="#DejaVuSans-20"/>
      <use x="834" xlink:href="#DejaVuSans-2d"/>
      <use x="870.083984" xlink:href="#DejaVuSans-20"/>
      <use x="901.871094" xlink:href="#DejaVuSans-6d"/>
      <use x="999.283203" xlink:href="#DejaVuSans-3d"/>
      <use x="1083.072266" xlink:href="#DejaVuSans-31"/>
      <use x="1146.695312" xlink:href="#DejaVuSans-39"/>
      <use x="1210.318359" xlink:href="#DejaVuSans-36"/>
      <use x="1273.941406" xlink:href="#DejaVuSans-33"/>
      <use x="1337.564453" xlink:href="#DejaVuSans-36"/>
      <use x="1401.1875" xlink:href="#DejaVuSans-32"/>
      <use x="1464.810547" xlink:href="#DejaVuSans-2e"/>
      <use x="1496.597656" xlink:href="#DejaVuSans-36"/>
      <use x="1560.220703" xlink:href="#DejaVuSans-32"/>
      <use x="1623.84375" xlink:href="#DejaVuSans-33"/>
      <use x="1687.466797" xlink:href="#DejaVuSans-2c"/>
      <use x="1719.253906" xlink:href="#DejaVuSans-76"/>
      <use x="1778.433594" xlink:href="#DejaVuSans-61"/>
      <use x="1839.712891" xlink:href="#DejaVuSans-72"/>
      <use x="1880.826172" xlink:href="#DejaVuSans-3d"/>
      <use x="1964.615234" xlink:href="#DejaVuSans-30"/>
      <use x="2028.238281" xlink:href="#DejaVuSans-2e"/>
      <use x="2060.025391" xlink:href="#DejaVuSans-30"/>
      <use x="2123.648438" xlink:href="#DejaVuSans-30"/>
      <use x="2187.271484" xlink:href="#DejaVuSans-32"/>
     </g>
    </g>
    <g id="line2d_32"/>
    <g id="line2d_33">
     <g>
      <use style="fill:#999999;stroke:#999999;" x="433.762157" xlink:href="#m5f6f22aaef" y="97.440802"/>
     </g>
    </g>
    <g id="text_19">
     <!-- TLS-PSK - m=1530.742,var=0.304 -->
     <g transform="translate(444.184157 99.467302)scale(0.0579 -0.0579)">
      <use xlink:href="#DejaVuSans-54"/>
      <use x="61.083984" xlink:href="#DejaVuSans-4c"/>
      <use x="116.796875" xlink:href="#DejaVuSans-53"/>
      <use x="180.273438" xlink:href="#DejaVuSans-2d"/>
      <use x="216.357422" xlink:href="#DejaVuSans-50"/>
      <use x="276.660156" xlink:href="#DejaVuSans-53"/>
      <use x="340.136719" xlink:href="#DejaVuSans-4b"/>
      <use x="405.712891" xlink:href="#DejaVuSans-20"/>
      <use x="437.5" xlink:href="#DejaVuSans-2d"/>
      <use x="473.583984" xlink:href="#DejaVuSans-20"/>
      <use x="505.371094" xlink:href="#DejaVuSans-6d"/>
      <use x="602.783203" xlink:href="#DejaVuSans-3d"/>
      <use x="686.572266" xlink:href="#DejaVuSans-31"/>
      <use x="750.195312" xlink:href="#DejaVuSans-35"/>
      <use x="813.818359" xlink:href="#DejaVuSans-33"/>
      <use x="877.441406" xlink:href="#DejaVuSans-30"/>
      <use x="941.064453" xlink:href="#DejaVuSans-2e"/>
      <use x="972.851562" xlink:href="#DejaVuSans-37"/>
      <use x="1036.474609" xlink:href="#DejaVuSans-34"/>
      <use x="1100.097656" xlink:href="#DejaVuSans-32"/>
      <use x="1163.720703" xlink:href="#DejaVuSans-2c"/>
      <use x="1195.507812" xlink:href="#DejaVuSans-76"/>
      <use x="1254.6875" xlink:href="#DejaVuSans-61"/>
      <use x="1315.966797" xlink:href="#DejaVuSans-72"/>
      <use x="1357.080078" xlink:href="#DejaVuSans-3d"/>
      <use x="1440.869141" xlink:href="#DejaVuSans-30"/>
      <use x="1504.492188" xlink:href="#DejaVuSans-2e"/>
      <use x="1536.279297" xlink:href="#DejaVuSans-33"/>
      <use x="1599.902344" xlink:href="#DejaVuSans-30"/>
      <use x="1663.525391" xlink:href="#DejaVuSans-34"/>
     </g>
    </g>
    <g id="line2d_34"/>
    <g id="line2d_35">
     <g>
      <use style="fill:#e41a1c;stroke:#e41a1c;" x="433.762157" xlink:href="#m3bff0f7a28" y="105.939436"/>
     </g>
    </g>
    <g id="text_20">
     <!-- TLS-RSA-PSK - m=84196.873,var=0.006 -->
     <g transform="translate(444.184157 107.965936)scale(0.0579 -0.0579)">
      <use xlink:href="#DejaVuSans-54"/>
      <use x="61.083984" xlink:href="#DejaVuSans-4c"/>
      <use x="116.796875" xlink:href="#DejaVuSans-53"/>
      <use x="180.273438" xlink:href="#DejaVuSans-2d"/>
      <use x="216.357422" xlink:href="#DejaVuSans-52"/>
      <use x="285.839844" xlink:href="#DejaVuSans-53"/>
      <use x="349.332031" xlink:href="#DejaVuSans-41"/>
      <use x="417.708984" xlink:href="#DejaVuSans-2d"/>
      <use x="453.792969" xlink:href="#DejaVuSans-50"/>
      <use x="514.095703" xlink:href="#DejaVuSans-53"/>
      <use x="577.572266" xlink:href="#DejaVuSans-4b"/>
      <use x="643.148438" xlink:href="#DejaVuSans-20"/>
      <use x="674.935547" xlink:href="#DejaVuSans-2d"/>
      <use x="711.019531" xlink:href="#DejaVuSans-20"/>
      <use x="742.806641" xlink:href="#DejaVuSans-6d"/>
      <use x="840.21875" xlink:href="#DejaVuSans-3d"/>
      <use x="924.007812" xlink:href="#DejaVuSans-38"/>
      <use x="987.630859" xlink:href="#DejaVuSans-34"/>
      <use x="1051.253906" xlink:href="#DejaVuSans-31"/>
      <use x="1114.876953" xlink:href="#DejaVuSans-39"/>
      <use x="1178.5" xlink:href="#DejaVuSans-36"/>
      <use x="1242.123047" xlink:href="#DejaVuSans-2e"/>
      <use x="1273.910156" xlink:href="#DejaVuSans-38"/>
      <use x="1337.533203" xlink:href="#DejaVuSans-37"/>
      <use x="1401.15625" xlink:href="#DejaVuSans-33"/>
      <use x="1464.779297" xlink:href="#DejaVuSans-2c"/>
      <use x="1496.566406" xlink:href="#DejaVuSans-76"/>
      <use x="1555.746094" xlink:href="#DejaVuSans-61"/>
      <use x="1617.025391" xlink:href="#DejaVuSans-72"/>
      <use x="1658.138672" xlink:href="#DejaVuSans-3d"/>
      <use x="1741.927734" xlink:href="#DejaVuSans-30"/>
      <use x="1805.550781" xlink:href="#DejaVuSans-2e"/>
      <use x="1837.337891" xlink:href="#DejaVuSans-30"/>
      <use x="1900.960938" xlink:href="#DejaVuSans-30"/>
      <use x="1964.583984" xlink:href="#DejaVuSans-36"/>
     </g>
    </g>
    <g id="line2d_36"/>
    <g id="line2d_37">
     <g>
      <use style="fill:#377eb8;stroke:#377eb8;" x="433.762157" xlink:href="#m1dd9792440" y="114.43807"/>
     </g>
    </g>
    <g id="text_21">
     <!-- TLS-RSA-WITH - m=83907.746,var=0.003 -->
     <defs>
      <path d="M 3.328125 72.90625 
L 13.28125 72.90625 
L 28.609375 11.28125 
L 43.890625 72.90625 
L 54.984375 72.90625 
L 70.3125 11.28125 
L 85.59375 72.90625 
L 95.609375 72.90625 
L 77.296875 0 
L 64.890625 0 
L 49.515625 63.28125 
L 33.984375 0 
L 21.578125 0 
z
" id="DejaVuSans-57"/>
     </defs>
     <g transform="translate(444.184157 116.46457)scale(0.0579 -0.0579)">
      <use xlink:href="#DejaVuSans-54"/>
      <use x="61.083984" xlink:href="#DejaVuSans-4c"/>
      <use x="116.796875" xlink:href="#DejaVuSans-53"/>
      <use x="180.273438" xlink:href="#DejaVuSans-2d"/>
      <use x="216.357422" xlink:href="#DejaVuSans-52"/>
      <use x="285.839844" xlink:href="#DejaVuSans-53"/>
      <use x="349.332031" xlink:href="#DejaVuSans-41"/>
      <use x="417.708984" xlink:href="#DejaVuSans-2d"/>
      <use x="453.730469" xlink:href="#DejaVuSans-57"/>
      <use x="552.607422" xlink:href="#DejaVuSans-49"/>
      <use x="582.099609" xlink:href="#DejaVuSans-54"/>
      <use x="643.183594" xlink:href="#DejaVuSans-48"/>
      <use x="718.378906" xlink:href="#DejaVuSans-20"/>
      <use x="750.166016" xlink:href="#DejaVuSans-2d"/>
      <use x="786.25" xlink:href="#DejaVuSans-20"/>
      <use x="818.037109" xlink:href="#DejaVuSans-6d"/>
      <use x="915.449219" xlink:href="#DejaVuSans-3d"/>
      <use x="999.238281" xlink:href="#DejaVuSans-38"/>
      <use x="1062.861328" xlink:href="#DejaVuSans-33"/>
      <use x="1126.484375" xlink:href="#DejaVuSans-39"/>
      <use x="1190.107422" xlink:href="#DejaVuSans-30"/>
      <use x="1253.730469" xlink:href="#DejaVuSans-37"/>
      <use x="1317.353516" xlink:href="#DejaVuSans-2e"/>
      <use x="1349.140625" xlink:href="#DejaVuSans-37"/>
      <use x="1412.763672" xlink:href="#DejaVuSans-34"/>
      <use x="1476.386719" xlink:href="#DejaVuSans-36"/>
      <use x="1540.009766" xlink:href="#DejaVuSans-2c"/>
      <use x="1571.796875" xlink:href="#DejaVuSans-76"/>
      <use x="1630.976562" xlink:href="#DejaVuSans-61"/>
      <use x="1692.255859" xlink:href="#DejaVuSans-72"/>
      <use x="1733.369141" xlink:href="#DejaVuSans-3d"/>
      <use x="1817.158203" xlink:href="#DejaVuSans-30"/>
      <use x="1880.78125" xlink:href="#DejaVuSans-2e"/>
      <use x="1912.568359" xlink:href="#DejaVuSans-30"/>
      <use x="1976.191406" xlink:href="#DejaVuSans-30"/>
      <use x="2039.814453" xlink:href="#DejaVuSans-33"/>
     </g>
    </g>
   </g>
  </g>
  <g id="text_22">
   <!-- Handshake vs. payload latency (reading side) (Time in usec) -->
   <defs>
    <path d="M 18.109375 8.203125 
L 18.109375 -20.796875 
L 9.078125 -20.796875 
L 9.078125 54.6875 
L 18.109375 54.6875 
L 18.109375 46.390625 
Q 20.953125 51.265625 25.265625 53.625 
Q 29.59375 56 35.59375 56 
Q 45.5625 56 51.78125 48.09375 
Q 58.015625 40.1875 58.015625 27.296875 
Q 58.015625 14.40625 51.78125 6.484375 
Q 45.5625 -1.421875 35.59375 -1.421875 
Q 29.59375 -1.421875 25.265625 0.953125 
Q 20.953125 3.328125 18.109375 8.203125 
M 48.6875 27.296875 
Q 48.6875 37.203125 44.609375 42.84375 
Q 40.53125 48.484375 33.40625 48.484375 
Q 26.265625 48.484375 22.1875 42.84375 
Q 18.109375 37.203125 18.109375 27.296875 
Q 18.109375 17.390625 22.1875 11.75 
Q 26.265625 6.109375 33.40625 6.109375 
Q 40.53125 6.109375 44.609375 11.75 
Q 48.6875 17.390625 48.6875 27.296875 
" id="DejaVuSans-70"/>
    <path d="M 9.421875 75.984375 
L 18.40625 75.984375 
L 18.40625 0 
L 9.421875 0 
z
" id="DejaVuSans-6c"/>
    <path d="M 45.40625 27.984375 
Q 45.40625 37.75 41.375 43.109375 
Q 37.359375 48.484375 30.078125 48.484375 
Q 22.859375 48.484375 18.828125 43.109375 
Q 14.796875 37.75 14.796875 27.984375 
Q 14.796875 18.265625 18.828125 12.890625 
Q 22.859375 7.515625 30.078125 7.515625 
Q 37.359375 7.515625 41.375 12.890625 
Q 45.40625 18.265625 45.40625 27.984375 
M 54.390625 6.78125 
Q 54.390625 -7.171875 48.1875 -13.984375 
Q 42 -20.796875 29.203125 -20.796875 
Q 24.46875 -20.796875 20.265625 -20.09375 
Q 16.0625 -19.390625 12.109375 -17.921875 
L 12.109375 -9.1875 
Q 16.0625 -11.328125 19.921875 -12.34375 
Q 23.78125 -13.375 27.78125 -13.375 
Q 36.625 -13.375 41.015625 -8.765625 
Q 45.40625 -4.15625 45.40625 5.171875 
L 45.40625 9.625 
Q 42.625 4.78125 38.28125 2.390625 
Q 33.9375 0 27.875 0 
Q 17.828125 0 11.671875 7.65625 
Q 5.515625 15.328125 5.515625 27.984375 
Q 5.515625 40.671875 11.671875 48.328125 
Q 17.828125 56 27.875 56 
Q 33.9375 56 38.28125 53.609375 
Q 42.625 51.21875 45.40625 46.390625 
L 45.40625 54.6875 
L 54.390625 54.6875 
z
" id="DejaVuSans-67"/>
   </defs>
   <g transform="translate(56.711875 16.318125)scale(0.12 -0.12)">
    <use xlink:href="#DejaVuSans-48"/>
    <use x="75.195312" xlink:href="#DejaVuSans-61"/>
    <use x="136.474609" xlink:href="#DejaVuSans-6e"/>
    <use x="199.853516" xlink:href="#DejaVuSans-64"/>
    <use x="263.330078" xlink:href="#DejaVuSans-73"/>
    <use x="315.429688" xlink:href="#DejaVuSans-68"/>
    <use x="378.808594" xlink:href="#DejaVuSans-61"/>
    <use x="440.087891" xlink:href="#DejaVuSans-6b"/>
    <use x="497.951172" xlink:href="#DejaVuSans-65"/>
    <use x="559.474609" xlink:href="#DejaVuSans-20"/>
    <use x="591.261719" xlink:href="#DejaVuSans-76"/>
    <use x="650.441406" xlink:href="#DejaVuSans-73"/>
    <use x="702.541016" xlink:href="#DejaVuSans-2e"/>
    <use x="734.328125" xlink:href="#DejaVuSans-20"/>
    <use x="766.115234" xlink:href="#DejaVuSans-70"/>
    <use x="829.591797" xlink:href="#DejaVuSans-61"/>
    <use x="890.871094" xlink:href="#DejaVuSans-79"/>
    <use x="950.050781" xlink:href="#DejaVuSans-6c"/>
    <use x="977.833984" xlink:href="#DejaVuSans-6f"/>
    <use x="1039.015625" xlink:href="#DejaVuSans-61"/>
    <use x="1100.294922" xlink:href="#DejaVuSans-64"/>
    <use x="1163.771484" xlink:href="#DejaVuSans-20"/>
    <use x="1195.558594" xlink:href="#DejaVuSans-6c"/>
    <use x="1223.341797" xlink:href="#DejaVuSans-61"/>
    <use x="1284.621094" xlink:href="#DejaVuSans-74"/>
    <use x="1323.830078" xlink:href="#DejaVuSans-65"/>
    <use x="1385.353516" xlink:href="#DejaVuSans-6e"/>
    <use x="1448.732422" xlink:href="#DejaVuSans-63"/>
    <use x="1503.712891" xlink:href="#DejaVuSans-79"/>
    <use x="1562.892578" xlink:href="#DejaVuSans-20"/>
    <use x="1594.679688" xlink:href="#DejaVuSans-28"/>
    <use x="1633.693359" xlink:href="#DejaVuSans-72"/>
    <use x="1674.775391" xlink:href="#DejaVuSans-65"/>
    <use x="1736.298828" xlink:href="#DejaVuSans-61"/>
    <use x="1797.578125" xlink:href="#DejaVuSans-64"/>
    <use x="1861.054688" xlink:href="#DejaVuSans-69"/>
    <use x="1888.837891" xlink:href="#DejaVuSans-6e"/>
    <use x="1952.216797" xlink:href="#DejaVuSans-67"/>
    <use x="2015.693359" xlink:href="#DejaVuSans-20"/>
    <use x="2047.480469" xlink:href="#DejaVuSans-73"/>
    <use x="2099.580078" xlink:href="#DejaVuSans-69"/>
    <use x="2127.363281" xlink:href="#DejaVuSans-64"/>
    <use x="2190.839844" xlink:href="#DejaVuSans-65"/>
    <use x="2252.363281" xlink:href="#DejaVuSans-29"/>
    <use x="2291.376953" xlink:href="#DejaVuSans-20"/>
    <use x="2323.164062" xlink:href="#DejaVuSans-28"/>
    <use x="2362.177734" xlink:href="#DejaVuSans-54"/>
    <use x="2423.214844" xlink:href="#DejaVuSans-69"/>
    <use x="2450.998047" xlink:href="#DejaVuSans-6d"/>
    <use x="2548.410156" xlink:href="#DejaVuSans-65"/>
    <use x="2609.933594" xlink:href="#DejaVuSans-20"/>
    <use x="2641.720703" xlink:href="#DejaVuSans-69"/>
    <use x="2669.503906" xlink:href="#DejaVuSans-6e"/>
    <use x="2732.882812" xlink:href="#DejaVuSans-20"/>
    <use x="2764.669922" xlink:href="#DejaVuSans-75"/>
    <use x="2828.048828" xlink:href="#DejaVuSans-73"/>
    <use x="2880.148438" xlink:href="#DejaVuSans-65"/>
    <use x="2941.671875" xlink:href="#DejaVuSans-63"/>
    <use x="2996.652344" xlink:href="#DejaVuSans-29"/>
   </g>
  </g>
 </g>
 <defs>
  <clipPath id="pa0ef638ec3">
   <rect height="266.112" width="357.12" x="66.053125" y="41.76"/>
  </clipPath>
 </defs>
</svg>
