<?xml version="1.0" encoding="UTF-8" standalone="no"?>
<!-- Created with Inkscape (http://www.inkscape.org/) -->

<svg
   xmlns:dc="http://purl.org/dc/elements/1.1/"
   xmlns:cc="http://creativecommons.org/ns#"
   xmlns:rdf="http://www.w3.org/1999/02/22-rdf-syntax-ns#"
   xmlns:svg="http://www.w3.org/2000/svg"
   xmlns="http://www.w3.org/2000/svg"
   xmlns:sodipodi="http://sodipodi.sourceforge.net/DTD/sodipodi-0.dtd"
   xmlns:inkscape="http://www.inkscape.org/namespaces/inkscape"
   width="210mm"
   height="297mm"
   viewBox="0 0 210 297"
   version="1.1"
   id="svg8"
   inkscape:version="0.92.0 r"
   sodipodi:docname="SketchProfinet.svg">
  <defs
     id="defs2" />
  <sodipodi:namedview
     id="base"
     pagecolor="#ffffff"
     bordercolor="#666666"
     borderopacity="1.0"
     inkscape:pageopacity="0.0"
     inkscape:pageshadow="2"
     inkscape:zoom="0.35"
     inkscape:cx="48.620427"
     inkscape:cy="664.28571"
     inkscape:document-units="mm"
     inkscape:current-layer="layer1"
     showgrid="false"
     inkscape:window-width="1596"
     inkscape:window-height="853"
     inkscape:window-x="0"
     inkscape:window-y="22"
     inkscape:window-maximized="0" />
  <metadata
     id="metadata5">
    <rdf:RDF>
      <cc:Work
         rdf:about="">
        <dc:format>image/svg+xml</dc:format>
        <dc:type
           rdf:resource="http://purl.org/dc/dcmitype/StillImage" />
        <dc:title></dc:title>
      </cc:Work>
    </rdf:RDF>
  </metadata>
  <g
     inkscape:label="Ebene 1"
     inkscape:groupmode="layer"
     id="layer1">
    <path
       style="fill:none;fill-rule:evenodd;stroke:#000000;stroke-width:0.26458332px;stroke-linecap:butt;stroke-linejoin:miter;stroke-opacity:1"
       d="m 12.85119,174.53571 c 0,-2.01587 -0.251984,0.25199 0.755953,-0.75595 0.178179,-0.17818 -0.17818,-0.57777 0,-0.75595 1.564094,-1.56409 -0.06114,2.39014 1.511904,-0.75596 0.112691,-0.22538 -0.178179,-0.57777 0,-0.75595 0.17818,-0.17818 0.577773,0.17818 0.755953,0 0.178179,-0.17818 0,-0.50397 0,-0.75595 0,-1.76389 0,-3.52778 0,-5.29167 0,-8.56746 0,-17.13492 0,-25.70238 3.267189,0.91229 6.513138,0.75596 9.827381,0.75596 0.251984,0 0.503968,0 0.755952,0 0.251984,0 0.530571,-0.11269 0.755953,0 0.866637,0.43332 1.051536,1.5773 1.511904,2.26785 0.45877,0.68816 1.932843,1.59783 2.267858,2.26786 0.11269,0.22538 -0.112691,0.53057 0,0.75595 0.159368,0.31874 0.596583,0.43722 0.755952,0.75596 0.112691,0.22538 -0.112691,0.53057 0,0.75595 0.159369,0.31874 0.596584,0.43721 0.755952,0.75595 0.302381,0.60476 -0.302381,1.6631 0,2.26786 0.159369,0.31874 0.596584,0.43721 0.755953,0.75595 0.229515,0.45903 -0.229516,4.07668 0,4.53571 0.159369,0.31874 0.596583,0.43722 0.755952,0.75596 0.112691,0.22538 0,0.50397 0,0.75595 0,0.25198 0,0.50397 0,0.75595 0,1.25992 0,2.51984 0,3.77976 0,1.51191 0,3.02381 0,4.53572 0,0.50397 0.159369,1.0338 0,1.5119 -1.825226,5.47568 0.217944,-1.19184 -1.511905,2.26786 -0.11269,0.22538 0.17818,0.57777 0,0.75595 -0.178179,0.17818 -0.577772,-0.17818 -0.755952,0 -0.17818,0.17818 0.17818,0.57778 0,0.75595 -0.105448,0.10545 -3.551856,-0.0912 -3.779762,0 -0.84356,0.33743 -1.488789,1.04447 -2.267857,1.51191 -0.503968,0.25198 -1.007937,0.50397 -1.511905,0.75595 -0.251984,0 -0.530571,-0.11269 -0.755952,0 -0.318738,0.15937 -0.437215,0.59659 -0.755953,0.75595 -0.273377,0.13669 -3.253966,0 -3.779761,0 -0.251985,0 -0.577773,-0.17818 -0.755953,0 -0.17818,0.17818 0.17818,0.57778 0,0.75596 -0.356359,0.35636 -1.155545,-0.35636 -1.511905,0 -0.178179,0.17818 0.17818,0.57777 0,0.75595 -0.178179,0.17818 -0.503968,0 -0.755952,0 -0.251984,0 -0.503968,0 -0.755952,0"
       id="path4485"
       inkscape:connector-curvature="0" />
    <path
       style="fill:none;fill-rule:evenodd;stroke:#000000;stroke-width:0.26458332px;stroke-linecap:butt;stroke-linejoin:miter;stroke-opacity:1"
       d="m 15.875,139.7619 c -4.28373,-1.00794 -8.4580712,-2.76539 -12.8511906,-3.02381 -0.1552075,-0.009 0.1034719,3.36588 0,3.77976 -0.1366576,0.54664 -0.6454499,0.9594 -0.7559523,1.51191 -0.1482544,0.74127 0.1482545,1.52659 0,2.26786 -0.1105023,0.55251 -0.5777727,0.97736 -0.7559524,1.5119 -0.079684,0.23905 0,0.50397 0,0.75596 0,0.50396 0,1.00793 0,1.5119 0,0.50397 0,1.00794 0,1.5119 0,0.50397 0.1222303,1.02299 0,1.51191 -0.1366575,0.54663 -0.57777264,0.97736 -0.75595232,1.5119 -0.0796844,0.23906 0,0.50397 0,0.75596 0,0.48646 0.1278967,4.78008 0,5.29166 C 0.6192948,159.20734 0.13665758,159.62599 0,160.17262 c -0.18334538,0.73338 0,1.5119 0,2.26786 0,2.26785 0,4.53571 0,6.80356 0,6.29961 0,12.59921 0,18.89881 2.5198413,1e-5 5.0396825,1e-5 7.5595238,1e-5 0.5039683,0 1.0229837,-0.12223 1.5119048,0 0.5466303,0.13665 0.9652744,0.61929 1.5119044,0.75595 0.488921,0.12223 1.007937,0 1.511905,0 0.755952,0 1.511905,0 2.267857,0 1.511905,0 3.02381,0 4.535715,0 0.755952,0 1.534475,-0.18335 2.267857,0 0.54663,0.13666 0.965274,0.61929 1.511904,0.75595 0.977842,0.24446 2.045968,-0.24446 3.02381,0 0.54663,0.13666 0.977366,0.57777 1.511905,0.75595 0.733182,0.2444 4.034051,-0.25083 4.535714,0 0.318738,0.15937 0.41788,0.64327 0.755952,0.75596 0.478107,0.15937 1.007937,0 1.511905,0 0.251984,0 0.530571,-0.11269 0.755953,0 0.318737,0.15937 0.437214,0.59658 0.755952,0.75595 0.225381,0.11269 0.530571,-0.11269 0.755952,0 0.318738,0.15937 0.437215,0.59658 0.755953,0.75595 0.230062,0.11503 1.927408,0 2.267857,0 1.511905,0 3.023809,0 4.535714,0 1.763889,0 3.527778,0 5.291667,0 0.251984,0 0.577772,0.17818 0.755952,0 0.17818,-0.17818 0,-0.50397 0,-0.75595 0,-1.51191 0,-3.02381 0,-4.53572"
       id="path4487"
       inkscape:connector-curvature="0" />
    <path
       style="fill:none;fill-rule:evenodd;stroke:#000000;stroke-width:0.26458332px;stroke-linecap:butt;stroke-linejoin:miter;stroke-opacity:1"
       d="m 49.892857,187.3869 c -1.258501,-0.4195 -3.148904,-0.63085 -2.267858,-1.5119 0.178181,-0.17818 0.577774,0.17818 0.755952,0 0.178181,-0.17818 -0.112689,-0.53057 0,-0.75596 0.159369,-0.31873 0.596585,-0.43721 0.755954,-0.75595 0.112689,-0.22538 -0.178181,-0.57777 0,-0.75595 0.178179,-0.17818 0.577771,0.17818 0.755952,0 0.206846,-0.20684 -0.205047,-2.61371 0,-3.02381 0.159369,-0.31874 0.596582,-0.43721 0.755952,-0.75595 0.11503,-0.23006 0,-1.92741 0,-2.26786 0,-1.76389 0,-3.52778 0,-5.29167 0,-6.80357 0,-13.60714 0,-20.41071 0,-2.26786 0,-4.53571 0,-6.80357 0,-0.71263 -0.116967,-1.56606 0,-2.26786 0.211232,-1.26739 0.503967,-2.51984 0.755951,-3.77976 -1.763888,-0.75595 -3.494799,-1.59403 -5.291665,-2.26785 -0.47188,-0.17696 -1.007936,0 -1.511905,0 -1.25992,0 -2.524193,0.10463 -3.779761,0 -2.024544,-0.16872 -4.039682,-0.44704 -6.047619,-0.75596 -3.754638,-0.57763 -2.883848,-0.30799 -5.291667,-1.5119 -0.503968,-0.25199 -1.043083,-0.44341 -1.511905,-0.75595 -0.296509,-0.19768 -0.437215,-0.59659 -0.755952,-0.75596 -0.225382,-0.11269 -0.503969,0 -0.755953,0 -0.251984,0 -0.503968,0 -0.755952,0 -1.007937,0 -2.015873,0 -3.02381,0 -3.527777,0 -7.055555,0 -10.583333,0 -2.267857,0 -4.5357142,0 -6.8035713,0 -0.1796373,0 -2.8543778,-0.0847 -3.0238096,0 -3.14609268,1.57305 0.80814,-0.0522 -0.7559523,1.51191 -0.1781797,0.17818 -0.57777273,-0.17818 -0.75595242,0 -0.17817968,0.17818 0,0.50397 0,0.75595 0,1.25992 0,2.51984 0,3.77976"
       id="path4489"
       inkscape:connector-curvature="0" />
    <path
       style="fill:none;fill-rule:evenodd;stroke:#000000;stroke-width:0.26458332px;stroke-linecap:butt;stroke-linejoin:miter;stroke-opacity:1"
       d="m 169.33333,188.14285 c 0,-8.56746 0,-17.13492 0,-25.70237 0,-2.77183 0,-5.54366 0,-8.31548 0,-1.00794 0,-2.01587 0,-3.02381 0,-0.50397 -0.0828,-1.0148 0,-1.51191 0.17081,-1.02482 0.50397,-2.01587 0.75595,-3.0238 1.25992,0.75595 2.42926,1.68907 3.77977,2.26785 0.46322,0.19853 1.00793,0 1.5119,0 0.75595,0 1.51191,0 2.26786,0 2.01587,0 4.03175,0 6.04762,0 0.50397,0 1.00794,0 1.5119,0 0.50397,0 1.02299,-0.12223 1.51191,0 1.09326,0.27332 1.95473,1.15555 3.02381,1.51191 2.25034,0.75011 -1.55107,-1.79 2.26785,0.75595 0.59302,0.39535 0.91889,1.11656 1.51191,1.51191 0.46882,0.31254 0.97737,0.57777 1.5119,0.75595 0.23906,0.0797 0.57778,-0.17818 0.75596,0 0.39842,0.39842 0.35753,1.11348 0.75595,1.5119 0.17818,0.17818 0.57777,-0.17818 0.75595,0 2.95028,2.95028 -0.17498,0.40599 0.75595,2.26786 0.39844,0.79686 1.11348,0.71504 1.51191,1.5119 0.22538,0.45077 -0.22538,1.06115 0,1.51191 0.15937,0.31874 0.59658,0.43721 0.75595,0.75595 0.11503,0.23006 0,1.92741 0,2.26786 0,1.76389 0,3.52778 0,5.29167 0,2.26785 0,4.53571 0,6.80357 0,0.3953 0.0994,2.82503 0,3.02381 -0.15937,0.31873 -0.50397,0.50396 -0.75595,0.75595 -0.50397,0.50397 -1.00794,1.00794 -1.51191,1.5119 -0.50396,0.50397 -1.00793,1.00794 -1.5119,1.51191 -0.25199,0.25198 -0.45944,0.55828 -0.75595,0.75595 -0.46883,0.31255 -0.97737,0.57777 -1.51191,0.75595 -0.23905,0.0797 -0.57777,-0.17818 -0.75595,0 -0.17818,0.17818 0.17818,0.57778 0,0.75596 -0.0926,0.0926 -1.99346,-0.0686 -2.26786,0 -0.75595,0.25198 -1.5119,0.50396 -2.26785,0.75595 -0.25199,0.25198 -0.41788,0.64326 -0.75596,0.75595 -0.4781,0.15937 -1.0338,-0.15937 -1.5119,0 -0.33807,0.11269 -0.43722,0.59658 -0.75595,0.75595 -0.22539,0.11269 -0.5169,-0.0797 -0.75596,0 -1.28734,0.42912 -2.5325,0.97737 -3.77976,1.51191 -1.03579,0.44391 -1.95473,1.15554 -3.02381,1.5119 -0.47579,0.1586 -3.09837,0 -3.77976,0 -0.25198,0 -0.57777,-0.17818 -0.75595,0 -1.00794,1.00794 1.25992,0.75595 -0.75595,0.75595"
       id="path4491"
       inkscape:connector-curvature="0" />
    <path
       style="fill:none;fill-rule:evenodd;stroke:#000000;stroke-width:0.26458332px;stroke-linecap:butt;stroke-linejoin:miter;stroke-opacity:1"
       d="m 170.08928,146.56548 c -8.31172,0.83117 -7.55952,-1.77646 -7.55952,3.0238 0,0.75596 0.12428,1.52219 0,2.26786 -0.131,0.786 -0.62495,1.48186 -0.75595,2.26786 -0.12428,0.74566 0,1.5119 0,2.26785 0,0.75596 0,1.51191 0,2.26786 0,0.29559 0.10868,4.96562 0,5.29167 -0.11269,0.33807 -0.59659,0.43721 -0.75595,0.75595 -0.1127,0.22538 0,0.50397 0,0.75595 0,0.6189 0.16326,3.28997 0,3.77976 -0.17819,0.53455 -0.57778,0.97737 -0.75596,1.51191 -0.14217,0.42651 0,1.77112 0,2.26786 0,1.5119 0,3.02381 0,4.53571 0,0.75595 0.18335,1.53448 0,2.26786 -0.13666,0.54663 -0.61929,0.96527 -0.75595,1.5119 -0.12223,0.48892 0,1.00794 0,1.51191 0,1.25992 0,2.51984 0,3.77976 0,2.51984 0,5.03968 0,7.55952 0,0.25199 0,0.50397 0,0.75596 0,0.25198 -0.23905,0.67626 0,0.75595 0.71716,0.23905 1.52219,-0.12428 2.26786,0 1.572,0.262 2.96371,1.2499 4.53571,1.5119 5.76689,0 -0.59633,-0.33807 3.77976,0.75596 0.64348,0.16086 3.3458,-0.21699 3.77977,0 0.31873,0.15936 0.43721,0.59658 0.75595,0.75595 0.22538,0.11269 0.53057,-0.11269 0.75595,0 0.31874,0.15937 0.43722,0.59658 0.75595,0.75595 0.60476,0.30238 1.6631,-0.30238 2.26786,0 0.31874,0.15937 0.43721,0.59658 0.75595,0.75595 0.45077,0.22538 1.06114,-0.22538 1.51191,0 0.31873,0.15937 0.43721,0.59659 0.75595,0.75595 0.22538,0.1127 0.53057,-0.11269 0.75595,0 0.31874,0.15937 0.43722,0.59659 0.75595,0.75596 0.20147,0.10073 4.19373,0 4.53572,0 3.52778,0 7.05555,0 10.58333,0 2.26786,0 4.53572,0 6.80357,0 0.25199,0 0.57777,0.17818 0.75596,0 0.17817,-0.17818 -0.25199,-0.75596 0,-0.75596 0.25198,0 0,1.00794 0,0.75596 0,-1.51191 0,-3.02381 0,-4.53572 0,-4.7877 0,-9.57539 0,-14.36309 0,-1.00794 0,-2.01587 0,-3.02381 0,-1.00794 0,-2.01588 0,-3.02381 0,-7.30754 0,-14.61508 0,-21.92262 0,-2.01587 0,-4.03175 0,-6.04762 0,-0.25198 0,-0.50397 0,-0.75595 0,-0.25199 0.22538,-0.64326 0,-0.75595 -0.45077,-0.22539 -1.00794,0 -1.51191,0 -1.76389,0 -3.53387,0.14648 -5.29167,0 -1.28043,-0.10671 -2.50481,-0.59659 -3.77976,-0.75595 -1.89217,-0.23653 -4.18336,0.3107 -6.04762,0 -3.14609,-0.52435 -1.31211,-0.68936 -3.77976,-1.51191 -0.42651,-0.14217 -1.77111,0 -2.26786,0 -1.5119,0 -3.02381,0 -4.53571,0 -1.5119,0 -3.02381,0 -4.53571,0 -0.25199,0 -0.50397,0 -0.75596,0 -0.25198,0 -0.53057,-0.11269 -0.75595,0 -0.81263,0.40631 -1.51191,1.00794 -2.26786,1.51191 z"
       id="path4493"
       inkscape:connector-curvature="0" />
    <path
       style="fill:none;fill-rule:evenodd;stroke:#000000;stroke-width:0.26458332px;stroke-linecap:butt;stroke-linejoin:miter;stroke-opacity:1"
       d="m 57.452381,156.39285 c 0,4.03175 0,8.0635 0,12.09524"
       id="path4495"
       inkscape:connector-curvature="0" />
    <path
       style="fill:none;fill-rule:evenodd;stroke:#000000;stroke-width:0.26458332px;stroke-linecap:butt;stroke-linejoin:miter;stroke-opacity:1"
       d="m 57.452381,156.39285 c -0.503968,0.25199 -1.259919,1.25993 -1.511906,0.75596 -0.251986,-0.50397 0.965274,-0.6193 1.511906,-0.75596 1.059503,-0.26488 13.005289,-1.85788 0,0"
       id="path4497"
       inkscape:connector-curvature="0" />
    <path
       style="fill:none;fill-rule:evenodd;stroke:#000000;stroke-width:0.26458332px;stroke-linecap:butt;stroke-linejoin:miter;stroke-opacity:1"
       d="m 57.452381,156.39285 c 1.763887,0.75595 3.730067,1.15243 5.291667,2.26786 0.410093,0.29293 0,1.00794 0,1.51191 0,2.51984 0,5.03968 0,7.55952 0,0.18334 -0.02432,2.24355 0,2.26786 0.178178,0.17818 0.503967,0 0.755951,0 0.755952,0 1.534475,-0.18335 2.267858,0 0.546629,0.13666 0.977365,0.57777 1.511903,0.75595 0.239054,0.0797 0.50397,0 0.755954,0 0.251984,0 1.002342,0.0528 0.755952,0 -3.769053,-0.80766 -7.559524,-1.51191 -11.339285,-2.26786"
       id="path4499"
       inkscape:connector-curvature="0" />
    <path
       style="fill:none;fill-rule:evenodd;stroke:#000000;stroke-width:0.26458332px;stroke-linecap:butt;stroke-linejoin:miter;stroke-opacity:1"
       d="m 80.130951,157.14881 c -1.511904,0 -3.023809,0 -4.535713,0 -0.251986,0 -0.530571,-0.11269 -0.755954,0 -0.318736,0.15937 -0.437213,0.59658 -0.755952,0.75595 -0.450762,0.22538 -1.155546,-0.35636 -1.511905,0 -0.377976,0.37798 0.377978,1.88988 0,2.26786 -0.178179,0.17818 -0.577771,-0.17818 -0.755952,0 -0.03042,0.0304 0,2.74619 0,3.02381 0,0.25198 -0.178178,0.57777 0,0.75595 0.156633,0.15663 2.983407,-0.0808 3.023809,0 2.629368,5.25873 -0.0935,1.13791 0.755954,4.53571 0.136658,0.54663 0.577771,0.97737 0.755952,1.51191 0.07968,0.23905 -0.178181,0.57777 0,0.75595 0.178178,0.17818 0.577773,-0.17818 0.755952,0 0.178181,0.17818 -0.112692,0.53057 0,0.75595 0.159369,0.31874 0.755951,0.39959 0.755951,0.75595 0,0.0555 -2.12915,-0.0694 -2.267855,0 -0.318738,0.15937 -0.437216,0.59659 -0.755954,0.75596 -0.450763,0.22538 -1.155544,-0.35636 -1.511903,0 -0.178181,0.17818 0.178178,0.57777 0,0.75595 -0.35636,0.35636 -1.155547,-0.35636 -1.511906,0 -0.410641,0.41064 0.662625,1.35325 -0.755952,0.75595 -4.574548,-1.92613 -9.07143,-4.03175 -13.607142,-6.04762"
       id="path4501"
       inkscape:connector-curvature="0" />
    <path
       style="fill:none;fill-rule:evenodd;stroke:#000000;stroke-width:0.26458332px;stroke-linecap:butt;stroke-linejoin:miter;stroke-opacity:1"
       d="m 130.77976,164.70833 c -0.25198,1.25992 -0.57424,2.50781 -0.75595,3.77976 -0.14255,0.99781 0,2.01588 0,3.02381 0,2.26786 0,4.53572 0,6.80357 0,0.18334 0.0243,2.24355 0,2.26786 -0.17818,0.17818 -0.50397,0 -0.75595,0"
       id="path4503"
       inkscape:connector-curvature="0" />
    <path
       style="fill:none;fill-rule:evenodd;stroke:#000000;stroke-width:0.26458332px;stroke-linecap:butt;stroke-linejoin:miter;stroke-opacity:1"
       d="m 130.77976,164.70833 c -2.77183,-1.00794 -5.57703,-1.92843 -8.31548,-3.02381 -0.23396,-0.0936 0.50397,0 0.75596,0 1.25992,0 2.51984,0 3.77976,0 3.27579,0 6.55158,0 9.82738,0 1.25992,0 2.51984,0 3.77976,0 0.25198,0 0.50397,0 0.75595,0 0.25199,0 0.53057,-0.11269 0.75596,0 0.31873,0.15937 0.50396,0.50397 0.75595,0.75596 0.25198,0.25198 1.10621,0.69027 0.75595,0.75595 -4.2394,0.79488 -8.56746,1.00793 -12.85119,1.5119"
       id="path4505"
       inkscape:connector-curvature="0" />
    <path
       style="fill:none;fill-rule:evenodd;stroke:#000000;stroke-width:0.26458332px;stroke-linecap:butt;stroke-linejoin:miter;stroke-opacity:1"
       d="m 130.77976,164.70833 c 4.28373,0.50397 8.60355,0.76232 12.85119,1.51191 0.24815,0.0438 0,0.50396 0,0.75595 0,0.25198 0,0.50397 0,0.75595 0,3.27579 0,6.55159 0,9.82738 0,1.25992 0,2.51984 0,3.77976 0,0.25199 -0.17818,0.57778 0,0.75596 0.17818,0.17818 0.50397,0 0.75595,0 1.51191,0 3.02381,0 4.53572,0"
       id="path4507"
       inkscape:connector-curvature="0" />
    <path
       style="fill:none;fill-rule:evenodd;stroke:#000000;stroke-width:0.26458332px;stroke-linecap:butt;stroke-linejoin:miter;stroke-opacity:1"
       d="m 157.99405,168.48809 c 0.88007,-5.91573 -2.82024,-0.55238 -3.77977,-1.5119 -0.17818,-0.17818 0.17818,-0.57777 0,-0.75595 -0.10661,-0.10661 -2.11279,-0.0775 -2.26785,0 -3.1461,1.57304 0.80814,-0.0522 -0.75596,1.5119 -0.17817,0.17818 -0.57777,-0.17818 -0.75595,0 -0.17818,0.17818 0,0.50397 0,0.75595 0,1.02441 -0.16673,4.79148 0,5.29167 0.11269,0.33807 0.55828,0.45944 0.75595,0.75595 0.31255,0.46882 0.44341,1.04308 0.75596,1.51191 0.19767,0.29651 0.55828,0.45944 0.75595,0.75595 0.31255,0.46882 0.35753,1.11348 0.75595,1.5119 1.56409,1.5641 -0.0611,-2.39014 1.51191,0.75596 0.0422,0.0844 0.0422,3.69538 0,3.77976 -1.57305,3.14609 0.0522,-0.80814 -1.51191,0.75595 -0.17818,0.17818 0.17818,0.57777 0,0.75595 -0.0304,0.0304 -2.74619,0 -3.02381,0 -0.25198,0 -0.61618,0.20967 -0.75595,0 -0.44201,-0.66301 -0.50397,-1.5119 -0.75595,-2.26785"
       id="path4509"
       inkscape:connector-curvature="0" />
    <path
       style="fill:none;fill-rule:evenodd;stroke:#000000;stroke-width:0.26458332px;stroke-linecap:butt;stroke-linejoin:miter;stroke-opacity:1"
       d="m 51.40476,139.00595 c 2.519841,1.76389 4.851321,3.8334 7.559524,5.29167 0.545965,0.29398 2.995811,-0.19599 3.779764,0 0.546629,0.13666 0.977365,0.57777 1.511903,0.75595 0.680357,0.22678 1.5875,-0.22679 2.267857,0 0.534541,0.17818 0.977366,0.57777 1.511906,0.75595 0.669391,0.22313 3.030392,-0.18734 3.779761,0 0.546632,0.13666 0.977365,0.57777 1.511906,0.75596 0.679183,0.22639 1.571559,-0.17408 2.267857,0 0.773052,0.19326 1.494803,0.56268 2.267855,0.75595 0.244462,0.0611 0.516901,-0.0797 0.755954,0 0.534538,0.17818 0.977366,0.57777 1.511904,0.75595 0.680357,0.22679 1.5875,-0.22679 2.267857,0 0.53454,0.17818 0.977366,0.57777 1.511906,0.75595 0.294158,0.0981 2.150541,-0.11731 2.267857,0 0.178179,0.17818 -0.178181,0.57777 0,0.75595 0.178179,0.17818 0.577771,-0.17818 0.755952,0 0.09164,0.0916 -0.07759,1.20154 0,1.51191 0.193262,0.77305 0.599678,1.48648 0.755952,2.26786 0.09884,0.49418 -0.12223,1.02298 0,1.5119 0.136657,0.54663 0.619294,0.96528 0.755951,1.5119 0.122233,0.48893 0,1.00794 0,1.51191 0,1.51191 0,3.02381 0,4.53572 0,3.77976 0,7.55952 0,11.33928 0,2.42165 0.16147,7.31732 0,7.55952 -0.312547,0.46882 -0.98875,0.54669 -1.511903,0.75596 -2.397808,0.95912 -3.000968,0.75595 -5.291667,0.75595 -0.755951,0 -1.52219,-0.12428 -2.267857,0 -0.786003,0.131 -1.486487,0.59968 -2.267857,0.75595 -0.494181,0.0988 -1.007936,0 -1.511904,0 -1.259922,0 -2.519841,0 -3.779763,0 -4.031745,0 -8.063492,0 -12.095237,0 -1.763889,0 -3.527779,0 -5.291666,0 -0.503971,0 -1.007938,0 -1.511906,0 -0.251984,0 -0.598538,-0.19677 -0.755952,0 -0.917868,1.14734 -1.511905,2.51984 -2.267857,3.77976"
       id="path4511"
       inkscape:connector-curvature="0" />
    <path
       style="fill:none;fill-rule:evenodd;stroke:#000000;stroke-width:0.26458332px;stroke-linecap:butt;stroke-linejoin:miter;stroke-opacity:1"
       d="m 170.08928,146.56548 c -5.03968,2.26785 -9.94448,4.8631 -15.11904,6.80357 -0.94376,0.35391 -2.01588,0 -3.02381,0 -2.26786,0 -4.53572,0 -6.80357,0 -7.05556,0 -14.11111,0 -21.16667,0 -2.26786,0 -4.53572,0 -6.80357,0 -0.18334,0 -2.24355,-0.0243 -2.26786,0 -0.17818,0.17818 0,0.50396 0,0.75595 0,2.01587 0,4.03174 0,6.04762 0,7.30754 0,14.61508 0,21.92262 0,1.25992 0,2.51984 0,3.77976 0,0.25198 0,0.50397 0,0.75595 0,0.25198 -0.22538,0.64326 0,0.75595 0.45076,0.22538 1.00794,0 1.51191,0 0.75595,0 1.52658,-0.14825 2.26785,0 0.55251,0.11051 0.96528,0.6193 1.51191,0.75595 0.59464,0.14867 3.74958,0 4.53571,0 0.50397,0 1.02299,-0.12223 1.51191,0 0.54663,0.13666 0.97736,0.57778 1.5119,0.75596 0.23905,0.0797 0.53057,-0.11269 0.75595,0 0.31874,0.15937 0.43722,0.59658 0.75596,0.75595 0.45076,0.22538 1.06114,-0.22538 1.5119,0 0.31874,0.15937 0.43722,0.59658 0.75595,0.75595 0.47513,0.23757 2.54868,-0.23757 3.02381,0 2.50718,2.50718 -0.71272,-0.35636 1.51191,0.75596 0.31873,0.15936 0.43721,0.59658 0.75595,0.75595 0.45076,0.22538 1.15554,-0.35636 1.5119,0 0.17818,0.17818 -0.17818,0.57777 0,0.75595 0.35636,0.35636 1.06115,-0.22538 1.51191,0 0.31874,0.15937 0.43721,0.59658 0.75595,0.75595 0.22538,0.11269 0.50397,0 0.75595,0 0.61875,0 4.31453,-0.11059 4.53572,0 0.22538,0.11269 -0.17818,0.57777 0,0.75595 0.17818,0.17818 0.50397,0 0.75595,0 0.25199,0 0.50397,0 0.75595,0 3.2758,0 6.55159,0 9.82738,0 0.5258,0 3.50639,-0.13668 3.77977,0 1.81708,0.90854 3.52777,2.01587 5.29166,3.02381"
       id="path4513"
       inkscape:connector-curvature="0" />
    <path
       style="fill:none;fill-rule:evenodd;stroke:#000000;stroke-width:0.26458332px;stroke-linecap:butt;stroke-linejoin:miter;stroke-opacity:1"
       d="m 80.130951,157.14881 c 5.291666,2.01587 10.50295,4.25693 15.874999,6.04762 0.717161,0.23905 1.511906,0 2.267858,0 2.267862,0 4.535712,0 6.803572,0 1.16598,0 3.65181,-0.17678 4.53571,0 0.55252,0.1105 1.00794,0.50396 1.51191,0.75595 0.50397,0.25198 1.04308,0.4434 1.5119,0.75595 0.29651,0.19767 0.43722,0.59659 0.75596,0.75595 0.22538,0.1127 0.50396,0 0.75595,0"
       id="path4515"
       inkscape:connector-curvature="0" />
    <path
       style="fill:none;fill-rule:evenodd;stroke:#000000;stroke-width:0.26458332px;stroke-linecap:butt;stroke-linejoin:miter;stroke-opacity:1"
       d="m 114.14881,165.46428 c -1.76389,-2.51984 -3.40327,-5.13159 -5.29167,-7.55952 -0.1547,-0.1989 0,0.50397 0,0.75595 0,0.25199 0,0.50397 0,0.75596 0,0.25198 0,0.50396 0,0.75595 0,0.25198 -0.11269,0.53057 0,0.75595 0.31874,0.63748 1.19317,0.87443 1.51191,1.51191 0.22538,0.45076 -0.35636,1.15554 0,1.5119 0.17818,0.17818 0.57777,-0.17818 0.75595,0 0.39842,0.39842 0.25198,1.25992 0.75595,1.5119 0.67615,0.33808 2.1196,-0.74127 2.26786,0 0.26612,1.33063 -1.24578,2.44914 -1.51191,3.77976 -0.0494,0.2471 0.57778,-0.17817 0.75596,0 0.17817,0.17819 -0.17818,0.57778 0,0.75596 0.17817,0.17818 0.57777,-0.17818 0.75595,0 0.17818,0.17818 0,0.50397 0,0.75595 0,0.25198 0,0.50397 0,0.75595 0,1.44951 0.34154,1.17037 -0.75595,2.26786 -0.25199,0.25198 -0.43722,0.59658 -0.75596,0.75595 -0.22538,0.11269 -0.53057,-0.11269 -0.75595,0 -1.86826,0.93413 0.26094,0.75596 -1.5119,0.75596 -1.00794,0 -2.01588,0 -3.02381,0 -0.25199,0 -0.89939,0.20718 -0.75596,0 2.35246,-3.398 5.03969,-6.5516 7.55953,-9.82739"
       id="path4517"
       inkscape:connector-curvature="0" />
    <path
       style="fill:none;fill-rule:evenodd;stroke:#000000;stroke-width:0.26458332px;stroke-linecap:butt;stroke-linejoin:miter;stroke-opacity:1"
       d="m 99.785714,154.125 c -1.080265,2.29131 -3.164774,0.0705 -4.535715,0.75595 -0.225383,0.11269 0.178181,0.57777 0,0.75595 -0.35636,0.35636 -1.033799,-0.15937 -1.511906,0 -0.534538,0.17818 -1.043083,0.44341 -1.511903,0.75595 -0.688155,0.45878 -1.59783,1.93285 -2.267858,2.26786 -1.042728,0.52137 -0.67618,-0.9155 -1.511906,0.75596 -0.112688,0.22538 0.178181,0.57777 0,0.75595 -0.178178,0.17818 -0.57777,-0.17818 -0.755951,0 -0.178179,0.17818 0.251984,0.75595 0,0.75595 -0.251984,0 0,-1.00794 0,-0.75595 0,1.5119 0,3.02381 0,4.53571 0,0.75595 0,1.51191 0,2.26786 0,0.50397 -0.12223,1.02298 0,1.5119 0.136657,0.54663 0.577773,0.97737 0.755951,1.51191 0.159369,0.4781 -0.22538,1.06114 0,1.5119 0.159369,0.31874 0.596585,0.43722 0.755955,0.75595 0.112688,0.22539 -0.112692,0.53058 0,0.75596 0.07235,0.1447 2.879103,2.95145 3.023809,3.02381 0.23006,0.11503 1.927407,0 2.267857,0"
       id="path4519"
       inkscape:connector-curvature="0" />
  </g>
</svg>
